G04*
G04 #@! TF.GenerationSoftware,Altium Limited,Altium Designer,18.1.9 (240)*
G04*
G04 Layer_Physical_Order=1*
G04 Layer_Color=3394611*
%FSLAX25Y25*%
%MOIN*%
G70*
G01*
G75*
%ADD11C,0.00591*%
%ADD12C,0.01575*%
%ADD15C,0.00394*%
%ADD16C,0.00787*%
%ADD17C,0.00984*%
%ADD18R,0.04331X0.03937*%
%ADD19R,0.02756X0.02756*%
%ADD22C,0.00500*%
%ADD23C,0.02756*%
%ADD24C,0.02756*%
G36*
X32087Y43773D02*
X27756D01*
Y48180D01*
X32087D01*
Y43773D01*
D02*
G37*
G36*
X23031Y45540D02*
X20286Y42794D01*
X19587D01*
X19105Y42698D01*
X18697Y42425D01*
X17713Y41441D01*
X17662Y41365D01*
X16556Y41088D01*
X16250Y41107D01*
X15686Y41671D01*
X15263Y41953D01*
X14764Y42053D01*
X8760D01*
X8261Y41953D01*
X7837Y41671D01*
X6361Y40194D01*
X6078Y39771D01*
X6010Y39429D01*
X4921D01*
Y34705D01*
X4921D01*
X5242Y33931D01*
X3535Y32224D01*
X639D01*
Y48180D01*
X23031D01*
Y45540D01*
D02*
G37*
G36*
X50197Y43760D02*
X54921D01*
Y45546D01*
X59074D01*
X59563Y44365D01*
X56361Y41163D01*
X56102Y40776D01*
X56005Y40754D01*
X54921Y40972D01*
Y41280D01*
X48549D01*
Y42382D01*
X48449Y42881D01*
X48167Y43304D01*
X45866Y45605D01*
Y48180D01*
X50197D01*
Y43760D01*
D02*
G37*
G36*
X41142D02*
X44021D01*
X45320Y42461D01*
X44831Y41280D01*
X36811D01*
Y38400D01*
X36231Y37820D01*
X33060D01*
X32480Y38400D01*
Y41164D01*
X33315D01*
X33814Y41263D01*
X34237Y41546D01*
X35371Y42680D01*
X35654Y43103D01*
X35753Y43602D01*
Y43760D01*
X36811D01*
Y48180D01*
X41142D01*
Y43760D01*
D02*
G37*
G36*
X69168Y45129D02*
Y43454D01*
X68554Y42840D01*
X64370D01*
X63871Y42741D01*
X63448Y42458D01*
X61577Y40588D01*
X61295Y40165D01*
X61195Y39665D01*
Y39429D01*
X59252D01*
Y35458D01*
X56895D01*
X56081Y36383D01*
X56127Y36614D01*
Y39699D01*
X56199Y39770D01*
X56209Y39774D01*
X56220Y39774D01*
X56317Y39796D01*
X56488Y39870D01*
X56660Y39941D01*
X56667Y39948D01*
X56676Y39952D01*
X56805Y40086D01*
X56937Y40218D01*
X57140Y40523D01*
X60272Y43655D01*
X60490Y43981D01*
X60566Y44365D01*
X61270Y45546D01*
X68751D01*
X69168Y45129D01*
D02*
G37*
G36*
X68307Y37584D02*
Y34705D01*
X68307Y34705D01*
X68333Y34233D01*
X68359Y33524D01*
X68287Y32972D01*
X67194Y32224D01*
X64436D01*
X64135Y32712D01*
X63991Y33406D01*
X64899Y34314D01*
X65182Y34737D01*
X65281Y35236D01*
Y38731D01*
X65304Y38754D01*
X67137D01*
X68307Y37584D01*
D02*
G37*
G36*
X12877Y38394D02*
Y35274D01*
X12973Y34792D01*
X13246Y34384D01*
X13874Y33756D01*
X14282Y33483D01*
X14764Y33387D01*
X14720Y32224D01*
X10166D01*
X9677Y33406D01*
X10536Y34264D01*
X10808Y34672D01*
X10904Y35154D01*
Y38407D01*
X12865D01*
X12877Y38394D01*
D02*
G37*
G36*
X50104Y35070D02*
X50792Y34525D01*
X50959Y34285D01*
Y32382D01*
X51059Y31883D01*
X51277Y31555D01*
X51143Y30982D01*
X50892Y30374D01*
X47400D01*
X46476Y31298D01*
Y33813D01*
X46457Y33910D01*
Y34009D01*
X46618Y34424D01*
X46949Y34963D01*
X47085Y35088D01*
X47178Y35159D01*
X49803D01*
X49834Y35165D01*
X50104Y35070D01*
D02*
G37*
G36*
X27756Y36555D02*
X30635D01*
X31597Y35593D01*
X32020Y35311D01*
X32520Y35211D01*
X33646D01*
X34255Y34065D01*
X34018Y33491D01*
X33936Y32874D01*
X33957Y32717D01*
X33130Y31818D01*
X32520D01*
X31982Y31711D01*
X31526Y31407D01*
X30493Y30374D01*
X29743D01*
X28710Y31407D01*
X28254Y31711D01*
X27716Y31818D01*
X27255D01*
X26378Y32696D01*
Y36417D01*
X24549D01*
X23425Y36555D01*
Y39435D01*
X25155Y41164D01*
X27756D01*
Y36555D01*
D02*
G37*
G36*
X9334Y32154D02*
X9646Y31819D01*
Y27839D01*
X8709Y27386D01*
X8522Y27362D01*
X6439D01*
X5315Y27500D01*
Y30445D01*
X7470Y32600D01*
X8350D01*
X8644Y32658D01*
X9334Y32154D01*
D02*
G37*
G36*
X43086Y36115D02*
X43369Y35692D01*
X44944Y34117D01*
X45367Y33834D01*
X45473Y33813D01*
Y31392D01*
X45473Y30512D01*
X44349Y30374D01*
X41142D01*
Y27495D01*
X40790Y27143D01*
X37847D01*
X36811Y28179D01*
X36811Y30374D01*
X37510Y30811D01*
X38004Y31189D01*
X38382Y31683D01*
X38620Y32257D01*
X38702Y32874D01*
X38620Y33491D01*
X38382Y34065D01*
X38094Y34440D01*
X38006Y34695D01*
X38029Y35913D01*
X38046Y35945D01*
X38656Y36555D01*
X42998D01*
X43086Y36115D01*
D02*
G37*
G36*
X24427Y35421D02*
X25374Y34650D01*
Y32696D01*
X25451Y32312D01*
X25668Y31986D01*
X26099Y31555D01*
X25610Y30374D01*
X23031D01*
Y26653D01*
X19607D01*
X19558Y26643D01*
X19509Y26648D01*
X19368Y26605D01*
X19223Y26577D01*
X19182Y26549D01*
X19134Y26535D01*
X19020Y26441D01*
X18898Y26359D01*
X18048Y27104D01*
X16631Y28521D01*
X16208Y28804D01*
X15709Y28903D01*
X14812D01*
X14370Y29345D01*
Y31221D01*
X14720D01*
X14893Y31255D01*
X15068Y31283D01*
X15085Y31293D01*
X15104Y31297D01*
X15216Y31373D01*
X17472D01*
X17971Y31472D01*
X18395Y31755D01*
X18808Y32168D01*
X19102D01*
X19602Y32267D01*
X20025Y32550D01*
X20706Y33231D01*
X20989Y33654D01*
X21088Y34154D01*
Y35113D01*
X22894D01*
X23393Y35212D01*
X23816Y35495D01*
X23817Y35496D01*
X24427Y35421D01*
D02*
G37*
G36*
X29033Y29664D02*
X29359Y29447D01*
X29743Y29370D01*
X30493D01*
X30877Y29447D01*
X30906Y29466D01*
X31805Y29128D01*
X32087Y28878D01*
Y25650D01*
X34966D01*
X35700Y24916D01*
X36123Y24633D01*
X36622Y24534D01*
X38163D01*
X38794Y23353D01*
X38672Y23169D01*
X36811D01*
X36811Y23169D01*
X35790Y23439D01*
X35406Y23516D01*
X34312D01*
X33886Y23600D01*
X33857Y23613D01*
X33732Y23613D01*
X33609Y23630D01*
X33538Y23613D01*
X33465Y23613D01*
X33350Y23565D01*
X33230Y23534D01*
X32464Y23169D01*
X30438D01*
Y24272D01*
X30339Y24771D01*
X30056Y25194D01*
X27756Y27495D01*
Y29271D01*
X28937Y29761D01*
X29033Y29664D01*
D02*
G37*
G36*
X58861Y26440D02*
X59284Y26157D01*
X59784Y26058D01*
X62995D01*
X63992Y25448D01*
X64174Y25190D01*
Y22951D01*
X58548D01*
X57595Y23903D01*
X57172Y24186D01*
X56673Y24285D01*
X55679D01*
X54854Y25466D01*
X54921Y25650D01*
X54921D01*
X54921Y26831D01*
X54921Y27500D01*
X57801D01*
X58861Y26440D01*
D02*
G37*
G36*
X72983Y21319D02*
X70152D01*
X68902Y22569D01*
X68479Y22851D01*
X67980Y22951D01*
X65177D01*
Y25190D01*
X65156Y25299D01*
X65153Y25410D01*
X65118Y25489D01*
X65101Y25574D01*
X65039Y25666D01*
X64995Y25768D01*
X64813Y26025D01*
X64797Y26117D01*
X64778Y26365D01*
X65700Y27500D01*
X68701D01*
Y32040D01*
X68854Y32144D01*
X68873Y32164D01*
X68898Y32176D01*
X69009Y32303D01*
X69127Y32424D01*
X69138Y32450D01*
X69156Y32471D01*
X69210Y32631D01*
X69273Y32788D01*
X69273Y32815D01*
X69282Y32842D01*
X69354Y33393D01*
X69349Y33477D01*
X69362Y33561D01*
X70317Y34682D01*
X70372Y34705D01*
X72983D01*
Y21319D01*
D02*
G37*
G36*
X27370Y24191D02*
X27756Y23169D01*
X27756Y23169D01*
X27756D01*
X27756Y23169D01*
Y20248D01*
X27466Y19992D01*
X26575Y19661D01*
X26444Y19749D01*
X25945Y19848D01*
X23425D01*
Y23169D01*
X20546D01*
X19316Y24399D01*
Y25295D01*
X19607Y25650D01*
X25911D01*
X27370Y24191D01*
D02*
G37*
G36*
X68307Y19474D02*
Y16594D01*
X72983D01*
Y14114D01*
X65821D01*
X64643Y15293D01*
X64276Y15538D01*
X63976Y16594D01*
X63976Y16594D01*
X63976D01*
X63976Y16594D01*
Y20341D01*
X67440D01*
X68307Y19474D01*
D02*
G37*
G36*
X2362Y26365D02*
Y21457D01*
X3797D01*
X4921Y21319D01*
Y16594D01*
X4934D01*
X5050Y15413D01*
X4875Y15379D01*
X4451Y15096D01*
X3470Y14114D01*
X639D01*
Y26585D01*
X1181Y26973D01*
X2362Y26365D01*
D02*
G37*
G36*
X25073Y12264D02*
X23031D01*
Y7761D01*
X22402D01*
X21902Y7662D01*
X21001Y7896D01*
X20689Y8233D01*
X20679Y8249D01*
X20353Y8467D01*
X19969Y8543D01*
X19704D01*
X19704Y9390D01*
X19628Y9774D01*
X19410Y10099D01*
X19085Y10317D01*
X18701Y10393D01*
X14370D01*
Y13057D01*
X15495Y13457D01*
X15551Y13464D01*
X16033Y13094D01*
X16608Y12856D01*
X17224Y12775D01*
X17841Y12856D01*
X18416Y13094D01*
X18909Y13473D01*
X19288Y13966D01*
X19526Y14541D01*
X19607Y15157D01*
X19526Y15774D01*
X19408Y16058D01*
X19790Y16903D01*
X20094Y17239D01*
X25073D01*
Y12264D01*
D02*
G37*
G36*
X33675Y22619D02*
X34213Y22512D01*
X35406D01*
Y18799D01*
X35513Y18262D01*
X35818Y17806D01*
X36605Y17018D01*
X37061Y16714D01*
X37598Y16607D01*
X40709D01*
X41246Y16714D01*
X41702Y17018D01*
X43129Y18445D01*
X44347D01*
X46068Y16723D01*
X46524Y16419D01*
X47062Y16312D01*
X47441D01*
Y13166D01*
X47439Y13163D01*
X46260Y12742D01*
X45907Y13095D01*
X45499Y13367D01*
X45017Y13463D01*
X41732D01*
X41251Y13367D01*
X40842Y13095D01*
X40411Y12664D01*
X40139Y12255D01*
X40043Y11774D01*
Y8158D01*
X38862Y7668D01*
X38076Y8454D01*
Y11949D01*
X37977Y12448D01*
X37694Y12871D01*
X36946Y13619D01*
X36523Y13902D01*
X36024Y14001D01*
X32972D01*
X32473Y13902D01*
X32050Y13619D01*
X30694Y12264D01*
X27756D01*
X27683Y13415D01*
Y17294D01*
X27736Y18126D01*
X28820Y18445D01*
X32480D01*
Y22049D01*
X32504Y22077D01*
X33661Y22628D01*
X33675Y22619D01*
D02*
G37*
G36*
X57085Y20723D02*
X57508Y20441D01*
X58007Y20341D01*
X59252D01*
Y18440D01*
X57275Y16462D01*
X55315D01*
X54816Y16363D01*
X54392Y16080D01*
X52720Y14407D01*
X52437Y13984D01*
X52337Y13485D01*
Y12628D01*
X51164Y12532D01*
X51136Y12587D01*
X51124Y12648D01*
X51049Y12761D01*
X50988Y12881D01*
X50941Y12922D01*
X50906Y12973D01*
X50794Y13049D01*
X50691Y13137D01*
X50632Y13157D01*
X50581Y13191D01*
X50448Y13217D01*
X50319Y13260D01*
X49195Y13398D01*
X48445Y14268D01*
Y16312D01*
X48368Y16696D01*
X48151Y17021D01*
X47825Y17239D01*
X47699Y17264D01*
X47811Y18401D01*
X48172Y18445D01*
X50591D01*
Y21285D01*
X50981Y21676D01*
X56133D01*
X57085Y20723D01*
D02*
G37*
G36*
X72983Y639D02*
X50591D01*
Y4625D01*
X50708Y5155D01*
X51474Y5778D01*
X54429D01*
X55005Y5893D01*
X55493Y6219D01*
X56726Y7451D01*
X58819D01*
X59395Y7566D01*
X59883Y7892D01*
X61123Y9132D01*
X62455D01*
X62978Y8608D01*
X63386Y8335D01*
X63868Y8240D01*
X67901D01*
X68383Y8335D01*
X68791Y8608D01*
X69356Y9173D01*
X69629Y9582D01*
X69725Y10063D01*
Y13111D01*
X72983D01*
Y639D01*
D02*
G37*
G36*
X50197Y12264D02*
Y8042D01*
X49717Y7249D01*
X49253Y6967D01*
X48257D01*
X46928Y8297D01*
Y11434D01*
X47046Y11656D01*
X47899Y12402D01*
X49073D01*
X50197Y12264D01*
D02*
G37*
G36*
X42199Y7421D02*
X42299Y6922D01*
X42581Y6499D01*
X45866Y3214D01*
Y639D01*
X41535D01*
Y5059D01*
X38881D01*
X38516Y5529D01*
X38663Y6013D01*
X39094Y6711D01*
X39246Y6741D01*
X40427Y7230D01*
X40752Y7448D01*
X40813Y7539D01*
X42199D01*
Y7421D01*
D02*
G37*
G36*
X36811Y3214D02*
Y639D01*
X32480D01*
Y3246D01*
X32698Y3573D01*
X32798Y4072D01*
Y4181D01*
X33710Y5093D01*
X34932D01*
X36811Y3214D01*
D02*
G37*
G36*
X27756Y5059D02*
Y639D01*
X23425D01*
Y5059D01*
X24568Y5152D01*
X26613D01*
X27756Y5059D01*
D02*
G37*
G36*
X9646Y12269D02*
Y9390D01*
X18701D01*
X18701Y8209D01*
Y7539D01*
X19969D01*
X20458Y6358D01*
X20141Y6041D01*
X19858Y5617D01*
X19758Y5118D01*
Y5059D01*
X18701D01*
Y639D01*
X639D01*
Y9390D01*
X5315D01*
Y12269D01*
X5914Y12869D01*
X9046D01*
X9646Y12269D01*
D02*
G37*
G36*
X1137613Y-64032D02*
X1137326D01*
Y-64318D01*
X1137040D01*
Y-64605D01*
Y-64891D01*
X1136754D01*
Y-65177D01*
X1136467D01*
Y-65464D01*
X1136181D01*
Y-65750D01*
Y-66036D01*
X1135895D01*
Y-66322D01*
X1135608D01*
Y-66609D01*
X1135322D01*
Y-66895D01*
X1135036D01*
Y-67181D01*
Y-67468D01*
X1134750D01*
Y-67754D01*
X1134463D01*
Y-68040D01*
X1134177D01*
Y-68327D01*
Y-68613D01*
X1133891D01*
Y-68899D01*
X1133604D01*
Y-69186D01*
X1133318D01*
Y-69472D01*
X1133032D01*
Y-69758D01*
Y-70044D01*
X1132745D01*
Y-70331D01*
X1132459D01*
Y-70617D01*
X1132173D01*
Y-70903D01*
Y-71190D01*
X1131886D01*
Y-71476D01*
X1131600D01*
Y-71762D01*
X1131314D01*
Y-72049D01*
Y-72335D01*
X1131028D01*
Y-72621D01*
X1130741D01*
Y-72908D01*
X1130455D01*
Y-73194D01*
X1130169D01*
Y-73480D01*
Y-73767D01*
X1129882D01*
Y-74053D01*
X1129596D01*
Y-74339D01*
X1129310D01*
Y-74625D01*
Y-74912D01*
X1129023D01*
Y-75198D01*
X1128737D01*
Y-75485D01*
X1128451D01*
Y-75771D01*
Y-76057D01*
X1128164D01*
Y-76343D01*
X1127878D01*
Y-76630D01*
X1127592D01*
Y-76916D01*
X1127306D01*
Y-77202D01*
Y-77489D01*
X1127019D01*
Y-77775D01*
X1126733D01*
Y-78061D01*
X1126447D01*
Y-78348D01*
Y-78634D01*
X1126160D01*
Y-78920D01*
X1125874D01*
Y-79207D01*
X1125588D01*
Y-79493D01*
Y-79779D01*
X1125301D01*
Y-80066D01*
X1125015D01*
Y-80352D01*
X1124729D01*
Y-80638D01*
X1124442D01*
Y-80924D01*
Y-81211D01*
X1124156D01*
Y-81497D01*
X1123870D01*
Y-81783D01*
X1123583D01*
Y-82070D01*
Y-82356D01*
X1123297D01*
Y-82642D01*
X1123011D01*
Y-82929D01*
X1122725D01*
Y-83215D01*
X1122438D01*
Y-83501D01*
Y-83788D01*
X1122725D01*
Y-84074D01*
Y-84360D01*
X1123011D01*
Y-84646D01*
Y-84933D01*
X1123297D01*
Y-85219D01*
X1123583D01*
Y-85505D01*
Y-85792D01*
X1123870D01*
Y-86078D01*
Y-86364D01*
X1124156D01*
Y-86651D01*
Y-86937D01*
X1124442D01*
Y-87223D01*
Y-87510D01*
X1124729D01*
Y-87796D01*
Y-88082D01*
X1125015D01*
Y-88369D01*
Y-88655D01*
X1125301D01*
Y-88941D01*
Y-89227D01*
X1125588D01*
Y-89514D01*
Y-89800D01*
X1125874D01*
Y-90086D01*
X1126160D01*
Y-90373D01*
Y-90659D01*
X1126447D01*
Y-90945D01*
Y-91232D01*
X1126733D01*
Y-91518D01*
Y-91804D01*
X1127019D01*
Y-92091D01*
Y-92377D01*
X1127306D01*
Y-92663D01*
Y-92950D01*
X1127592D01*
Y-93236D01*
Y-93522D01*
X1127878D01*
Y-93809D01*
Y-94095D01*
X1128164D01*
Y-94381D01*
X1128451D01*
Y-94667D01*
Y-94954D01*
X1128737D01*
Y-95240D01*
Y-95526D01*
X1129023D01*
Y-95813D01*
Y-96099D01*
X1129310D01*
Y-96385D01*
Y-96672D01*
X1129596D01*
Y-96958D01*
Y-97244D01*
X1129882D01*
Y-97531D01*
Y-97817D01*
X1130169D01*
Y-98103D01*
Y-98390D01*
X1130455D01*
Y-98676D01*
X1130741D01*
Y-98962D01*
Y-99248D01*
X1131028D01*
Y-99535D01*
Y-99821D01*
X1131314D01*
Y-100107D01*
X1116139D01*
Y-99821D01*
X1115853D01*
Y-99535D01*
Y-99248D01*
Y-98962D01*
X1115567D01*
Y-98676D01*
Y-98390D01*
Y-98103D01*
X1115280D01*
Y-97817D01*
Y-97531D01*
X1114994D01*
Y-97244D01*
Y-96958D01*
Y-96672D01*
X1114708D01*
Y-96385D01*
Y-96099D01*
Y-95813D01*
X1114421D01*
Y-95526D01*
Y-95240D01*
X1114135D01*
Y-94954D01*
Y-94667D01*
Y-94381D01*
X1113849D01*
Y-94095D01*
Y-93809D01*
Y-93522D01*
X1113562D01*
Y-93236D01*
Y-92950D01*
Y-92663D01*
X1113276D01*
Y-92377D01*
X1112704D01*
Y-92663D01*
Y-92950D01*
X1112417D01*
Y-93236D01*
X1112131D01*
Y-93522D01*
Y-93809D01*
X1111845D01*
Y-94095D01*
X1111558D01*
Y-94381D01*
Y-94667D01*
X1111272D01*
Y-94954D01*
X1110986D01*
Y-95240D01*
Y-95526D01*
X1110699D01*
Y-95813D01*
X1110413D01*
Y-96099D01*
X1110127D01*
Y-96385D01*
Y-96672D01*
X1109840D01*
Y-96958D01*
X1109554D01*
Y-97244D01*
Y-97531D01*
X1109268D01*
Y-97817D01*
X1108981D01*
Y-98103D01*
Y-98390D01*
X1108695D01*
Y-98676D01*
X1108409D01*
Y-98962D01*
Y-99248D01*
X1108123D01*
Y-99535D01*
X1107836D01*
Y-99821D01*
Y-100107D01*
X1091803D01*
Y-99821D01*
X1092089D01*
Y-99535D01*
X1092375D01*
Y-99248D01*
X1092662D01*
Y-98962D01*
X1092948D01*
Y-98676D01*
Y-98390D01*
X1093234D01*
Y-98103D01*
X1093521D01*
Y-97817D01*
X1093807D01*
Y-97531D01*
X1094093D01*
Y-97244D01*
Y-96958D01*
X1094380D01*
Y-96672D01*
X1094666D01*
Y-96385D01*
X1094952D01*
Y-96099D01*
Y-95813D01*
X1095238D01*
Y-95526D01*
X1095525D01*
Y-95240D01*
X1095811D01*
Y-94954D01*
X1096097D01*
Y-94667D01*
Y-94381D01*
X1096384D01*
Y-94095D01*
X1096670D01*
Y-93809D01*
X1096956D01*
Y-93522D01*
X1097243D01*
Y-93236D01*
Y-92950D01*
X1097529D01*
Y-92663D01*
X1097815D01*
Y-92377D01*
X1098102D01*
Y-92091D01*
Y-91804D01*
X1098388D01*
Y-91518D01*
X1098674D01*
Y-91232D01*
X1098960D01*
Y-90945D01*
X1099247D01*
Y-90659D01*
Y-90373D01*
X1099533D01*
Y-90086D01*
X1099819D01*
Y-89800D01*
X1100106D01*
Y-89514D01*
Y-89227D01*
X1100392D01*
Y-88941D01*
X1100678D01*
Y-88655D01*
X1100965D01*
Y-88369D01*
X1101251D01*
Y-88082D01*
Y-87796D01*
X1101537D01*
Y-87510D01*
X1101824D01*
Y-87223D01*
X1102110D01*
Y-86937D01*
Y-86651D01*
X1102396D01*
Y-86364D01*
X1102683D01*
Y-86078D01*
X1102969D01*
Y-85792D01*
X1103255D01*
Y-85505D01*
Y-85219D01*
X1103541D01*
Y-84933D01*
X1103828D01*
Y-84646D01*
X1104114D01*
Y-84360D01*
X1104400D01*
Y-84074D01*
Y-83788D01*
X1104687D01*
Y-83501D01*
X1104973D01*
Y-83215D01*
X1105259D01*
Y-82929D01*
Y-82642D01*
X1105546D01*
Y-82356D01*
X1105832D01*
Y-82070D01*
X1106118D01*
Y-81783D01*
X1106405D01*
Y-81497D01*
Y-81211D01*
X1106691D01*
Y-80924D01*
Y-80638D01*
Y-80352D01*
X1106405D01*
Y-80066D01*
X1106118D01*
Y-79779D01*
Y-79493D01*
X1105832D01*
Y-79207D01*
Y-78920D01*
X1105546D01*
Y-78634D01*
Y-78348D01*
X1105259D01*
Y-78061D01*
Y-77775D01*
X1104973D01*
Y-77489D01*
Y-77202D01*
X1104687D01*
Y-76916D01*
Y-76630D01*
X1104400D01*
Y-76343D01*
X1104114D01*
Y-76057D01*
Y-75771D01*
X1103828D01*
Y-75485D01*
Y-75198D01*
X1103541D01*
Y-74912D01*
Y-74625D01*
X1103255D01*
Y-74339D01*
Y-74053D01*
X1102969D01*
Y-73767D01*
Y-73480D01*
X1102683D01*
Y-73194D01*
Y-72908D01*
X1102396D01*
Y-72621D01*
X1102110D01*
Y-72335D01*
Y-72049D01*
X1101824D01*
Y-71762D01*
Y-71476D01*
X1101537D01*
Y-71190D01*
Y-70903D01*
X1101251D01*
Y-70617D01*
Y-70331D01*
X1100965D01*
Y-70044D01*
Y-69758D01*
X1100678D01*
Y-69472D01*
Y-69186D01*
X1100392D01*
Y-68899D01*
Y-68613D01*
X1100106D01*
Y-68327D01*
X1099819D01*
Y-68040D01*
Y-67754D01*
X1099533D01*
Y-67468D01*
Y-67181D01*
X1099247D01*
Y-66895D01*
Y-66609D01*
X1098960D01*
Y-66322D01*
Y-66036D01*
X1098674D01*
Y-65750D01*
Y-65464D01*
X1098388D01*
Y-65177D01*
Y-64891D01*
X1098102D01*
Y-64605D01*
X1097815D01*
Y-64318D01*
Y-64032D01*
X1097529D01*
Y-63746D01*
X1113276D01*
Y-64032D01*
X1113562D01*
Y-64318D01*
Y-64605D01*
Y-64891D01*
X1113849D01*
Y-65177D01*
Y-65464D01*
Y-65750D01*
X1114135D01*
Y-66036D01*
Y-66322D01*
Y-66609D01*
X1114421D01*
Y-66895D01*
Y-67181D01*
Y-67468D01*
X1114708D01*
Y-67754D01*
Y-68040D01*
Y-68327D01*
X1114994D01*
Y-68613D01*
Y-68899D01*
Y-69186D01*
X1115280D01*
Y-69472D01*
Y-69758D01*
Y-70044D01*
X1115567D01*
Y-70331D01*
Y-70617D01*
Y-70903D01*
X1115853D01*
Y-71190D01*
Y-71476D01*
Y-71762D01*
Y-72049D01*
X1116426D01*
Y-71762D01*
X1116712D01*
Y-71476D01*
X1116998D01*
Y-71190D01*
Y-70903D01*
X1117284D01*
Y-70617D01*
X1117571D01*
Y-70331D01*
Y-70044D01*
X1117857D01*
Y-69758D01*
X1118143D01*
Y-69472D01*
Y-69186D01*
X1118430D01*
Y-68899D01*
X1118716D01*
Y-68613D01*
Y-68327D01*
X1119002D01*
Y-68040D01*
X1119289D01*
Y-67754D01*
Y-67468D01*
X1119575D01*
Y-67181D01*
X1119861D01*
Y-66895D01*
Y-66609D01*
X1120148D01*
Y-66322D01*
X1120434D01*
Y-66036D01*
Y-65750D01*
X1120720D01*
Y-65464D01*
X1121007D01*
Y-65177D01*
Y-64891D01*
X1121293D01*
Y-64605D01*
X1121579D01*
Y-64318D01*
Y-64032D01*
X1121865D01*
Y-63746D01*
X1137613D01*
Y-64032D01*
D02*
G37*
G36*
X1004477Y-50003D02*
X1006195D01*
Y-50289D01*
X1007054D01*
Y-50575D01*
X1007913D01*
Y-50862D01*
X1008772D01*
Y-51148D01*
X1009345D01*
Y-51434D01*
X1009631D01*
Y-51720D01*
X1010203D01*
Y-52007D01*
X1010490D01*
Y-52293D01*
X1011062D01*
Y-52579D01*
X1011349D01*
Y-52866D01*
X1011635D01*
Y-53152D01*
X1011921D01*
Y-53438D01*
X1012208D01*
Y-53725D01*
X1012494D01*
Y-54011D01*
X1012780D01*
Y-54297D01*
Y-54584D01*
X1013067D01*
Y-54870D01*
X1013353D01*
Y-55156D01*
Y-55443D01*
X1013639D01*
Y-55729D01*
X1013926D01*
Y-56015D01*
Y-56301D01*
X1014212D01*
Y-56588D01*
Y-56874D01*
Y-57161D01*
X1014498D01*
Y-57447D01*
Y-57733D01*
Y-58019D01*
X1014785D01*
Y-58306D01*
Y-58592D01*
Y-58878D01*
Y-59165D01*
X1015071D01*
Y-59451D01*
Y-59737D01*
Y-60024D01*
Y-60310D01*
Y-60596D01*
X1015357D01*
Y-60883D01*
Y-61169D01*
Y-61455D01*
Y-61742D01*
Y-62028D01*
Y-62314D01*
Y-62600D01*
Y-62887D01*
Y-63173D01*
Y-63459D01*
Y-63746D01*
Y-64032D01*
Y-64318D01*
Y-64605D01*
Y-64891D01*
Y-65177D01*
Y-65464D01*
Y-65750D01*
Y-66036D01*
Y-66322D01*
X1015071D01*
Y-66609D01*
Y-66895D01*
Y-67181D01*
Y-67468D01*
Y-67754D01*
Y-68040D01*
Y-68327D01*
X1014785D01*
Y-68613D01*
Y-68899D01*
Y-69186D01*
Y-69472D01*
Y-69758D01*
X1014498D01*
Y-70044D01*
Y-70331D01*
Y-70617D01*
Y-70903D01*
Y-71190D01*
X1014212D01*
Y-71476D01*
Y-71762D01*
Y-72049D01*
X1013926D01*
Y-72335D01*
Y-72621D01*
Y-72908D01*
Y-73194D01*
X1013639D01*
Y-73480D01*
Y-73767D01*
Y-74053D01*
X1013353D01*
Y-74339D01*
Y-74625D01*
X1013067D01*
Y-74912D01*
Y-75198D01*
Y-75485D01*
X1012780D01*
Y-75771D01*
Y-76057D01*
X1012494D01*
Y-76343D01*
Y-76630D01*
X1012208D01*
Y-76916D01*
Y-77202D01*
X1011921D01*
Y-77489D01*
X1011635D01*
Y-77775D01*
Y-78061D01*
X1011349D01*
Y-78348D01*
X1011062D01*
Y-78634D01*
X1010776D01*
Y-78920D01*
Y-79207D01*
X1010490D01*
Y-79493D01*
X1010203D01*
Y-79779D01*
X1009917D01*
Y-80066D01*
X1009631D01*
Y-80352D01*
X1009345D01*
Y-80638D01*
X1008772D01*
Y-80924D01*
X1008486D01*
Y-81211D01*
X1007913D01*
Y-81497D01*
X1007627D01*
Y-81783D01*
X1007054D01*
Y-82070D01*
X1006195D01*
Y-82356D01*
X1005336D01*
Y-82642D01*
X1004477D01*
Y-82929D01*
X1002759D01*
Y-83215D01*
X997606D01*
Y-82929D01*
X995029D01*
Y-82642D01*
X993025D01*
Y-82356D01*
X991593D01*
Y-82070D01*
X990162D01*
Y-81783D01*
X988730D01*
Y-82070D01*
Y-82356D01*
Y-82642D01*
Y-82929D01*
Y-83215D01*
Y-83501D01*
Y-83788D01*
X988444D01*
Y-84074D01*
Y-84360D01*
Y-84646D01*
Y-84933D01*
Y-85219D01*
Y-85505D01*
X988157D01*
Y-85792D01*
Y-86078D01*
Y-86364D01*
Y-86651D01*
Y-86937D01*
Y-87223D01*
X987871D01*
Y-87510D01*
Y-87796D01*
Y-88082D01*
Y-88369D01*
Y-88655D01*
Y-88941D01*
Y-89227D01*
X987585D01*
Y-89514D01*
Y-89800D01*
Y-90086D01*
Y-90373D01*
Y-90659D01*
Y-90945D01*
X987298D01*
Y-91232D01*
Y-91518D01*
Y-91804D01*
Y-92091D01*
Y-92377D01*
Y-92663D01*
X987012D01*
Y-92950D01*
Y-93236D01*
Y-93522D01*
Y-93809D01*
Y-94095D01*
Y-94381D01*
Y-94667D01*
X986726D01*
Y-94954D01*
Y-95240D01*
Y-95526D01*
Y-95813D01*
Y-96099D01*
Y-96385D01*
X986440D01*
Y-96672D01*
Y-96958D01*
Y-97244D01*
Y-97531D01*
Y-97817D01*
Y-98103D01*
X986153D01*
Y-98390D01*
Y-98676D01*
Y-98962D01*
Y-99248D01*
Y-99535D01*
Y-99821D01*
Y-100107D01*
X972696D01*
Y-99821D01*
X972983D01*
Y-99535D01*
Y-99248D01*
Y-98962D01*
Y-98676D01*
Y-98390D01*
X973269D01*
Y-98103D01*
Y-97817D01*
Y-97531D01*
Y-97244D01*
Y-96958D01*
Y-96672D01*
Y-96385D01*
X973555D01*
Y-96099D01*
Y-95813D01*
Y-95526D01*
Y-95240D01*
Y-94954D01*
Y-94667D01*
X973842D01*
Y-94381D01*
Y-94095D01*
Y-93809D01*
Y-93522D01*
Y-93236D01*
Y-92950D01*
X974128D01*
Y-92663D01*
Y-92377D01*
Y-92091D01*
Y-91804D01*
Y-91518D01*
Y-91232D01*
Y-90945D01*
X974414D01*
Y-90659D01*
Y-90373D01*
Y-90086D01*
Y-89800D01*
Y-89514D01*
Y-89227D01*
X974701D01*
Y-88941D01*
Y-88655D01*
Y-88369D01*
Y-88082D01*
Y-87796D01*
Y-87510D01*
X974987D01*
Y-87223D01*
Y-86937D01*
Y-86651D01*
Y-86364D01*
Y-86078D01*
Y-85792D01*
X975273D01*
Y-85505D01*
Y-85219D01*
Y-84933D01*
Y-84646D01*
Y-84360D01*
Y-84074D01*
Y-83788D01*
X975560D01*
Y-83501D01*
Y-83215D01*
Y-82929D01*
Y-82642D01*
Y-82356D01*
Y-82070D01*
X975846D01*
Y-81783D01*
Y-81497D01*
Y-81211D01*
Y-80924D01*
Y-80638D01*
Y-80352D01*
X976132D01*
Y-80066D01*
Y-79779D01*
Y-79493D01*
Y-79207D01*
Y-78920D01*
Y-78634D01*
X976419D01*
Y-78348D01*
Y-78061D01*
Y-77775D01*
Y-77489D01*
Y-77202D01*
Y-76916D01*
Y-76630D01*
X976705D01*
Y-76343D01*
Y-76057D01*
Y-75771D01*
Y-75485D01*
Y-75198D01*
Y-74912D01*
X976991D01*
Y-74625D01*
Y-74339D01*
Y-74053D01*
Y-73767D01*
Y-73480D01*
Y-73194D01*
X977277D01*
Y-72908D01*
Y-72621D01*
Y-72335D01*
Y-72049D01*
Y-71762D01*
Y-71476D01*
Y-71190D01*
X977564D01*
Y-70903D01*
Y-70617D01*
Y-70331D01*
Y-70044D01*
Y-69758D01*
Y-69472D01*
X977850D01*
Y-69186D01*
Y-68899D01*
Y-68613D01*
Y-68327D01*
Y-68040D01*
Y-67754D01*
X978137D01*
Y-67468D01*
Y-67181D01*
Y-66895D01*
Y-66609D01*
Y-66322D01*
Y-66036D01*
X978423D01*
Y-65750D01*
Y-65464D01*
Y-65177D01*
Y-64891D01*
Y-64605D01*
Y-64318D01*
Y-64032D01*
X978709D01*
Y-63746D01*
Y-63459D01*
Y-63173D01*
Y-62887D01*
Y-62600D01*
Y-62314D01*
X978995D01*
Y-62028D01*
Y-61742D01*
Y-61455D01*
Y-61169D01*
Y-60883D01*
Y-60596D01*
X979282D01*
Y-60310D01*
Y-60024D01*
Y-59737D01*
Y-59451D01*
Y-59165D01*
Y-58878D01*
Y-58592D01*
X979568D01*
Y-58306D01*
Y-58019D01*
Y-57733D01*
Y-57447D01*
Y-57161D01*
Y-56874D01*
X979854D01*
Y-56588D01*
Y-56301D01*
Y-56015D01*
Y-55729D01*
Y-55443D01*
Y-55156D01*
X980141D01*
Y-54870D01*
Y-54584D01*
Y-54297D01*
Y-54011D01*
Y-53725D01*
Y-53438D01*
Y-53152D01*
X980427D01*
Y-52866D01*
Y-52579D01*
Y-52293D01*
Y-52007D01*
Y-51720D01*
Y-51434D01*
X980713D01*
Y-51148D01*
Y-50862D01*
Y-50575D01*
Y-50289D01*
Y-50003D01*
Y-49716D01*
X1004477D01*
Y-50003D01*
D02*
G37*
G36*
X1093521Y-64032D02*
Y-64318D01*
Y-64605D01*
Y-64891D01*
Y-65177D01*
Y-65464D01*
Y-65750D01*
Y-66036D01*
Y-66322D01*
Y-66609D01*
Y-66895D01*
Y-67181D01*
Y-67468D01*
Y-67754D01*
Y-68040D01*
Y-68327D01*
Y-68613D01*
Y-68899D01*
Y-69186D01*
Y-69472D01*
Y-69758D01*
X1093234D01*
Y-70044D01*
Y-70331D01*
Y-70617D01*
Y-70903D01*
Y-71190D01*
X1092948D01*
Y-71476D01*
Y-71762D01*
Y-72049D01*
Y-72335D01*
X1092662D01*
Y-72621D01*
Y-72908D01*
Y-73194D01*
Y-73480D01*
X1092375D01*
Y-73767D01*
Y-74053D01*
Y-74339D01*
X1092089D01*
Y-74625D01*
Y-74912D01*
Y-75198D01*
X1091803D01*
Y-75485D01*
Y-75771D01*
Y-76057D01*
X1091516D01*
Y-76343D01*
Y-76630D01*
Y-76916D01*
X1091230D01*
Y-77202D01*
Y-77489D01*
X1090944D01*
Y-77775D01*
Y-78061D01*
X1090657D01*
Y-78348D01*
Y-78634D01*
Y-78920D01*
X1090371D01*
Y-79207D01*
Y-79493D01*
X1090085D01*
Y-79779D01*
Y-80066D01*
Y-80352D01*
X1089799D01*
Y-80638D01*
Y-80924D01*
X1089512D01*
Y-81211D01*
Y-81497D01*
Y-81783D01*
X1089226D01*
Y-82070D01*
Y-82356D01*
X1088939D01*
Y-82642D01*
Y-82929D01*
Y-83215D01*
X1088653D01*
Y-83501D01*
Y-83788D01*
X1088367D01*
Y-84074D01*
Y-84360D01*
Y-84646D01*
X1088081D01*
Y-84933D01*
Y-85219D01*
X1087794D01*
Y-85505D01*
Y-85792D01*
Y-86078D01*
X1087508D01*
Y-86364D01*
Y-86651D01*
X1087222D01*
Y-86937D01*
Y-87223D01*
Y-87510D01*
X1086935D01*
Y-87796D01*
Y-88082D01*
X1086649D01*
Y-88369D01*
Y-88655D01*
Y-88941D01*
X1086363D01*
Y-89227D01*
Y-89514D01*
X1086076D01*
Y-89800D01*
Y-90086D01*
Y-90373D01*
X1085790D01*
Y-90659D01*
Y-90945D01*
X1085504D01*
Y-91232D01*
Y-91518D01*
Y-91804D01*
X1085217D01*
Y-92091D01*
Y-92377D01*
X1084931D01*
Y-92663D01*
Y-92950D01*
Y-93236D01*
X1084645D01*
Y-93522D01*
Y-93809D01*
X1084359D01*
Y-94095D01*
Y-94381D01*
Y-94667D01*
X1084072D01*
Y-94954D01*
Y-95240D01*
X1083786D01*
Y-95526D01*
Y-95813D01*
Y-96099D01*
X1083500D01*
Y-96385D01*
Y-96672D01*
X1083213D01*
Y-96958D01*
Y-97244D01*
Y-97531D01*
X1082927D01*
Y-97817D01*
Y-98103D01*
X1082641D01*
Y-98390D01*
Y-98676D01*
Y-98962D01*
X1082354D01*
Y-99248D01*
Y-99535D01*
X1082068D01*
Y-99821D01*
Y-100107D01*
Y-100394D01*
X1081782D01*
Y-100680D01*
Y-100966D01*
X1081495D01*
Y-101253D01*
Y-101539D01*
X1081209D01*
Y-101825D01*
Y-102112D01*
X1080923D01*
Y-102398D01*
Y-102684D01*
Y-102971D01*
X1080637D01*
Y-103257D01*
X1080350D01*
Y-103543D01*
Y-103829D01*
Y-104116D01*
X1080064D01*
Y-104402D01*
X1079778D01*
Y-104688D01*
Y-104975D01*
X1079491D01*
Y-105261D01*
Y-105547D01*
X1079205D01*
Y-105834D01*
Y-106120D01*
X1078919D01*
Y-106406D01*
Y-106693D01*
X1078632D01*
Y-106979D01*
X1078346D01*
Y-107265D01*
Y-107552D01*
X1078060D01*
Y-107838D01*
Y-108124D01*
X1077773D01*
Y-108410D01*
X1077487D01*
Y-108697D01*
X1077201D01*
Y-108983D01*
Y-109269D01*
X1076914D01*
Y-109556D01*
X1076628D01*
Y-109842D01*
Y-110128D01*
X1076342D01*
Y-110415D01*
X1076056D01*
Y-110701D01*
X1075769D01*
Y-110987D01*
Y-111274D01*
X1075483D01*
Y-111560D01*
X1075196D01*
Y-111846D01*
X1074910D01*
Y-112133D01*
X1074624D01*
Y-112419D01*
X1074338D01*
Y-112705D01*
Y-112991D01*
X1074051D01*
Y-113278D01*
X1073765D01*
Y-113564D01*
X1073479D01*
Y-113850D01*
X1073192D01*
Y-114137D01*
X1072906D01*
Y-114423D01*
X1072620D01*
Y-114709D01*
X1072333D01*
Y-114996D01*
X1071761D01*
Y-115282D01*
X1071474D01*
Y-115568D01*
X1071188D01*
Y-115855D01*
X1070902D01*
Y-116141D01*
X1070615D01*
Y-116427D01*
X1070043D01*
Y-116714D01*
X1069757D01*
Y-117000D01*
X1069184D01*
Y-117286D01*
X1068898D01*
Y-117572D01*
X1068325D01*
Y-117859D01*
X1068039D01*
Y-118145D01*
X1067466D01*
Y-118431D01*
X1066893D01*
Y-118718D01*
X1066321D01*
Y-119004D01*
X1065748D01*
Y-119290D01*
X1065176D01*
Y-119577D01*
X1064317D01*
Y-119863D01*
X1063744D01*
Y-120149D01*
X1062885D01*
Y-120436D01*
X1061740D01*
Y-120722D01*
X1060595D01*
Y-121008D01*
X1058877D01*
Y-121294D01*
X1056872D01*
Y-121581D01*
X1056586D01*
Y-121294D01*
Y-121008D01*
Y-120722D01*
Y-120436D01*
Y-120149D01*
Y-119863D01*
Y-119577D01*
Y-119290D01*
Y-119004D01*
Y-118718D01*
Y-118431D01*
Y-118145D01*
Y-117859D01*
Y-117572D01*
Y-117286D01*
Y-117000D01*
Y-116714D01*
Y-116427D01*
Y-116141D01*
Y-115855D01*
Y-115568D01*
Y-115282D01*
Y-114996D01*
Y-114709D01*
Y-114423D01*
Y-114137D01*
Y-113850D01*
Y-113564D01*
Y-113278D01*
Y-112991D01*
Y-112705D01*
Y-112419D01*
Y-112133D01*
X1057159D01*
Y-111846D01*
X1057731D01*
Y-111560D01*
X1058304D01*
Y-111274D01*
X1058877D01*
Y-110987D01*
X1059449D01*
Y-110701D01*
X1060022D01*
Y-110415D01*
X1060308D01*
Y-110128D01*
X1060881D01*
Y-109842D01*
X1061167D01*
Y-109556D01*
X1061740D01*
Y-109269D01*
X1062026D01*
Y-108983D01*
X1062312D01*
Y-108697D01*
X1062885D01*
Y-108410D01*
X1063171D01*
Y-108124D01*
X1063458D01*
Y-107838D01*
X1063744D01*
Y-107552D01*
X1064030D01*
Y-107265D01*
X1064317D01*
Y-106979D01*
X1064603D01*
Y-106693D01*
X1064889D01*
Y-106406D01*
X1065176D01*
Y-106120D01*
X1065462D01*
Y-105834D01*
X1065748D01*
Y-105547D01*
X1066035D01*
Y-105261D01*
Y-104975D01*
X1066321D01*
Y-104688D01*
X1066607D01*
Y-104402D01*
X1066893D01*
Y-104116D01*
Y-103829D01*
X1067180D01*
Y-103543D01*
X1067466D01*
Y-103257D01*
Y-102971D01*
X1067752D01*
Y-102684D01*
Y-102398D01*
X1068039D01*
Y-102112D01*
X1068325D01*
Y-101825D01*
Y-101539D01*
X1068611D01*
Y-101253D01*
Y-100966D01*
X1068898D01*
Y-100680D01*
Y-100394D01*
X1067180D01*
Y-100107D01*
X1065176D01*
Y-99821D01*
X1064030D01*
Y-99535D01*
X1063458D01*
Y-99248D01*
X1062599D01*
Y-98962D01*
X1062026D01*
Y-98676D01*
X1061740D01*
Y-98390D01*
X1061167D01*
Y-98103D01*
X1060881D01*
Y-97817D01*
X1060595D01*
Y-97531D01*
X1060308D01*
Y-97244D01*
X1060022D01*
Y-96958D01*
X1059736D01*
Y-96672D01*
Y-96385D01*
X1059449D01*
Y-96099D01*
X1059163D01*
Y-95813D01*
Y-95526D01*
X1058877D01*
Y-95240D01*
Y-94954D01*
X1058590D01*
Y-94667D01*
Y-94381D01*
X1058304D01*
Y-94095D01*
Y-93809D01*
Y-93522D01*
X1058018D01*
Y-93236D01*
Y-92950D01*
Y-92663D01*
Y-92377D01*
X1057731D01*
Y-92091D01*
Y-91804D01*
Y-91518D01*
Y-91232D01*
Y-90945D01*
Y-90659D01*
Y-90373D01*
X1057445D01*
Y-90086D01*
Y-89800D01*
Y-89514D01*
Y-89227D01*
Y-88941D01*
Y-88655D01*
Y-88369D01*
Y-88082D01*
Y-87796D01*
Y-87510D01*
Y-87223D01*
Y-86937D01*
Y-86651D01*
Y-86364D01*
Y-86078D01*
X1057159D01*
Y-85792D01*
Y-85505D01*
Y-85219D01*
Y-84933D01*
Y-84646D01*
Y-84360D01*
Y-84074D01*
Y-83788D01*
Y-83501D01*
Y-83215D01*
Y-82929D01*
Y-82642D01*
Y-82356D01*
Y-82070D01*
Y-81783D01*
X1056872D01*
Y-81497D01*
Y-81211D01*
Y-80924D01*
Y-80638D01*
Y-80352D01*
Y-80066D01*
Y-79779D01*
Y-79493D01*
Y-79207D01*
Y-78920D01*
Y-78634D01*
Y-78348D01*
Y-78061D01*
Y-77775D01*
Y-77489D01*
Y-77202D01*
X1056586D01*
Y-76916D01*
Y-76630D01*
Y-76343D01*
Y-76057D01*
Y-75771D01*
Y-75485D01*
Y-75198D01*
Y-74912D01*
Y-74625D01*
Y-74339D01*
Y-74053D01*
Y-73767D01*
Y-73480D01*
Y-73194D01*
Y-72908D01*
Y-72621D01*
X1056300D01*
Y-72335D01*
Y-72049D01*
Y-71762D01*
Y-71476D01*
Y-71190D01*
Y-70903D01*
Y-70617D01*
Y-70331D01*
Y-70044D01*
Y-69758D01*
Y-69472D01*
Y-69186D01*
Y-68899D01*
Y-68613D01*
X1056014D01*
Y-68327D01*
Y-68040D01*
Y-67754D01*
Y-67468D01*
Y-67181D01*
Y-66895D01*
Y-66609D01*
Y-66322D01*
Y-66036D01*
Y-65750D01*
Y-65464D01*
Y-65177D01*
Y-64891D01*
Y-64605D01*
Y-64318D01*
Y-64032D01*
X1055727D01*
Y-63746D01*
X1069470D01*
Y-64032D01*
Y-64318D01*
Y-64605D01*
Y-64891D01*
Y-65177D01*
Y-65464D01*
Y-65750D01*
Y-66036D01*
Y-66322D01*
Y-66609D01*
Y-66895D01*
Y-67181D01*
Y-67468D01*
Y-67754D01*
X1069757D01*
Y-68040D01*
Y-68327D01*
Y-68613D01*
Y-68899D01*
Y-69186D01*
Y-69472D01*
Y-69758D01*
Y-70044D01*
Y-70331D01*
Y-70617D01*
Y-70903D01*
Y-71190D01*
Y-71476D01*
Y-71762D01*
Y-72049D01*
Y-72335D01*
Y-72621D01*
Y-72908D01*
Y-73194D01*
Y-73480D01*
Y-73767D01*
Y-74053D01*
Y-74339D01*
Y-74625D01*
Y-74912D01*
Y-75198D01*
Y-75485D01*
Y-75771D01*
Y-76057D01*
Y-76343D01*
Y-76630D01*
Y-76916D01*
Y-77202D01*
Y-77489D01*
Y-77775D01*
Y-78061D01*
Y-78348D01*
Y-78634D01*
Y-78920D01*
Y-79207D01*
Y-79493D01*
X1070043D01*
Y-79779D01*
X1069757D01*
Y-80066D01*
Y-80352D01*
X1070043D01*
Y-80638D01*
Y-80924D01*
Y-81211D01*
Y-81497D01*
Y-81783D01*
Y-82070D01*
Y-82356D01*
Y-82642D01*
Y-82929D01*
Y-83215D01*
Y-83501D01*
Y-83788D01*
Y-84074D01*
Y-84360D01*
Y-84646D01*
Y-84933D01*
Y-85219D01*
Y-85505D01*
Y-85792D01*
Y-86078D01*
Y-86364D01*
Y-86651D01*
Y-86937D01*
Y-87223D01*
Y-87510D01*
Y-87796D01*
X1070329D01*
Y-88082D01*
Y-88369D01*
Y-88655D01*
X1070615D01*
Y-88941D01*
X1070902D01*
Y-89227D01*
X1071188D01*
Y-89514D01*
X1072047D01*
Y-89800D01*
X1072906D01*
Y-89514D01*
X1073192D01*
Y-89227D01*
Y-88941D01*
Y-88655D01*
X1073479D01*
Y-88369D01*
Y-88082D01*
X1073765D01*
Y-87796D01*
Y-87510D01*
Y-87223D01*
X1074051D01*
Y-86937D01*
Y-86651D01*
Y-86364D01*
X1074338D01*
Y-86078D01*
Y-85792D01*
Y-85505D01*
X1074624D01*
Y-85219D01*
Y-84933D01*
Y-84646D01*
X1074910D01*
Y-84360D01*
Y-84074D01*
X1075196D01*
Y-83788D01*
Y-83501D01*
Y-83215D01*
X1075483D01*
Y-82929D01*
Y-82642D01*
Y-82356D01*
X1075769D01*
Y-82070D01*
Y-81783D01*
Y-81497D01*
X1076056D01*
Y-81211D01*
Y-80924D01*
X1076342D01*
Y-80638D01*
Y-80352D01*
Y-80066D01*
X1076628D01*
Y-79779D01*
Y-79493D01*
Y-79207D01*
X1076914D01*
Y-78920D01*
Y-78634D01*
Y-78348D01*
X1077201D01*
Y-78061D01*
Y-77775D01*
X1077487D01*
Y-77489D01*
Y-77202D01*
Y-76916D01*
X1077773D01*
Y-76630D01*
Y-76343D01*
Y-76057D01*
X1078060D01*
Y-75771D01*
Y-75485D01*
Y-75198D01*
X1078346D01*
Y-74912D01*
Y-74625D01*
X1078632D01*
Y-74339D01*
Y-74053D01*
Y-73767D01*
X1078919D01*
Y-73480D01*
Y-73194D01*
Y-72908D01*
X1079205D01*
Y-72621D01*
Y-72335D01*
Y-72049D01*
X1079491D01*
Y-71762D01*
Y-71476D01*
Y-71190D01*
Y-70903D01*
X1079778D01*
Y-70617D01*
Y-70331D01*
Y-70044D01*
Y-69758D01*
X1080064D01*
Y-69472D01*
Y-69186D01*
Y-68899D01*
Y-68613D01*
Y-68327D01*
X1080350D01*
Y-68040D01*
Y-67754D01*
Y-67468D01*
Y-67181D01*
Y-66895D01*
Y-66609D01*
X1080637D01*
Y-66322D01*
Y-66036D01*
Y-65750D01*
Y-65464D01*
Y-65177D01*
Y-64891D01*
Y-64605D01*
Y-64318D01*
Y-64032D01*
Y-63746D01*
X1093521D01*
Y-64032D01*
D02*
G37*
G36*
X1035685Y-46567D02*
Y-46853D01*
X1035399D01*
Y-47139D01*
Y-47426D01*
Y-47712D01*
Y-47998D01*
Y-48285D01*
Y-48571D01*
X1035113D01*
Y-48857D01*
Y-49144D01*
Y-49430D01*
Y-49716D01*
Y-50003D01*
Y-50289D01*
X1034826D01*
Y-50575D01*
Y-50862D01*
Y-51148D01*
Y-51434D01*
Y-51720D01*
Y-52007D01*
Y-52293D01*
X1034540D01*
Y-52579D01*
Y-52866D01*
Y-53152D01*
Y-53438D01*
Y-53725D01*
Y-54011D01*
X1034254D01*
Y-54297D01*
Y-54584D01*
Y-54870D01*
Y-55156D01*
Y-55443D01*
Y-55729D01*
X1033967D01*
Y-56015D01*
Y-56301D01*
Y-56588D01*
Y-56874D01*
Y-57161D01*
Y-57447D01*
Y-57733D01*
X1033681D01*
Y-58019D01*
Y-58306D01*
Y-58592D01*
Y-58878D01*
Y-59165D01*
Y-59451D01*
X1033395D01*
Y-59737D01*
Y-60024D01*
Y-60310D01*
Y-60596D01*
Y-60883D01*
Y-61169D01*
X1033109D01*
Y-61455D01*
Y-61742D01*
Y-62028D01*
Y-62314D01*
Y-62600D01*
Y-62887D01*
X1032822D01*
Y-63173D01*
Y-63459D01*
Y-63746D01*
Y-64032D01*
Y-64318D01*
Y-64605D01*
Y-64891D01*
X1032536D01*
Y-65177D01*
Y-65464D01*
Y-65750D01*
Y-66036D01*
Y-66322D01*
Y-66609D01*
X1032250D01*
Y-66895D01*
Y-67181D01*
X1032822D01*
Y-66895D01*
X1033109D01*
Y-66609D01*
X1033395D01*
Y-66322D01*
X1033967D01*
Y-66036D01*
X1034254D01*
Y-65750D01*
X1034540D01*
Y-65464D01*
X1035113D01*
Y-65177D01*
X1035685D01*
Y-64891D01*
X1035972D01*
Y-64605D01*
X1036544D01*
Y-64318D01*
X1037403D01*
Y-64032D01*
X1037976D01*
Y-63746D01*
X1038835D01*
Y-63459D01*
X1040266D01*
Y-63173D01*
X1046565D01*
Y-63459D01*
X1047711D01*
Y-63746D01*
X1048569D01*
Y-64032D01*
X1049142D01*
Y-64318D01*
X1049428D01*
Y-64605D01*
X1050001D01*
Y-64891D01*
X1050287D01*
Y-65177D01*
X1050574D01*
Y-65464D01*
X1050860D01*
Y-65750D01*
X1051146D01*
Y-66036D01*
Y-66322D01*
X1051433D01*
Y-66609D01*
Y-66895D01*
X1051719D01*
Y-67181D01*
Y-67468D01*
Y-67754D01*
X1052005D01*
Y-68040D01*
Y-68327D01*
Y-68613D01*
Y-68899D01*
X1052291D01*
Y-69186D01*
Y-69472D01*
Y-69758D01*
Y-70044D01*
Y-70331D01*
Y-70617D01*
Y-70903D01*
Y-71190D01*
Y-71476D01*
Y-71762D01*
Y-72049D01*
Y-72335D01*
Y-72621D01*
Y-72908D01*
Y-73194D01*
Y-73480D01*
Y-73767D01*
Y-74053D01*
X1052005D01*
Y-74339D01*
Y-74625D01*
Y-74912D01*
Y-75198D01*
Y-75485D01*
Y-75771D01*
Y-76057D01*
X1051719D01*
Y-76343D01*
Y-76630D01*
Y-76916D01*
Y-77202D01*
Y-77489D01*
Y-77775D01*
Y-78061D01*
X1051433D01*
Y-78348D01*
Y-78634D01*
Y-78920D01*
Y-79207D01*
Y-79493D01*
Y-79779D01*
X1051146D01*
Y-80066D01*
Y-80352D01*
Y-80638D01*
Y-80924D01*
Y-81211D01*
Y-81497D01*
X1050860D01*
Y-81783D01*
Y-82070D01*
Y-82356D01*
Y-82642D01*
Y-82929D01*
Y-83215D01*
X1050574D01*
Y-83501D01*
Y-83788D01*
Y-84074D01*
Y-84360D01*
Y-84646D01*
Y-84933D01*
Y-85219D01*
X1050287D01*
Y-85505D01*
Y-85792D01*
Y-86078D01*
Y-86364D01*
Y-86651D01*
Y-86937D01*
X1050001D01*
Y-87223D01*
Y-87510D01*
Y-87796D01*
Y-88082D01*
Y-88369D01*
Y-88655D01*
X1049715D01*
Y-88941D01*
Y-89227D01*
Y-89514D01*
Y-89800D01*
Y-90086D01*
Y-90373D01*
Y-90659D01*
X1049428D01*
Y-90945D01*
Y-91232D01*
Y-91518D01*
Y-91804D01*
Y-92091D01*
Y-92377D01*
X1049142D01*
Y-92663D01*
Y-92950D01*
Y-93236D01*
Y-93522D01*
Y-93809D01*
Y-94095D01*
X1048856D01*
Y-94381D01*
Y-94667D01*
Y-94954D01*
Y-95240D01*
Y-95526D01*
Y-95813D01*
X1048569D01*
Y-96099D01*
Y-96385D01*
Y-96672D01*
Y-96958D01*
Y-97244D01*
Y-97531D01*
Y-97817D01*
X1048283D01*
Y-98103D01*
Y-98390D01*
Y-98676D01*
Y-98962D01*
Y-99248D01*
Y-99535D01*
X1047997D01*
Y-99821D01*
Y-100107D01*
X1034826D01*
Y-99821D01*
Y-99535D01*
X1035113D01*
Y-99248D01*
Y-98962D01*
Y-98676D01*
Y-98390D01*
Y-98103D01*
Y-97817D01*
X1035399D01*
Y-97531D01*
Y-97244D01*
Y-96958D01*
Y-96672D01*
Y-96385D01*
Y-96099D01*
Y-95813D01*
X1035685D01*
Y-95526D01*
Y-95240D01*
Y-94954D01*
Y-94667D01*
Y-94381D01*
Y-94095D01*
X1035972D01*
Y-93809D01*
Y-93522D01*
Y-93236D01*
Y-92950D01*
Y-92663D01*
Y-92377D01*
X1036258D01*
Y-92091D01*
Y-91804D01*
Y-91518D01*
Y-91232D01*
Y-90945D01*
Y-90659D01*
Y-90373D01*
X1036544D01*
Y-90086D01*
Y-89800D01*
Y-89514D01*
Y-89227D01*
Y-88941D01*
Y-88655D01*
X1036831D01*
Y-88369D01*
Y-88082D01*
Y-87796D01*
Y-87510D01*
Y-87223D01*
Y-86937D01*
Y-86651D01*
X1037117D01*
Y-86364D01*
Y-86078D01*
Y-85792D01*
Y-85505D01*
Y-85219D01*
Y-84933D01*
X1037403D01*
Y-84646D01*
Y-84360D01*
Y-84074D01*
Y-83788D01*
Y-83501D01*
Y-83215D01*
X1037689D01*
Y-82929D01*
Y-82642D01*
Y-82356D01*
Y-82070D01*
Y-81783D01*
Y-81497D01*
X1037976D01*
Y-81211D01*
Y-80924D01*
Y-80638D01*
Y-80352D01*
Y-80066D01*
Y-79779D01*
Y-79493D01*
X1038262D01*
Y-79207D01*
Y-78920D01*
Y-78634D01*
Y-78348D01*
Y-78061D01*
Y-77775D01*
X1038548D01*
Y-77489D01*
Y-77202D01*
Y-76916D01*
Y-76630D01*
Y-76343D01*
Y-76057D01*
Y-75771D01*
X1038835D01*
Y-75485D01*
Y-75198D01*
Y-74912D01*
Y-74625D01*
Y-74339D01*
Y-74053D01*
X1038548D01*
Y-73767D01*
Y-73480D01*
X1038262D01*
Y-73194D01*
X1037976D01*
Y-72908D01*
X1037403D01*
Y-72621D01*
X1035685D01*
Y-72908D01*
X1034254D01*
Y-73194D01*
X1033395D01*
Y-73480D01*
X1032822D01*
Y-73767D01*
X1032536D01*
Y-74053D01*
X1031963D01*
Y-74339D01*
X1031677D01*
Y-74625D01*
X1031391D01*
Y-74912D01*
Y-75198D01*
X1031104D01*
Y-75485D01*
Y-75771D01*
Y-76057D01*
X1030818D01*
Y-76343D01*
Y-76630D01*
Y-76916D01*
Y-77202D01*
Y-77489D01*
Y-77775D01*
X1030532D01*
Y-78061D01*
Y-78348D01*
Y-78634D01*
Y-78920D01*
Y-79207D01*
Y-79493D01*
Y-79779D01*
X1030245D01*
Y-80066D01*
Y-80352D01*
Y-80638D01*
Y-80924D01*
Y-81211D01*
Y-81497D01*
X1029959D01*
Y-81783D01*
Y-82070D01*
Y-82356D01*
Y-82642D01*
Y-82929D01*
Y-83215D01*
X1029673D01*
Y-83501D01*
Y-83788D01*
Y-84074D01*
Y-84360D01*
Y-84646D01*
Y-84933D01*
X1029387D01*
Y-85219D01*
Y-85505D01*
Y-85792D01*
Y-86078D01*
Y-86364D01*
Y-86651D01*
Y-86937D01*
X1029100D01*
Y-87223D01*
Y-87510D01*
Y-87796D01*
Y-88082D01*
Y-88369D01*
Y-88655D01*
X1028814D01*
Y-88941D01*
Y-89227D01*
Y-89514D01*
Y-89800D01*
Y-90086D01*
Y-90373D01*
X1028528D01*
Y-90659D01*
Y-90945D01*
Y-91232D01*
Y-91518D01*
Y-91804D01*
Y-92091D01*
Y-92377D01*
X1028241D01*
Y-92663D01*
Y-92950D01*
Y-93236D01*
Y-93522D01*
Y-93809D01*
Y-94095D01*
X1027955D01*
Y-94381D01*
Y-94667D01*
Y-94954D01*
Y-95240D01*
Y-95526D01*
Y-95813D01*
X1027669D01*
Y-96099D01*
Y-96385D01*
Y-96672D01*
Y-96958D01*
Y-97244D01*
Y-97531D01*
X1027382D01*
Y-97817D01*
Y-98103D01*
Y-98390D01*
Y-98676D01*
Y-98962D01*
Y-99248D01*
Y-99535D01*
X1027096D01*
Y-99821D01*
Y-100107D01*
X1013926D01*
Y-99821D01*
Y-99535D01*
X1014212D01*
Y-99248D01*
Y-98962D01*
Y-98676D01*
Y-98390D01*
Y-98103D01*
Y-97817D01*
Y-97531D01*
X1014498D01*
Y-97244D01*
Y-96958D01*
Y-96672D01*
Y-96385D01*
Y-96099D01*
Y-95813D01*
X1014785D01*
Y-95526D01*
Y-95240D01*
Y-94954D01*
Y-94667D01*
Y-94381D01*
Y-94095D01*
X1015071D01*
Y-93809D01*
Y-93522D01*
Y-93236D01*
Y-92950D01*
Y-92663D01*
Y-92377D01*
Y-92091D01*
X1015357D01*
Y-91804D01*
Y-91518D01*
Y-91232D01*
Y-90945D01*
Y-90659D01*
Y-90373D01*
X1015643D01*
Y-90086D01*
Y-89800D01*
Y-89514D01*
Y-89227D01*
Y-88941D01*
Y-88655D01*
X1015930D01*
Y-88369D01*
Y-88082D01*
Y-87796D01*
Y-87510D01*
Y-87223D01*
Y-86937D01*
X1016216D01*
Y-86651D01*
Y-86364D01*
Y-86078D01*
Y-85792D01*
Y-85505D01*
Y-85219D01*
Y-84933D01*
X1016502D01*
Y-84646D01*
Y-84360D01*
Y-84074D01*
Y-83788D01*
Y-83501D01*
Y-83215D01*
X1016789D01*
Y-82929D01*
Y-82642D01*
Y-82356D01*
Y-82070D01*
Y-81783D01*
Y-81497D01*
X1017075D01*
Y-81211D01*
Y-80924D01*
Y-80638D01*
Y-80352D01*
Y-80066D01*
Y-79779D01*
Y-79493D01*
X1017361D01*
Y-79207D01*
Y-78920D01*
Y-78634D01*
Y-78348D01*
Y-78061D01*
Y-77775D01*
X1017648D01*
Y-77489D01*
Y-77202D01*
Y-76916D01*
Y-76630D01*
Y-76343D01*
Y-76057D01*
X1017934D01*
Y-75771D01*
Y-75485D01*
Y-75198D01*
Y-74912D01*
Y-74625D01*
Y-74339D01*
X1018220D01*
Y-74053D01*
Y-73767D01*
Y-73480D01*
Y-73194D01*
Y-72908D01*
Y-72621D01*
Y-72335D01*
X1018507D01*
Y-72049D01*
Y-71762D01*
Y-71476D01*
Y-71190D01*
Y-70903D01*
Y-70617D01*
X1018793D01*
Y-70331D01*
Y-70044D01*
Y-69758D01*
Y-69472D01*
Y-69186D01*
Y-68899D01*
X1019079D01*
Y-68613D01*
Y-68327D01*
Y-68040D01*
Y-67754D01*
Y-67468D01*
Y-67181D01*
X1019366D01*
Y-66895D01*
Y-66609D01*
Y-66322D01*
Y-66036D01*
Y-65750D01*
Y-65464D01*
Y-65177D01*
X1019652D01*
Y-64891D01*
Y-64605D01*
Y-64318D01*
Y-64032D01*
Y-63746D01*
Y-63459D01*
X1019938D01*
Y-63173D01*
Y-62887D01*
Y-62600D01*
Y-62314D01*
Y-62028D01*
Y-61742D01*
X1020224D01*
Y-61455D01*
Y-61169D01*
Y-60883D01*
Y-60596D01*
Y-60310D01*
Y-60024D01*
Y-59737D01*
X1020511D01*
Y-59451D01*
Y-59165D01*
Y-58878D01*
Y-58592D01*
Y-58306D01*
Y-58019D01*
X1020797D01*
Y-57733D01*
Y-57447D01*
Y-57161D01*
Y-56874D01*
Y-56588D01*
Y-56301D01*
X1021083D01*
Y-56015D01*
Y-55729D01*
Y-55443D01*
Y-55156D01*
Y-54870D01*
Y-54584D01*
X1021370D01*
Y-54297D01*
Y-54011D01*
Y-53725D01*
Y-53438D01*
Y-53152D01*
Y-52866D01*
Y-52579D01*
X1021656D01*
Y-52293D01*
Y-52007D01*
Y-51720D01*
Y-51434D01*
Y-51148D01*
Y-50862D01*
X1021942D01*
Y-50575D01*
Y-50289D01*
Y-50003D01*
Y-49716D01*
Y-49430D01*
Y-49144D01*
X1022229D01*
Y-48857D01*
Y-48571D01*
Y-48285D01*
Y-47998D01*
Y-47712D01*
Y-47426D01*
Y-47139D01*
X1022515D01*
Y-46853D01*
Y-46567D01*
Y-46281D01*
X1035685D01*
Y-46567D01*
D02*
G37*
%LPC*%
G36*
X1000183Y-60883D02*
X992166D01*
Y-61169D01*
Y-61455D01*
Y-61742D01*
Y-62028D01*
Y-62314D01*
X991879D01*
Y-62600D01*
Y-62887D01*
Y-63173D01*
Y-63459D01*
Y-63746D01*
Y-64032D01*
X991593D01*
Y-64318D01*
Y-64605D01*
Y-64891D01*
Y-65177D01*
Y-65464D01*
Y-65750D01*
X991307D01*
Y-66036D01*
Y-66322D01*
Y-66609D01*
Y-66895D01*
Y-67181D01*
Y-67468D01*
X991020D01*
Y-67754D01*
Y-68040D01*
Y-68327D01*
Y-68613D01*
Y-68899D01*
Y-69186D01*
Y-69472D01*
X990734D01*
Y-69758D01*
Y-70044D01*
Y-70331D01*
Y-70617D01*
Y-70903D01*
Y-71190D01*
X990448D01*
Y-71476D01*
Y-71762D01*
Y-72049D01*
X997606D01*
Y-71762D01*
X998751D01*
Y-71476D01*
X999324D01*
Y-71190D01*
X999610D01*
Y-70903D01*
X999896D01*
Y-70617D01*
X1000183D01*
Y-70331D01*
X1000469D01*
Y-70044D01*
Y-69758D01*
X1000755D01*
Y-69472D01*
Y-69186D01*
X1001042D01*
Y-68899D01*
Y-68613D01*
X1001328D01*
Y-68327D01*
Y-68040D01*
Y-67754D01*
Y-67468D01*
X1001614D01*
Y-67181D01*
Y-66895D01*
Y-66609D01*
Y-66322D01*
Y-66036D01*
X1001900D01*
Y-65750D01*
Y-65464D01*
Y-65177D01*
Y-64891D01*
Y-64605D01*
Y-64318D01*
Y-64032D01*
Y-63746D01*
Y-63459D01*
Y-63173D01*
Y-62887D01*
X1001614D01*
Y-62600D01*
Y-62314D01*
X1001328D01*
Y-62028D01*
Y-61742D01*
X1001042D01*
Y-61455D01*
X1000755D01*
Y-61169D01*
X1000183D01*
Y-60883D01*
D02*
G37*
%LPD*%
D11*
X55847Y32035D02*
G03*
X55110Y31299I0J-736D01*
G01*
X61531Y44488D02*
X66339D01*
X57284Y40240D02*
X61531Y44488D01*
X57284Y37067D02*
Y40240D01*
X53287Y46850D02*
X69291D01*
X52559Y46122D02*
X53287Y46850D01*
X69291D02*
X70472Y45669D01*
Y42913D02*
Y45669D01*
X69095Y41535D02*
X70472Y42913D01*
X64370Y41535D02*
X69095D01*
X62500Y39665D02*
X64370Y41535D01*
X61417Y7283D02*
X69291D01*
X57146D02*
X61417D01*
X69291D02*
X70669Y8661D01*
X52559Y2697D02*
X57146Y7283D01*
X55847Y32035D02*
X59303D01*
X55110Y30906D02*
Y31299D01*
X7283Y10138D02*
Y11752D01*
X70669Y27756D02*
Y29862D01*
X67323Y24410D02*
X70669Y27756D01*
X58007Y21646D02*
X67980D01*
X70669Y18957D01*
Y32972D02*
Y33071D01*
Y29862D02*
Y32972D01*
X62500Y37953D02*
Y39665D01*
X61614Y37067D02*
X62500Y37953D01*
X59351Y25689D02*
X60630Y24410D01*
X56299Y25689D02*
X59351D01*
X55110Y26878D02*
X56299Y25689D01*
X55110Y26878D02*
Y30906D01*
X7972Y32579D02*
X12008D01*
X7283Y31890D02*
X7972Y32579D01*
X7283Y29862D02*
Y31890D01*
X12008Y32677D02*
Y37067D01*
Y32579D02*
Y32677D01*
X22894Y36417D02*
X25394Y38917D01*
X20472Y36417D02*
X22894D01*
X19783Y35728D02*
X20472Y36417D01*
X19783Y34154D02*
Y35728D01*
X19102Y33472D02*
X19783Y34154D01*
X18267Y33472D02*
X19102D01*
X17472Y32677D02*
X18267Y33472D01*
X12008Y32677D02*
X17472D01*
X14764Y40748D02*
X16339Y39173D01*
X8760Y40748D02*
X14764D01*
X7283Y39272D02*
X8760Y40748D01*
X16339Y37067D02*
Y39173D01*
X7283Y37067D02*
Y39272D01*
X51339Y24272D02*
X52559Y25492D01*
X49468Y24272D02*
X51339D01*
X48622Y23425D02*
X49468Y24272D01*
X56673Y22980D02*
X58007Y21646D01*
X53824Y36327D02*
X54536D01*
X52264Y34766D02*
X53824Y36327D01*
X52264Y32382D02*
Y34766D01*
X54823Y36614D02*
Y41043D01*
X54536Y36327D02*
X54823Y36614D01*
X50356Y41535D02*
X50455Y41634D01*
X54232D01*
X54823Y41043D01*
X52264Y32382D02*
X53740Y30906D01*
X55110D01*
X43504Y38917D02*
X44291Y38130D01*
Y36614D02*
Y38130D01*
Y36614D02*
X45866Y35039D01*
X24614Y42469D02*
X33315D01*
X21063Y38917D02*
X24614Y42469D01*
X33315D02*
X34449Y43602D01*
Y46122D01*
X47048Y35039D02*
X48622Y33465D01*
X45866Y35039D02*
X47048D01*
X59784Y27362D02*
X62995D01*
X57284Y29862D02*
X59784Y27362D01*
X61476Y29862D02*
X61614D01*
X59303Y32035D02*
X61476Y29862D01*
X54724Y34154D02*
X62894D01*
X54626D02*
X54724D01*
X62894D02*
X63976Y35236D01*
X54528Y34055D02*
X54626Y34154D01*
X63976Y35236D02*
Y39272D01*
X64764Y40059D01*
X67677D01*
X70669Y37067D01*
X62995Y27362D02*
X63787Y28155D01*
Y29201D02*
X64449Y29862D01*
X63787Y28155D02*
Y29201D01*
X64449Y29862D02*
X66339D01*
X50440Y22980D02*
X56673D01*
X48267Y20807D02*
X50440Y22980D01*
X48228Y20807D02*
X48267D01*
X41791Y23425D02*
X48622D01*
X41331Y25839D02*
X43504Y28012D01*
X36622Y25839D02*
X41331D01*
X34449Y28012D02*
X36622Y25839D01*
X39173Y20807D02*
X41791Y23425D01*
X52559Y25492D02*
Y28012D01*
X70669Y8661D02*
Y11752D01*
X43504Y7421D02*
X48228Y2697D01*
X43504Y7421D02*
Y9902D01*
X40689Y5512D02*
X43504Y2697D01*
X39173Y5512D02*
X40689D01*
X36772Y7913D02*
X39173Y5512D01*
X36772Y7913D02*
Y11949D01*
X36024Y12697D02*
X36772Y11949D01*
X32972Y12697D02*
X36024D01*
X30177Y9902D02*
X32972Y12697D01*
X30118Y9902D02*
X30177D01*
X15831Y16551D02*
X17224Y15157D01*
X9630Y16551D02*
X15831D01*
X9587Y14173D02*
X12008Y11752D01*
X5374Y14173D02*
X9587D01*
X2953Y11752D02*
X5374Y14173D01*
X7283Y18898D02*
X9630Y16551D01*
X7283Y18898D02*
Y18957D01*
X36772Y36516D02*
X39173Y38917D01*
X32520Y36516D02*
X36772D01*
X30118Y38917D02*
X32520Y36516D01*
X66339Y29862D02*
X66339D01*
X15709Y27598D02*
X18012Y25295D01*
Y23858D02*
Y25295D01*
Y23858D02*
X21063Y20807D01*
X5512Y24410D02*
X7283Y22638D01*
Y18957D02*
Y22638D01*
X33169Y6398D02*
X35472D01*
X31493Y4721D02*
X33169Y6398D01*
X31493Y4072D02*
Y4721D01*
X35472Y6398D02*
X39173Y2697D01*
X30118D02*
X31493Y4072D01*
X22402Y6457D02*
X31004D01*
X21063Y5118D02*
X22402Y6457D01*
X31004D02*
X34449Y9902D01*
X23327Y7638D02*
X27854D01*
X21063Y9902D02*
X23327Y7638D01*
X27854D02*
X30118Y9902D01*
X21063Y2697D02*
Y5118D01*
X55315Y15157D02*
X57815D01*
X53642Y13485D02*
X55315Y15157D01*
X53642Y10985D02*
Y13485D01*
X52559Y9902D02*
X53642Y10985D01*
X16339Y18543D02*
X25945D01*
X25394Y9902D02*
X26378Y10886D01*
Y18110D01*
X25945Y18543D02*
X26378Y18110D01*
X16339Y18543D02*
Y18957D01*
X12008Y29862D02*
X14272Y27598D01*
X15709D01*
X21063Y20807D02*
Y20807D01*
X43504Y46122D02*
X47244Y42382D01*
Y39902D02*
Y42382D01*
Y39902D02*
X48228Y38917D01*
X25394Y28012D02*
X29134Y24272D01*
Y21791D02*
Y24272D01*
Y21791D02*
X30118Y20807D01*
X57284Y11752D02*
X59902Y14370D01*
X63721D01*
X66339Y11752D01*
X57815Y15157D02*
X61614Y18957D01*
D12*
X1175197Y-76776D02*
X1184380D01*
X1179789D01*
Y-90551D01*
X1191268D02*
X1195860D01*
X1198155Y-88255D01*
Y-83664D01*
X1195860Y-81368D01*
X1191268D01*
X1188972Y-83664D01*
Y-88255D01*
X1191268Y-90551D01*
X1202747Y-95143D02*
Y-81368D01*
X1209635D01*
X1211930Y-83664D01*
Y-88255D01*
X1209635Y-90551D01*
X1202747D01*
X1230297Y-76776D02*
Y-90551D01*
X1239481D01*
X1246368Y-81368D02*
X1250960D01*
X1253256Y-83664D01*
Y-90551D01*
X1246368D01*
X1244072Y-88255D01*
X1246368Y-85960D01*
X1253256D01*
X1257847Y-81368D02*
Y-88255D01*
X1260143Y-90551D01*
X1267031D01*
Y-92847D01*
X1264735Y-95143D01*
X1262439D01*
X1267031Y-90551D02*
Y-81368D01*
X1278510Y-90551D02*
X1273918D01*
X1271622Y-88255D01*
Y-83664D01*
X1273918Y-81368D01*
X1278510D01*
X1280806Y-83664D01*
Y-85960D01*
X1271622D01*
X1285398Y-81368D02*
Y-90551D01*
Y-85960D01*
X1287693Y-83664D01*
X1289989Y-81368D01*
X1292285D01*
X1173881Y-40031D02*
X1171257Y-37407D01*
X1166010D01*
X1163386Y-40031D01*
Y-42654D01*
X1166010Y-45278D01*
X1171257D01*
X1173881Y-47902D01*
Y-50526D01*
X1171257Y-53150D01*
X1166010D01*
X1163386Y-50526D01*
X1179129Y-53150D02*
X1184376D01*
X1181753D01*
Y-42654D01*
X1179129D01*
X1192248D02*
X1202743Y-53150D01*
X1197495Y-47902D01*
X1202743Y-42654D01*
X1192248Y-53150D01*
X1207991Y-42654D02*
X1218486Y-53150D01*
X1213239Y-47902D01*
X1218486Y-42654D01*
X1207991Y-53150D01*
X1223734Y-42654D02*
Y-50526D01*
X1226358Y-53150D01*
X1234229D01*
Y-55773D01*
X1231605Y-58397D01*
X1228981D01*
X1234229Y-53150D02*
Y-42654D01*
X1178475Y-131890D02*
X1169291D01*
X1178475Y-122706D01*
Y-120411D01*
X1176179Y-118115D01*
X1171587D01*
X1169291Y-120411D01*
X1183066Y-131890D02*
X1187658D01*
X1185362D01*
Y-118115D01*
X1183066Y-120411D01*
X1194546Y-131890D02*
X1203729Y-122706D01*
X1208321Y-120411D02*
X1210617Y-118115D01*
X1215208D01*
X1217504Y-120411D01*
Y-129594D01*
X1215208Y-131890D01*
X1210617D01*
X1208321Y-129594D01*
Y-120411D01*
X1222096Y-131890D02*
X1226688D01*
X1224392D01*
Y-118115D01*
X1222096Y-120411D01*
X1233575Y-131890D02*
X1242758Y-122706D01*
X1256534Y-131890D02*
X1247350D01*
X1256534Y-122706D01*
Y-120411D01*
X1254238Y-118115D01*
X1249646D01*
X1247350Y-120411D01*
X1261125D02*
X1263421Y-118115D01*
X1268013D01*
X1270309Y-120411D01*
Y-129594D01*
X1268013Y-131890D01*
X1263421D01*
X1261125Y-129594D01*
Y-120411D01*
X1274900Y-131890D02*
X1279492D01*
X1277196D01*
Y-118115D01*
X1274900Y-120411D01*
X1286380Y-129594D02*
X1288675Y-131890D01*
X1293267D01*
X1295563Y-129594D01*
Y-120411D01*
X1293267Y-118115D01*
X1288675D01*
X1286380Y-120411D01*
Y-122706D01*
X1288675Y-125002D01*
X1295563D01*
X1332677Y-118771D02*
X1335301Y-116147D01*
X1340549D01*
X1343172Y-118771D01*
Y-129266D01*
X1340549Y-131890D01*
X1335301D01*
X1332677Y-129266D01*
Y-118771D01*
X1348420D02*
X1351044Y-116147D01*
X1356292D01*
X1358915Y-118771D01*
Y-129266D01*
X1356292Y-131890D01*
X1351044D01*
X1348420Y-129266D01*
Y-118771D01*
X978347Y-155517D02*
Y-171260D01*
X983594Y-166012D01*
X988842Y-171260D01*
Y-155517D01*
X994089Y-171260D02*
X999337D01*
X996713D01*
Y-160765D01*
X994089D01*
X1007209Y-171260D02*
Y-160765D01*
X1009832D01*
X1012456Y-163388D01*
Y-171260D01*
Y-163388D01*
X1015080Y-160765D01*
X1017704Y-163388D01*
Y-171260D01*
X1022952Y-155517D02*
Y-166012D01*
X1028199Y-171260D01*
X1033447Y-166012D01*
Y-155517D01*
X1049190Y-158141D02*
X1046566Y-155517D01*
X1041318D01*
X1038694Y-158141D01*
Y-168636D01*
X1041318Y-171260D01*
X1046566D01*
X1049190Y-168636D01*
Y-163388D01*
X1043942D01*
D15*
X0Y0D02*
Y48819D01*
X-0D02*
X73622D01*
X0Y0D02*
X73622D01*
X73622D02*
Y48819D01*
D16*
X33858Y30413D02*
X36319Y32874D01*
X32520Y30413D02*
X33858D01*
X30118Y28012D02*
X32520Y30413D01*
X21654Y31890D02*
X22047Y32283D01*
X23228Y33464D01*
X18760Y32283D02*
X22047D01*
X16339Y29862D02*
X18760Y32283D01*
X49729Y25492D02*
X50394Y26157D01*
X44488Y25492D02*
X49729D01*
X43646Y24650D02*
X44488Y25492D01*
X36811Y18799D02*
Y23917D01*
X40602D02*
X41334Y24650D01*
X36811Y23917D02*
X40602D01*
X34213D02*
X36811D01*
X41334Y24650D02*
X43646D01*
X40157Y31693D02*
X41930Y33465D01*
X40157Y28996D02*
Y31693D01*
X39173Y28012D02*
X40157Y28996D01*
X47776Y28012D02*
X48228D01*
X42322Y33465D02*
X47776Y28012D01*
X41930Y33465D02*
X42322D01*
X41331Y41142D02*
Y41484D01*
Y40937D02*
Y41142D01*
X39173Y43642D02*
X41331Y41484D01*
X48524Y33465D02*
X48623D01*
X51968Y36417D02*
Y38327D01*
X49016Y33465D02*
X51968Y36417D01*
X2953Y18957D02*
X6547Y15362D01*
X12728D02*
X16339Y11752D01*
X6547Y15362D02*
X12728D01*
X51968Y38327D02*
X52559Y38917D01*
X39173Y43642D02*
Y46122D01*
X34449Y38917D02*
X39173Y43642D01*
X32087Y41280D02*
X34449Y38917D01*
X27992Y41280D02*
X32087D01*
X25630Y38917D02*
X27992Y41280D01*
X25394Y38917D02*
X25630D01*
X28150Y35433D02*
X29921Y33662D01*
X28150Y35433D02*
Y36024D01*
X25394Y38780D02*
X28150Y36024D01*
X25394Y38780D02*
Y38917D01*
X40709Y18012D02*
X43504Y20807D01*
X37598Y18012D02*
X40709D01*
X36811Y18799D02*
X37598Y18012D01*
X30118Y28012D02*
X34213Y23917D01*
X27716Y30413D02*
X30118Y28012D01*
X26673Y30413D02*
X27716D01*
X23622Y33464D02*
X26673Y30413D01*
X23228Y33464D02*
X23622D01*
X21063Y28012D02*
X21654Y28602D01*
Y31890D01*
X55433Y20807D02*
X57284Y18957D01*
X52559Y20807D02*
X55433D01*
X51870Y20118D02*
X52559Y20807D01*
X51870Y16634D02*
Y20118D01*
X50591Y15355D02*
X51870Y16634D01*
X48229Y17717D02*
X50591Y15355D01*
X47062Y17717D02*
X48229D01*
X43971Y20807D02*
X47062Y17717D01*
X43504Y20807D02*
X43971D01*
X66339Y34587D02*
Y37067D01*
X61614Y29862D02*
X66339Y34587D01*
X20138Y10827D02*
X21063Y9902D01*
X17264Y10827D02*
X20138D01*
X16339Y11752D02*
X17264Y10827D01*
X21752Y13878D02*
X23228Y15354D01*
X21752Y10591D02*
Y13878D01*
X21063Y9902D02*
X21752Y10591D01*
X-224410Y-177165D02*
X1429134D01*
X-224410D02*
Y992126D01*
X1429134Y-177165D02*
Y992126D01*
X-224410D02*
X1429134D01*
X1153543Y-177165D02*
Y-19685D01*
X956693Y-177165D02*
Y-19685D01*
X1429134D01*
X956693Y-137795D02*
X1429134D01*
X1153543Y-98425D02*
X1429134D01*
X1153543Y-59055D02*
X1429134D01*
X1311024Y-137795D02*
Y-98425D01*
X1167322Y-164372D02*
X1166338Y-163388D01*
X1164370D01*
X1163386Y-164372D01*
Y-165356D01*
X1164370Y-166340D01*
X1166338D01*
X1167322Y-167324D01*
Y-168307D01*
X1166338Y-169291D01*
X1164370D01*
X1163386Y-168307D01*
X1169289Y-163388D02*
X1171257D01*
X1170273D01*
Y-169291D01*
X1169289D01*
X1171257D01*
X1174209Y-163388D02*
X1178145Y-169291D01*
Y-163388D02*
X1174209Y-169291D01*
X1180113Y-163388D02*
X1184048Y-169291D01*
Y-163388D02*
X1180113Y-169291D01*
X1186016Y-163388D02*
Y-164372D01*
X1187984Y-166340D01*
X1189952Y-164372D01*
Y-163388D01*
X1187984Y-166340D02*
Y-169291D01*
X1191920Y-170275D02*
X1195856D01*
X1197824Y-164372D02*
X1198807Y-163388D01*
X1200775D01*
X1201759Y-164372D01*
Y-168307D01*
X1200775Y-169291D01*
X1198807D01*
X1197824Y-168307D01*
Y-164372D01*
X1203727D02*
X1204711Y-163388D01*
X1206679D01*
X1207663Y-164372D01*
Y-168307D01*
X1206679Y-169291D01*
X1204711D01*
X1203727Y-168307D01*
Y-164372D01*
X1209631Y-169291D02*
Y-168307D01*
X1210615D01*
Y-169291D01*
X1209631D01*
X1214550D02*
Y-163388D01*
X1217502D01*
X1218486Y-164372D01*
Y-166340D01*
X1217502Y-167324D01*
X1214550D01*
X1224390Y-165356D02*
X1221438D01*
X1220454Y-166340D01*
Y-168307D01*
X1221438Y-169291D01*
X1224390D01*
X1226358Y-163388D02*
Y-169291D01*
X1229309D01*
X1230293Y-168307D01*
Y-167324D01*
Y-166340D01*
X1229309Y-165356D01*
X1226358D01*
X1232261Y-163388D02*
Y-169291D01*
X1235213D01*
X1236197Y-168307D01*
Y-164372D01*
X1235213Y-163388D01*
X1232261D01*
X1239149Y-169291D02*
X1241117D01*
X1242101Y-168307D01*
Y-166340D01*
X1241117Y-165356D01*
X1239149D01*
X1238165Y-166340D01*
Y-168307D01*
X1239149Y-169291D01*
X1248004Y-165356D02*
X1245052D01*
X1244068Y-166340D01*
Y-168307D01*
X1245052Y-169291D01*
X1248004D01*
D17*
X8760Y22190D02*
Y29822D01*
X58819Y8957D02*
X61614Y11752D01*
X56102Y8957D02*
X58819D01*
X54429Y7283D02*
X56102Y8957D01*
X50846Y7283D02*
X54429D01*
X48228Y9902D02*
X50846Y7283D01*
X35472Y15354D02*
X39173D01*
X29921D02*
X35472D01*
X43898Y15355D02*
X47441Y11812D01*
Y10689D02*
Y11812D01*
Y10689D02*
X48228Y9902D01*
X39173Y15354D02*
X43897D01*
X39173Y9902D02*
Y15354D01*
X28346Y16928D02*
X29921Y15354D01*
X28346Y16928D02*
Y18209D01*
X25748Y20807D02*
X28346Y18209D01*
X25394Y20807D02*
X25748D01*
X33563Y19921D02*
X34449Y20807D01*
X33563Y18996D02*
Y19921D01*
X29921Y15354D02*
X33563Y18996D01*
X8721Y29862D02*
X8760Y29822D01*
Y22190D02*
X11993Y18957D01*
X12008D01*
X1157480Y-141735D02*
Y-149606D01*
X1161416D01*
X1162728Y-148294D01*
Y-143047D01*
X1161416Y-141735D01*
X1157480D01*
X1166664Y-149606D02*
X1169287D01*
X1170599Y-148294D01*
Y-145671D01*
X1169287Y-144359D01*
X1166664D01*
X1165352Y-145671D01*
Y-148294D01*
X1166664Y-149606D01*
X1178471Y-144359D02*
X1174535D01*
X1173223Y-145671D01*
Y-148294D01*
X1174535Y-149606D01*
X1178471D01*
X1181095Y-144359D02*
Y-148294D01*
X1182407Y-149606D01*
X1186342D01*
Y-144359D01*
X1188966Y-149606D02*
Y-144359D01*
X1190278D01*
X1191590Y-145671D01*
Y-149606D01*
Y-145671D01*
X1192902Y-144359D01*
X1194214Y-145671D01*
Y-149606D01*
X1200774D02*
X1198150D01*
X1196838Y-148294D01*
Y-145671D01*
X1198150Y-144359D01*
X1200774D01*
X1202085Y-145671D01*
Y-146983D01*
X1196838D01*
X1204709Y-149606D02*
Y-144359D01*
X1208645D01*
X1209957Y-145671D01*
Y-149606D01*
X1213893Y-143047D02*
Y-144359D01*
X1212581D01*
X1215205D01*
X1213893D01*
Y-148294D01*
X1215205Y-149606D01*
X1157480Y-102365D02*
Y-110236D01*
X1161416D01*
X1162728Y-108924D01*
Y-103677D01*
X1161416Y-102365D01*
X1157480D01*
X1166664Y-104989D02*
X1169287D01*
X1170599Y-106300D01*
Y-110236D01*
X1166664D01*
X1165352Y-108924D01*
X1166664Y-107612D01*
X1170599D01*
X1174535Y-103677D02*
Y-104989D01*
X1173223D01*
X1175847D01*
X1174535D01*
Y-108924D01*
X1175847Y-110236D01*
X1183719D02*
X1181095D01*
X1179783Y-108924D01*
Y-106300D01*
X1181095Y-104989D01*
X1183719D01*
X1185030Y-106300D01*
Y-107612D01*
X1179783D01*
X1157480Y-62995D02*
Y-70866D01*
X1162728D01*
X1166664Y-65618D02*
X1169287D01*
X1170599Y-66930D01*
Y-70866D01*
X1166664D01*
X1165352Y-69554D01*
X1166664Y-68242D01*
X1170599D01*
X1173223Y-65618D02*
Y-69554D01*
X1174535Y-70866D01*
X1178471D01*
Y-72178D01*
X1177159Y-73490D01*
X1175847D01*
X1178471Y-70866D02*
Y-65618D01*
X1185030Y-70866D02*
X1182407D01*
X1181095Y-69554D01*
Y-66930D01*
X1182407Y-65618D01*
X1185030D01*
X1186342Y-66930D01*
Y-68242D01*
X1181095D01*
X1188966Y-65618D02*
Y-70866D01*
Y-68242D01*
X1190278Y-66930D01*
X1191590Y-65618D01*
X1192902D01*
X1204709Y-70866D02*
Y-62995D01*
X1209957Y-70866D01*
Y-62995D01*
X1213893Y-65618D02*
X1216516D01*
X1217828Y-66930D01*
Y-70866D01*
X1213893D01*
X1212581Y-69554D01*
X1213893Y-68242D01*
X1217828D01*
X1220452Y-70866D02*
Y-65618D01*
X1221764D01*
X1223076Y-66930D01*
Y-70866D01*
Y-66930D01*
X1224388Y-65618D01*
X1225700Y-66930D01*
Y-70866D01*
X1232259D02*
X1229636D01*
X1228324Y-69554D01*
Y-66930D01*
X1229636Y-65618D01*
X1232259D01*
X1233571Y-66930D01*
Y-68242D01*
X1228324D01*
X1157480Y-23625D02*
Y-31496D01*
X1161416D01*
X1162728Y-30184D01*
Y-24937D01*
X1161416Y-23625D01*
X1157480D01*
X1166664Y-31496D02*
X1169287D01*
X1170599Y-30184D01*
Y-27560D01*
X1169287Y-26248D01*
X1166664D01*
X1165352Y-27560D01*
Y-30184D01*
X1166664Y-31496D01*
X1178471Y-26248D02*
X1174535D01*
X1173223Y-27560D01*
Y-30184D01*
X1174535Y-31496D01*
X1178471D01*
X1181095Y-26248D02*
Y-30184D01*
X1182407Y-31496D01*
X1186342D01*
Y-26248D01*
X1188966Y-31496D02*
Y-26248D01*
X1190278D01*
X1191590Y-27560D01*
Y-31496D01*
Y-27560D01*
X1192902Y-26248D01*
X1194214Y-27560D01*
Y-31496D01*
X1200774D02*
X1198150D01*
X1196838Y-30184D01*
Y-27560D01*
X1198150Y-26248D01*
X1200774D01*
X1202085Y-27560D01*
Y-28872D01*
X1196838D01*
X1204709Y-31496D02*
Y-26248D01*
X1208645D01*
X1209957Y-27560D01*
Y-31496D01*
X1213893Y-24937D02*
Y-26248D01*
X1212581D01*
X1215205D01*
X1213893D01*
Y-30184D01*
X1215205Y-31496D01*
X960630Y-141735D02*
Y-149606D01*
X964566D01*
X965878Y-148294D01*
Y-143047D01*
X964566Y-141735D01*
X960630D01*
X972437Y-149606D02*
X969813D01*
X968501Y-148294D01*
Y-145671D01*
X969813Y-144359D01*
X972437D01*
X973749Y-145671D01*
Y-146983D01*
X968501D01*
X976373Y-149606D02*
X980309D01*
X981621Y-148294D01*
X980309Y-146983D01*
X977685D01*
X976373Y-145671D01*
X977685Y-144359D01*
X981621D01*
X986868Y-152230D02*
X988180D01*
X989492Y-150918D01*
Y-144359D01*
X985556D01*
X984244Y-145671D01*
Y-148294D01*
X985556Y-149606D01*
X989492D01*
X992116D02*
X994740D01*
X993428D01*
Y-144359D01*
X992116D01*
X998675Y-149606D02*
Y-144359D01*
X1002611D01*
X1003923Y-145671D01*
Y-149606D01*
X1010483D02*
X1007859D01*
X1006547Y-148294D01*
Y-145671D01*
X1007859Y-144359D01*
X1010483D01*
X1011794Y-145671D01*
Y-146983D01*
X1006547D01*
X1014418Y-144359D02*
Y-149606D01*
Y-146983D01*
X1015730Y-145671D01*
X1017042Y-144359D01*
X1018354D01*
X1314961Y-110236D02*
Y-102365D01*
X1318896D01*
X1320208Y-103677D01*
Y-106300D01*
X1318896Y-107612D01*
X1314961D01*
X1317584D02*
X1320208Y-110236D01*
X1326768D02*
X1324144D01*
X1322832Y-108924D01*
Y-106300D01*
X1324144Y-104989D01*
X1326768D01*
X1328080Y-106300D01*
Y-107612D01*
X1322832D01*
X1330704Y-104989D02*
X1333327Y-110236D01*
X1335951Y-104989D01*
D18*
X12205Y24410D02*
D03*
X5512D02*
D03*
X41930Y33465D02*
D03*
X48622D02*
D03*
X29921Y33464D02*
D03*
X23228D02*
D03*
X29921Y15354D02*
D03*
X23228D02*
D03*
X60630Y24410D02*
D03*
X67323D02*
D03*
X43898Y15355D02*
D03*
X50591D02*
D03*
D19*
X48228Y28012D02*
D03*
Y20807D02*
D03*
X52559D02*
D03*
Y28012D02*
D03*
X21063Y20807D02*
D03*
Y28012D02*
D03*
X25394D02*
D03*
Y20807D02*
D03*
X30118D02*
D03*
Y28012D02*
D03*
X34449D02*
D03*
Y20807D02*
D03*
X70669Y37067D02*
D03*
Y29862D02*
D03*
X66339D02*
D03*
Y37067D02*
D03*
X57284Y29862D02*
D03*
Y37067D02*
D03*
X61614D02*
D03*
Y29862D02*
D03*
X52559Y46122D02*
D03*
Y38917D02*
D03*
X48228D02*
D03*
Y46122D02*
D03*
X43504D02*
D03*
Y38917D02*
D03*
X39173D02*
D03*
Y46122D02*
D03*
X30118Y38917D02*
D03*
Y46122D02*
D03*
X34449D02*
D03*
Y38917D02*
D03*
X21063D02*
D03*
Y46122D02*
D03*
X25394D02*
D03*
Y38917D02*
D03*
X2953Y29862D02*
D03*
Y37067D02*
D03*
X7283D02*
D03*
Y29862D02*
D03*
X16339Y37067D02*
D03*
Y29862D02*
D03*
X12008D02*
D03*
Y37067D02*
D03*
X43504Y28012D02*
D03*
Y20807D02*
D03*
X39173D02*
D03*
Y28012D02*
D03*
X70669Y18957D02*
D03*
Y11752D02*
D03*
X66339D02*
D03*
Y18957D02*
D03*
X57284Y11752D02*
D03*
Y18957D02*
D03*
X61614D02*
D03*
Y11752D02*
D03*
X52559Y9902D02*
D03*
Y2697D02*
D03*
X48228D02*
D03*
Y9902D02*
D03*
X43504D02*
D03*
Y2697D02*
D03*
X39173D02*
D03*
Y9902D02*
D03*
X30118Y2697D02*
D03*
Y9902D02*
D03*
X34449D02*
D03*
Y2697D02*
D03*
X21063D02*
D03*
Y9902D02*
D03*
X25394D02*
D03*
Y2697D02*
D03*
X16339Y18957D02*
D03*
Y11752D02*
D03*
X12008D02*
D03*
Y18957D02*
D03*
X2953Y11752D02*
D03*
Y18957D02*
D03*
X7283D02*
D03*
Y11752D02*
D03*
D22*
X3543Y45669D02*
X20610D01*
X21063Y46122D01*
X3543Y37657D02*
Y45669D01*
X2953Y37067D02*
X3543Y37657D01*
X67901Y9498D02*
X68467Y10063D01*
X63868Y9498D02*
X67901D01*
X61614Y11752D02*
X63868Y9498D01*
X68467Y10063D02*
Y13441D01*
X18602Y35138D02*
Y40551D01*
X18110Y34646D02*
X18602Y35138D01*
X14764Y34646D02*
X18110D01*
X14136Y35274D02*
X14764Y34646D01*
X14136Y35274D02*
Y38915D01*
X9646Y38976D02*
X10335Y39665D01*
X9646Y35154D02*
Y38976D01*
X10335Y39665D02*
X13386D01*
X14136Y38915D01*
X50356Y41535D02*
Y43919D01*
Y36970D02*
Y41535D01*
X20807D02*
X25394Y46122D01*
X19587Y41535D02*
X20807D01*
X18602Y40551D02*
X19587Y41535D01*
X8350Y33858D02*
X9646Y35154D01*
X6949Y33858D02*
X8350D01*
X2953Y29862D02*
X6949Y33858D01*
X41331Y41142D02*
X45374D01*
X45965Y40551D01*
Y36909D02*
Y40551D01*
X41331Y34064D02*
X41930Y33465D01*
X41331Y34064D02*
Y40937D01*
X45965Y36909D02*
X46457Y36417D01*
X49803D01*
X50356Y36970D01*
Y43919D02*
X50394Y43957D01*
X48228Y46122D02*
X50394Y43957D01*
X49016Y33465D02*
X49288D01*
X48623D02*
X49016D01*
X50394Y26157D02*
Y32358D01*
X49288Y33465D02*
X50394Y32358D01*
X48622Y33465D02*
X48623Y33465D01*
X45669Y7776D02*
Y11553D01*
X49547Y5709D02*
X52559Y2697D01*
X47736Y5709D02*
X49547D01*
X45669Y7776D02*
X47736Y5709D01*
X45017Y12205D02*
X45669Y11553D01*
X41732Y12205D02*
X45017D01*
X41301Y11774D02*
X41732Y12205D01*
X41301Y6124D02*
Y11774D01*
X40689Y5512D02*
X41301Y6124D01*
X66339Y15568D02*
X68467Y13441D01*
X66339Y15568D02*
Y18957D01*
D23*
X7283Y29862D02*
X8327D01*
X8721Y29469D01*
X15216Y24410D02*
X15217Y24409D01*
X12205Y24410D02*
X15216D01*
D24*
X66339Y44488D02*
D03*
X3543Y45669D02*
D03*
X61417Y7283D02*
D03*
X7283Y10138D02*
D03*
X70669Y32972D02*
D03*
X36319Y32874D02*
D03*
X56299Y25689D02*
D03*
X35472Y15354D02*
D03*
X28740Y44783D02*
D03*
X54724Y34154D02*
D03*
X17224Y15157D02*
D03*
X15217Y24409D02*
D03*
X8721Y29469D02*
D03*
X34449Y4134D02*
D03*
X25394D02*
D03*
M02*
