G04*
G04 #@! TF.GenerationSoftware,Altium Limited,Altium Designer,18.1.9 (240)*
G04*
G04 Layer_Color=128*
%FSLAX25Y25*%
%MOIN*%
G70*
G01*
G75*
%ADD12C,0.01575*%
%ADD15C,0.00394*%
%ADD16C,0.00787*%
%ADD17C,0.00984*%
%ADD25R,0.11811X0.05906*%
%ADD26R,0.03543X0.01575*%
%ADD27R,0.02362X0.06102*%
%ADD28R,0.04724X0.07874*%
G36*
X200247Y-50003D02*
X198529D01*
Y-50289D01*
X197670D01*
Y-50575D01*
X196811D01*
Y-50862D01*
X195952D01*
Y-51148D01*
X195380D01*
Y-51434D01*
X195094D01*
Y-51720D01*
X194521D01*
Y-52007D01*
X194235D01*
Y-52293D01*
X193662D01*
Y-52579D01*
X193376D01*
Y-52866D01*
X193089D01*
Y-53152D01*
X192803D01*
Y-53438D01*
X192517D01*
Y-53725D01*
X192230D01*
Y-54011D01*
X191944D01*
Y-54297D01*
Y-54584D01*
X191658D01*
Y-54870D01*
X191372D01*
Y-55156D01*
Y-55443D01*
X191085D01*
Y-55729D01*
X190799D01*
Y-56015D01*
Y-56301D01*
X190513D01*
Y-56588D01*
Y-56874D01*
Y-57161D01*
X190226D01*
Y-57447D01*
Y-57733D01*
Y-58019D01*
X189940D01*
Y-58306D01*
Y-58592D01*
Y-58878D01*
Y-59165D01*
X189654D01*
Y-59451D01*
Y-59737D01*
Y-60024D01*
Y-60310D01*
Y-60596D01*
X189367D01*
Y-60883D01*
Y-61169D01*
Y-61455D01*
Y-61742D01*
Y-62028D01*
Y-62314D01*
Y-62600D01*
Y-62887D01*
Y-63173D01*
Y-63459D01*
Y-63746D01*
Y-64032D01*
Y-64318D01*
Y-64605D01*
Y-64891D01*
Y-65177D01*
Y-65464D01*
Y-65750D01*
Y-66036D01*
Y-66322D01*
X189654D01*
Y-66609D01*
Y-66895D01*
Y-67181D01*
Y-67468D01*
Y-67754D01*
Y-68040D01*
Y-68327D01*
X189940D01*
Y-68613D01*
Y-68899D01*
Y-69186D01*
Y-69472D01*
Y-69758D01*
X190226D01*
Y-70044D01*
Y-70331D01*
Y-70617D01*
Y-70903D01*
Y-71190D01*
X190513D01*
Y-71476D01*
Y-71762D01*
Y-72049D01*
X190799D01*
Y-72335D01*
Y-72621D01*
Y-72908D01*
Y-73194D01*
X191085D01*
Y-73480D01*
Y-73767D01*
Y-74053D01*
X191372D01*
Y-74339D01*
Y-74625D01*
X191658D01*
Y-74912D01*
Y-75198D01*
Y-75485D01*
X191944D01*
Y-75771D01*
Y-76057D01*
X192230D01*
Y-76343D01*
Y-76630D01*
X192517D01*
Y-76916D01*
Y-77202D01*
X192803D01*
Y-77489D01*
X193089D01*
Y-77775D01*
Y-78061D01*
X193376D01*
Y-78348D01*
X193662D01*
Y-78634D01*
X193948D01*
Y-78920D01*
Y-79207D01*
X194235D01*
Y-79493D01*
X194521D01*
Y-79779D01*
X194807D01*
Y-80066D01*
X195094D01*
Y-80352D01*
X195380D01*
Y-80638D01*
X195952D01*
Y-80924D01*
X196239D01*
Y-81211D01*
X196811D01*
Y-81497D01*
X197098D01*
Y-81783D01*
X197670D01*
Y-82070D01*
X198529D01*
Y-82356D01*
X199388D01*
Y-82642D01*
X200247D01*
Y-82929D01*
X201965D01*
Y-83215D01*
X207119D01*
Y-82929D01*
X209696D01*
Y-82642D01*
X211700D01*
Y-82356D01*
X213131D01*
Y-82070D01*
X214563D01*
Y-81783D01*
X215994D01*
Y-82070D01*
Y-82356D01*
Y-82642D01*
Y-82929D01*
Y-83215D01*
Y-83501D01*
Y-83788D01*
X216281D01*
Y-84074D01*
Y-84360D01*
Y-84646D01*
Y-84933D01*
Y-85219D01*
Y-85505D01*
X216567D01*
Y-85792D01*
Y-86078D01*
Y-86364D01*
Y-86651D01*
Y-86937D01*
Y-87223D01*
X216853D01*
Y-87510D01*
Y-87796D01*
Y-88082D01*
Y-88369D01*
Y-88655D01*
Y-88941D01*
Y-89227D01*
X217140D01*
Y-89514D01*
Y-89800D01*
Y-90086D01*
Y-90373D01*
Y-90659D01*
Y-90945D01*
X217426D01*
Y-91232D01*
Y-91518D01*
Y-91804D01*
Y-92091D01*
Y-92377D01*
Y-92663D01*
X217712D01*
Y-92950D01*
Y-93236D01*
Y-93522D01*
Y-93809D01*
Y-94095D01*
Y-94381D01*
Y-94667D01*
X217999D01*
Y-94954D01*
Y-95240D01*
Y-95526D01*
Y-95813D01*
Y-96099D01*
Y-96385D01*
X218285D01*
Y-96672D01*
Y-96958D01*
Y-97244D01*
Y-97531D01*
Y-97817D01*
Y-98103D01*
X218571D01*
Y-98390D01*
Y-98676D01*
Y-98962D01*
Y-99248D01*
Y-99535D01*
Y-99821D01*
Y-100107D01*
X232028D01*
Y-99821D01*
X231742D01*
Y-99535D01*
Y-99248D01*
Y-98962D01*
Y-98676D01*
Y-98390D01*
X231455D01*
Y-98103D01*
Y-97817D01*
Y-97531D01*
Y-97244D01*
Y-96958D01*
Y-96672D01*
Y-96385D01*
X231169D01*
Y-96099D01*
Y-95813D01*
Y-95526D01*
Y-95240D01*
Y-94954D01*
Y-94667D01*
X230883D01*
Y-94381D01*
Y-94095D01*
Y-93809D01*
Y-93522D01*
Y-93236D01*
Y-92950D01*
X230596D01*
Y-92663D01*
Y-92377D01*
Y-92091D01*
Y-91804D01*
Y-91518D01*
Y-91232D01*
Y-90945D01*
X230310D01*
Y-90659D01*
Y-90373D01*
Y-90086D01*
Y-89800D01*
Y-89514D01*
Y-89227D01*
X230024D01*
Y-88941D01*
Y-88655D01*
Y-88369D01*
Y-88082D01*
Y-87796D01*
Y-87510D01*
X229737D01*
Y-87223D01*
Y-86937D01*
Y-86651D01*
Y-86364D01*
Y-86078D01*
Y-85792D01*
X229451D01*
Y-85505D01*
Y-85219D01*
Y-84933D01*
Y-84646D01*
Y-84360D01*
Y-84074D01*
Y-83788D01*
X229165D01*
Y-83501D01*
Y-83215D01*
Y-82929D01*
Y-82642D01*
Y-82356D01*
Y-82070D01*
X228878D01*
Y-81783D01*
Y-81497D01*
Y-81211D01*
Y-80924D01*
Y-80638D01*
Y-80352D01*
X228592D01*
Y-80066D01*
Y-79779D01*
Y-79493D01*
Y-79207D01*
Y-78920D01*
Y-78634D01*
X228306D01*
Y-78348D01*
Y-78061D01*
Y-77775D01*
Y-77489D01*
Y-77202D01*
Y-76916D01*
Y-76630D01*
X228019D01*
Y-76343D01*
Y-76057D01*
Y-75771D01*
Y-75485D01*
Y-75198D01*
Y-74912D01*
X227733D01*
Y-74625D01*
Y-74339D01*
Y-74053D01*
Y-73767D01*
Y-73480D01*
Y-73194D01*
X227447D01*
Y-72908D01*
Y-72621D01*
Y-72335D01*
Y-72049D01*
Y-71762D01*
Y-71476D01*
Y-71190D01*
X227161D01*
Y-70903D01*
Y-70617D01*
Y-70331D01*
Y-70044D01*
Y-69758D01*
Y-69472D01*
X226874D01*
Y-69186D01*
Y-68899D01*
Y-68613D01*
Y-68327D01*
Y-68040D01*
Y-67754D01*
X226588D01*
Y-67468D01*
Y-67181D01*
Y-66895D01*
Y-66609D01*
Y-66322D01*
Y-66036D01*
X226302D01*
Y-65750D01*
Y-65464D01*
Y-65177D01*
Y-64891D01*
Y-64605D01*
Y-64318D01*
Y-64032D01*
X226015D01*
Y-63746D01*
Y-63459D01*
Y-63173D01*
Y-62887D01*
Y-62600D01*
Y-62314D01*
X225729D01*
Y-62028D01*
Y-61742D01*
Y-61455D01*
Y-61169D01*
Y-60883D01*
Y-60596D01*
X225443D01*
Y-60310D01*
Y-60024D01*
Y-59737D01*
Y-59451D01*
Y-59165D01*
Y-58878D01*
Y-58592D01*
X225156D01*
Y-58306D01*
Y-58019D01*
Y-57733D01*
Y-57447D01*
Y-57161D01*
Y-56874D01*
X224870D01*
Y-56588D01*
Y-56301D01*
Y-56015D01*
Y-55729D01*
Y-55443D01*
Y-55156D01*
X224584D01*
Y-54870D01*
Y-54584D01*
Y-54297D01*
Y-54011D01*
Y-53725D01*
Y-53438D01*
Y-53152D01*
X224297D01*
Y-52866D01*
Y-52579D01*
Y-52293D01*
Y-52007D01*
Y-51720D01*
Y-51434D01*
X224011D01*
Y-51148D01*
Y-50862D01*
Y-50575D01*
Y-50289D01*
Y-50003D01*
Y-49716D01*
X200247D01*
Y-50003D01*
D02*
G37*
G36*
X169039Y-46567D02*
Y-46853D01*
X169325D01*
Y-47139D01*
Y-47426D01*
Y-47712D01*
Y-47998D01*
Y-48285D01*
Y-48571D01*
X169612D01*
Y-48857D01*
Y-49144D01*
Y-49430D01*
Y-49716D01*
Y-50003D01*
Y-50289D01*
X169898D01*
Y-50575D01*
Y-50862D01*
Y-51148D01*
Y-51434D01*
Y-51720D01*
Y-52007D01*
Y-52293D01*
X170184D01*
Y-52579D01*
Y-52866D01*
Y-53152D01*
Y-53438D01*
Y-53725D01*
Y-54011D01*
X170471D01*
Y-54297D01*
Y-54584D01*
Y-54870D01*
Y-55156D01*
Y-55443D01*
Y-55729D01*
X170757D01*
Y-56015D01*
Y-56301D01*
Y-56588D01*
Y-56874D01*
Y-57161D01*
Y-57447D01*
Y-57733D01*
X171043D01*
Y-58019D01*
Y-58306D01*
Y-58592D01*
Y-58878D01*
Y-59165D01*
Y-59451D01*
X171330D01*
Y-59737D01*
Y-60024D01*
Y-60310D01*
Y-60596D01*
Y-60883D01*
Y-61169D01*
X171616D01*
Y-61455D01*
Y-61742D01*
Y-62028D01*
Y-62314D01*
Y-62600D01*
Y-62887D01*
X171902D01*
Y-63173D01*
Y-63459D01*
Y-63746D01*
Y-64032D01*
Y-64318D01*
Y-64605D01*
Y-64891D01*
X172188D01*
Y-65177D01*
Y-65464D01*
Y-65750D01*
Y-66036D01*
Y-66322D01*
Y-66609D01*
X172475D01*
Y-66895D01*
Y-67181D01*
X171902D01*
Y-66895D01*
X171616D01*
Y-66609D01*
X171330D01*
Y-66322D01*
X170757D01*
Y-66036D01*
X170471D01*
Y-65750D01*
X170184D01*
Y-65464D01*
X169612D01*
Y-65177D01*
X169039D01*
Y-64891D01*
X168753D01*
Y-64605D01*
X168180D01*
Y-64318D01*
X167321D01*
Y-64032D01*
X166749D01*
Y-63746D01*
X165890D01*
Y-63459D01*
X164458D01*
Y-63173D01*
X158159D01*
Y-63459D01*
X157014D01*
Y-63746D01*
X156155D01*
Y-64032D01*
X155582D01*
Y-64318D01*
X155296D01*
Y-64605D01*
X154723D01*
Y-64891D01*
X154437D01*
Y-65177D01*
X154151D01*
Y-65464D01*
X153865D01*
Y-65750D01*
X153578D01*
Y-66036D01*
Y-66322D01*
X153292D01*
Y-66609D01*
Y-66895D01*
X153006D01*
Y-67181D01*
Y-67468D01*
Y-67754D01*
X152719D01*
Y-68040D01*
Y-68327D01*
Y-68613D01*
Y-68899D01*
X152433D01*
Y-69186D01*
Y-69472D01*
Y-69758D01*
Y-70044D01*
Y-70331D01*
Y-70617D01*
Y-70903D01*
Y-71190D01*
Y-71476D01*
Y-71762D01*
Y-72049D01*
Y-72335D01*
Y-72621D01*
Y-72908D01*
Y-73194D01*
Y-73480D01*
Y-73767D01*
Y-74053D01*
X152719D01*
Y-74339D01*
Y-74625D01*
Y-74912D01*
Y-75198D01*
Y-75485D01*
Y-75771D01*
Y-76057D01*
X153006D01*
Y-76343D01*
Y-76630D01*
Y-76916D01*
Y-77202D01*
Y-77489D01*
Y-77775D01*
Y-78061D01*
X153292D01*
Y-78348D01*
Y-78634D01*
Y-78920D01*
Y-79207D01*
Y-79493D01*
Y-79779D01*
X153578D01*
Y-80066D01*
Y-80352D01*
Y-80638D01*
Y-80924D01*
Y-81211D01*
Y-81497D01*
X153865D01*
Y-81783D01*
Y-82070D01*
Y-82356D01*
Y-82642D01*
Y-82929D01*
Y-83215D01*
X154151D01*
Y-83501D01*
Y-83788D01*
Y-84074D01*
Y-84360D01*
Y-84646D01*
Y-84933D01*
Y-85219D01*
X154437D01*
Y-85505D01*
Y-85792D01*
Y-86078D01*
Y-86364D01*
Y-86651D01*
Y-86937D01*
X154723D01*
Y-87223D01*
Y-87510D01*
Y-87796D01*
Y-88082D01*
Y-88369D01*
Y-88655D01*
X155010D01*
Y-88941D01*
Y-89227D01*
Y-89514D01*
Y-89800D01*
Y-90086D01*
Y-90373D01*
Y-90659D01*
X155296D01*
Y-90945D01*
Y-91232D01*
Y-91518D01*
Y-91804D01*
Y-92091D01*
Y-92377D01*
X155582D01*
Y-92663D01*
Y-92950D01*
Y-93236D01*
Y-93522D01*
Y-93809D01*
Y-94095D01*
X155869D01*
Y-94381D01*
Y-94667D01*
Y-94954D01*
Y-95240D01*
Y-95526D01*
Y-95813D01*
X156155D01*
Y-96099D01*
Y-96385D01*
Y-96672D01*
Y-96958D01*
Y-97244D01*
Y-97531D01*
Y-97817D01*
X156441D01*
Y-98103D01*
Y-98390D01*
Y-98676D01*
Y-98962D01*
Y-99248D01*
Y-99535D01*
X156728D01*
Y-99821D01*
Y-100107D01*
X169898D01*
Y-99821D01*
Y-99535D01*
X169612D01*
Y-99248D01*
Y-98962D01*
Y-98676D01*
Y-98390D01*
Y-98103D01*
Y-97817D01*
X169325D01*
Y-97531D01*
Y-97244D01*
Y-96958D01*
Y-96672D01*
Y-96385D01*
Y-96099D01*
Y-95813D01*
X169039D01*
Y-95526D01*
Y-95240D01*
Y-94954D01*
Y-94667D01*
Y-94381D01*
Y-94095D01*
X168753D01*
Y-93809D01*
Y-93522D01*
Y-93236D01*
Y-92950D01*
Y-92663D01*
Y-92377D01*
X168466D01*
Y-92091D01*
Y-91804D01*
Y-91518D01*
Y-91232D01*
Y-90945D01*
Y-90659D01*
Y-90373D01*
X168180D01*
Y-90086D01*
Y-89800D01*
Y-89514D01*
Y-89227D01*
Y-88941D01*
Y-88655D01*
X167894D01*
Y-88369D01*
Y-88082D01*
Y-87796D01*
Y-87510D01*
Y-87223D01*
Y-86937D01*
Y-86651D01*
X167607D01*
Y-86364D01*
Y-86078D01*
Y-85792D01*
Y-85505D01*
Y-85219D01*
Y-84933D01*
X167321D01*
Y-84646D01*
Y-84360D01*
Y-84074D01*
Y-83788D01*
Y-83501D01*
Y-83215D01*
X167035D01*
Y-82929D01*
Y-82642D01*
Y-82356D01*
Y-82070D01*
Y-81783D01*
Y-81497D01*
X166749D01*
Y-81211D01*
Y-80924D01*
Y-80638D01*
Y-80352D01*
Y-80066D01*
Y-79779D01*
Y-79493D01*
X166462D01*
Y-79207D01*
Y-78920D01*
Y-78634D01*
Y-78348D01*
Y-78061D01*
Y-77775D01*
X166176D01*
Y-77489D01*
Y-77202D01*
Y-76916D01*
Y-76630D01*
Y-76343D01*
Y-76057D01*
Y-75771D01*
X165890D01*
Y-75485D01*
Y-75198D01*
Y-74912D01*
Y-74625D01*
Y-74339D01*
Y-74053D01*
X166176D01*
Y-73767D01*
Y-73480D01*
X166462D01*
Y-73194D01*
X166749D01*
Y-72908D01*
X167321D01*
Y-72621D01*
X169039D01*
Y-72908D01*
X170471D01*
Y-73194D01*
X171330D01*
Y-73480D01*
X171902D01*
Y-73767D01*
X172188D01*
Y-74053D01*
X172761D01*
Y-74339D01*
X173047D01*
Y-74625D01*
X173334D01*
Y-74912D01*
Y-75198D01*
X173620D01*
Y-75485D01*
Y-75771D01*
Y-76057D01*
X173906D01*
Y-76343D01*
Y-76630D01*
Y-76916D01*
Y-77202D01*
Y-77489D01*
Y-77775D01*
X174193D01*
Y-78061D01*
Y-78348D01*
Y-78634D01*
Y-78920D01*
Y-79207D01*
Y-79493D01*
Y-79779D01*
X174479D01*
Y-80066D01*
Y-80352D01*
Y-80638D01*
Y-80924D01*
Y-81211D01*
Y-81497D01*
X174765D01*
Y-81783D01*
Y-82070D01*
Y-82356D01*
Y-82642D01*
Y-82929D01*
Y-83215D01*
X175052D01*
Y-83501D01*
Y-83788D01*
Y-84074D01*
Y-84360D01*
Y-84646D01*
Y-84933D01*
X175338D01*
Y-85219D01*
Y-85505D01*
Y-85792D01*
Y-86078D01*
Y-86364D01*
Y-86651D01*
Y-86937D01*
X175624D01*
Y-87223D01*
Y-87510D01*
Y-87796D01*
Y-88082D01*
Y-88369D01*
Y-88655D01*
X175911D01*
Y-88941D01*
Y-89227D01*
Y-89514D01*
Y-89800D01*
Y-90086D01*
Y-90373D01*
X176197D01*
Y-90659D01*
Y-90945D01*
Y-91232D01*
Y-91518D01*
Y-91804D01*
Y-92091D01*
Y-92377D01*
X176483D01*
Y-92663D01*
Y-92950D01*
Y-93236D01*
Y-93522D01*
Y-93809D01*
Y-94095D01*
X176769D01*
Y-94381D01*
Y-94667D01*
Y-94954D01*
Y-95240D01*
Y-95526D01*
Y-95813D01*
X177056D01*
Y-96099D01*
Y-96385D01*
Y-96672D01*
Y-96958D01*
Y-97244D01*
Y-97531D01*
X177342D01*
Y-97817D01*
Y-98103D01*
Y-98390D01*
Y-98676D01*
Y-98962D01*
Y-99248D01*
Y-99535D01*
X177628D01*
Y-99821D01*
Y-100107D01*
X190799D01*
Y-99821D01*
Y-99535D01*
X190513D01*
Y-99248D01*
Y-98962D01*
Y-98676D01*
Y-98390D01*
Y-98103D01*
Y-97817D01*
Y-97531D01*
X190226D01*
Y-97244D01*
Y-96958D01*
Y-96672D01*
Y-96385D01*
Y-96099D01*
Y-95813D01*
X189940D01*
Y-95526D01*
Y-95240D01*
Y-94954D01*
Y-94667D01*
Y-94381D01*
Y-94095D01*
X189654D01*
Y-93809D01*
Y-93522D01*
Y-93236D01*
Y-92950D01*
Y-92663D01*
Y-92377D01*
Y-92091D01*
X189367D01*
Y-91804D01*
Y-91518D01*
Y-91232D01*
Y-90945D01*
Y-90659D01*
Y-90373D01*
X189081D01*
Y-90086D01*
Y-89800D01*
Y-89514D01*
Y-89227D01*
Y-88941D01*
Y-88655D01*
X188795D01*
Y-88369D01*
Y-88082D01*
Y-87796D01*
Y-87510D01*
Y-87223D01*
Y-86937D01*
X188508D01*
Y-86651D01*
Y-86364D01*
Y-86078D01*
Y-85792D01*
Y-85505D01*
Y-85219D01*
Y-84933D01*
X188222D01*
Y-84646D01*
Y-84360D01*
Y-84074D01*
Y-83788D01*
Y-83501D01*
Y-83215D01*
X187936D01*
Y-82929D01*
Y-82642D01*
Y-82356D01*
Y-82070D01*
Y-81783D01*
Y-81497D01*
X187649D01*
Y-81211D01*
Y-80924D01*
Y-80638D01*
Y-80352D01*
Y-80066D01*
Y-79779D01*
Y-79493D01*
X187363D01*
Y-79207D01*
Y-78920D01*
Y-78634D01*
Y-78348D01*
Y-78061D01*
Y-77775D01*
X187077D01*
Y-77489D01*
Y-77202D01*
Y-76916D01*
Y-76630D01*
Y-76343D01*
Y-76057D01*
X186791D01*
Y-75771D01*
Y-75485D01*
Y-75198D01*
Y-74912D01*
Y-74625D01*
Y-74339D01*
X186504D01*
Y-74053D01*
Y-73767D01*
Y-73480D01*
Y-73194D01*
Y-72908D01*
Y-72621D01*
Y-72335D01*
X186218D01*
Y-72049D01*
Y-71762D01*
Y-71476D01*
Y-71190D01*
Y-70903D01*
Y-70617D01*
X185932D01*
Y-70331D01*
Y-70044D01*
Y-69758D01*
Y-69472D01*
Y-69186D01*
Y-68899D01*
X185645D01*
Y-68613D01*
Y-68327D01*
Y-68040D01*
Y-67754D01*
Y-67468D01*
Y-67181D01*
X185359D01*
Y-66895D01*
Y-66609D01*
Y-66322D01*
Y-66036D01*
Y-65750D01*
Y-65464D01*
Y-65177D01*
X185073D01*
Y-64891D01*
Y-64605D01*
Y-64318D01*
Y-64032D01*
Y-63746D01*
Y-63459D01*
X184786D01*
Y-63173D01*
Y-62887D01*
Y-62600D01*
Y-62314D01*
Y-62028D01*
Y-61742D01*
X184500D01*
Y-61455D01*
Y-61169D01*
Y-60883D01*
Y-60596D01*
Y-60310D01*
Y-60024D01*
Y-59737D01*
X184214D01*
Y-59451D01*
Y-59165D01*
Y-58878D01*
Y-58592D01*
Y-58306D01*
Y-58019D01*
X183927D01*
Y-57733D01*
Y-57447D01*
Y-57161D01*
Y-56874D01*
Y-56588D01*
Y-56301D01*
X183641D01*
Y-56015D01*
Y-55729D01*
Y-55443D01*
Y-55156D01*
Y-54870D01*
Y-54584D01*
X183355D01*
Y-54297D01*
Y-54011D01*
Y-53725D01*
Y-53438D01*
Y-53152D01*
Y-52866D01*
Y-52579D01*
X183068D01*
Y-52293D01*
Y-52007D01*
Y-51720D01*
Y-51434D01*
Y-51148D01*
Y-50862D01*
X182782D01*
Y-50575D01*
Y-50289D01*
Y-50003D01*
Y-49716D01*
Y-49430D01*
Y-49144D01*
X182496D01*
Y-48857D01*
Y-48571D01*
Y-48285D01*
Y-47998D01*
Y-47712D01*
Y-47426D01*
Y-47139D01*
X182209D01*
Y-46853D01*
Y-46567D01*
Y-46281D01*
X169039D01*
Y-46567D01*
D02*
G37*
G36*
X67112Y-64032D02*
X67398D01*
Y-64318D01*
X67684D01*
Y-64605D01*
Y-64891D01*
X67971D01*
Y-65177D01*
X68257D01*
Y-65464D01*
X68543D01*
Y-65750D01*
Y-66036D01*
X68830D01*
Y-66322D01*
X69116D01*
Y-66609D01*
X69402D01*
Y-66895D01*
X69688D01*
Y-67181D01*
Y-67468D01*
X69975D01*
Y-67754D01*
X70261D01*
Y-68040D01*
X70547D01*
Y-68327D01*
Y-68613D01*
X70834D01*
Y-68899D01*
X71120D01*
Y-69186D01*
X71406D01*
Y-69472D01*
X71693D01*
Y-69758D01*
Y-70044D01*
X71979D01*
Y-70331D01*
X72265D01*
Y-70617D01*
X72552D01*
Y-70903D01*
Y-71190D01*
X72838D01*
Y-71476D01*
X73124D01*
Y-71762D01*
X73411D01*
Y-72049D01*
Y-72335D01*
X73697D01*
Y-72621D01*
X73983D01*
Y-72908D01*
X74269D01*
Y-73194D01*
X74556D01*
Y-73480D01*
Y-73767D01*
X74842D01*
Y-74053D01*
X75128D01*
Y-74339D01*
X75415D01*
Y-74625D01*
Y-74912D01*
X75701D01*
Y-75198D01*
X75987D01*
Y-75485D01*
X76274D01*
Y-75771D01*
Y-76057D01*
X76560D01*
Y-76343D01*
X76846D01*
Y-76630D01*
X77133D01*
Y-76916D01*
X77419D01*
Y-77202D01*
Y-77489D01*
X77705D01*
Y-77775D01*
X77992D01*
Y-78061D01*
X78278D01*
Y-78348D01*
Y-78634D01*
X78564D01*
Y-78920D01*
X78851D01*
Y-79207D01*
X79137D01*
Y-79493D01*
Y-79779D01*
X79423D01*
Y-80066D01*
X79710D01*
Y-80352D01*
X79996D01*
Y-80638D01*
X80282D01*
Y-80924D01*
Y-81211D01*
X80568D01*
Y-81497D01*
X80855D01*
Y-81783D01*
X81141D01*
Y-82070D01*
Y-82356D01*
X81427D01*
Y-82642D01*
X81714D01*
Y-82929D01*
X82000D01*
Y-83215D01*
X82286D01*
Y-83501D01*
Y-83788D01*
X82000D01*
Y-84074D01*
Y-84360D01*
X81714D01*
Y-84646D01*
Y-84933D01*
X81427D01*
Y-85219D01*
X81141D01*
Y-85505D01*
Y-85792D01*
X80855D01*
Y-86078D01*
Y-86364D01*
X80568D01*
Y-86651D01*
Y-86937D01*
X80282D01*
Y-87223D01*
Y-87510D01*
X79996D01*
Y-87796D01*
Y-88082D01*
X79710D01*
Y-88369D01*
Y-88655D01*
X79423D01*
Y-88941D01*
Y-89227D01*
X79137D01*
Y-89514D01*
Y-89800D01*
X78851D01*
Y-90086D01*
X78564D01*
Y-90373D01*
Y-90659D01*
X78278D01*
Y-90945D01*
Y-91232D01*
X77992D01*
Y-91518D01*
Y-91804D01*
X77705D01*
Y-92091D01*
Y-92377D01*
X77419D01*
Y-92663D01*
Y-92950D01*
X77133D01*
Y-93236D01*
Y-93522D01*
X76846D01*
Y-93809D01*
Y-94095D01*
X76560D01*
Y-94381D01*
X76274D01*
Y-94667D01*
Y-94954D01*
X75987D01*
Y-95240D01*
Y-95526D01*
X75701D01*
Y-95813D01*
Y-96099D01*
X75415D01*
Y-96385D01*
Y-96672D01*
X75128D01*
Y-96958D01*
Y-97244D01*
X74842D01*
Y-97531D01*
Y-97817D01*
X74556D01*
Y-98103D01*
Y-98390D01*
X74269D01*
Y-98676D01*
X73983D01*
Y-98962D01*
Y-99248D01*
X73697D01*
Y-99535D01*
Y-99821D01*
X73411D01*
Y-100107D01*
X88585D01*
Y-99821D01*
X88872D01*
Y-99535D01*
Y-99248D01*
Y-98962D01*
X89158D01*
Y-98676D01*
Y-98390D01*
Y-98103D01*
X89444D01*
Y-97817D01*
Y-97531D01*
X89730D01*
Y-97244D01*
Y-96958D01*
Y-96672D01*
X90017D01*
Y-96385D01*
Y-96099D01*
Y-95813D01*
X90303D01*
Y-95526D01*
Y-95240D01*
X90589D01*
Y-94954D01*
Y-94667D01*
Y-94381D01*
X90876D01*
Y-94095D01*
Y-93809D01*
Y-93522D01*
X91162D01*
Y-93236D01*
Y-92950D01*
Y-92663D01*
X91448D01*
Y-92377D01*
X92021D01*
Y-92663D01*
Y-92950D01*
X92307D01*
Y-93236D01*
X92593D01*
Y-93522D01*
Y-93809D01*
X92880D01*
Y-94095D01*
X93166D01*
Y-94381D01*
Y-94667D01*
X93453D01*
Y-94954D01*
X93739D01*
Y-95240D01*
Y-95526D01*
X94025D01*
Y-95813D01*
X94311D01*
Y-96099D01*
X94598D01*
Y-96385D01*
Y-96672D01*
X94884D01*
Y-96958D01*
X95170D01*
Y-97244D01*
Y-97531D01*
X95457D01*
Y-97817D01*
X95743D01*
Y-98103D01*
Y-98390D01*
X96029D01*
Y-98676D01*
X96316D01*
Y-98962D01*
Y-99248D01*
X96602D01*
Y-99535D01*
X96888D01*
Y-99821D01*
Y-100107D01*
X112922D01*
Y-99821D01*
X112635D01*
Y-99535D01*
X112349D01*
Y-99248D01*
X112063D01*
Y-98962D01*
X111776D01*
Y-98676D01*
Y-98390D01*
X111490D01*
Y-98103D01*
X111204D01*
Y-97817D01*
X110918D01*
Y-97531D01*
X110631D01*
Y-97244D01*
Y-96958D01*
X110345D01*
Y-96672D01*
X110059D01*
Y-96385D01*
X109772D01*
Y-96099D01*
Y-95813D01*
X109486D01*
Y-95526D01*
X109200D01*
Y-95240D01*
X108913D01*
Y-94954D01*
X108627D01*
Y-94667D01*
Y-94381D01*
X108341D01*
Y-94095D01*
X108054D01*
Y-93809D01*
X107768D01*
Y-93522D01*
X107482D01*
Y-93236D01*
Y-92950D01*
X107195D01*
Y-92663D01*
X106909D01*
Y-92377D01*
X106623D01*
Y-92091D01*
Y-91804D01*
X106336D01*
Y-91518D01*
X106050D01*
Y-91232D01*
X105764D01*
Y-90945D01*
X105478D01*
Y-90659D01*
Y-90373D01*
X105191D01*
Y-90086D01*
X104905D01*
Y-89800D01*
X104619D01*
Y-89514D01*
Y-89227D01*
X104332D01*
Y-88941D01*
X104046D01*
Y-88655D01*
X103760D01*
Y-88369D01*
X103473D01*
Y-88082D01*
Y-87796D01*
X103187D01*
Y-87510D01*
X102901D01*
Y-87223D01*
X102614D01*
Y-86937D01*
Y-86651D01*
X102328D01*
Y-86364D01*
X102042D01*
Y-86078D01*
X101755D01*
Y-85792D01*
X101469D01*
Y-85505D01*
Y-85219D01*
X101183D01*
Y-84933D01*
X100897D01*
Y-84646D01*
X100610D01*
Y-84360D01*
X100324D01*
Y-84074D01*
Y-83788D01*
X100038D01*
Y-83501D01*
X99751D01*
Y-83215D01*
X99465D01*
Y-82929D01*
Y-82642D01*
X99179D01*
Y-82356D01*
X98892D01*
Y-82070D01*
X98606D01*
Y-81783D01*
X98320D01*
Y-81497D01*
Y-81211D01*
X98033D01*
Y-80924D01*
Y-80638D01*
Y-80352D01*
X98320D01*
Y-80066D01*
X98606D01*
Y-79779D01*
Y-79493D01*
X98892D01*
Y-79207D01*
Y-78920D01*
X99179D01*
Y-78634D01*
Y-78348D01*
X99465D01*
Y-78061D01*
Y-77775D01*
X99751D01*
Y-77489D01*
Y-77202D01*
X100038D01*
Y-76916D01*
Y-76630D01*
X100324D01*
Y-76343D01*
X100610D01*
Y-76057D01*
Y-75771D01*
X100897D01*
Y-75485D01*
Y-75198D01*
X101183D01*
Y-74912D01*
Y-74625D01*
X101469D01*
Y-74339D01*
Y-74053D01*
X101755D01*
Y-73767D01*
Y-73480D01*
X102042D01*
Y-73194D01*
Y-72908D01*
X102328D01*
Y-72621D01*
X102614D01*
Y-72335D01*
Y-72049D01*
X102901D01*
Y-71762D01*
Y-71476D01*
X103187D01*
Y-71190D01*
Y-70903D01*
X103473D01*
Y-70617D01*
Y-70331D01*
X103760D01*
Y-70044D01*
Y-69758D01*
X104046D01*
Y-69472D01*
Y-69186D01*
X104332D01*
Y-68899D01*
Y-68613D01*
X104619D01*
Y-68327D01*
X104905D01*
Y-68040D01*
Y-67754D01*
X105191D01*
Y-67468D01*
Y-67181D01*
X105478D01*
Y-66895D01*
Y-66609D01*
X105764D01*
Y-66322D01*
Y-66036D01*
X106050D01*
Y-65750D01*
Y-65464D01*
X106336D01*
Y-65177D01*
Y-64891D01*
X106623D01*
Y-64605D01*
X106909D01*
Y-64318D01*
Y-64032D01*
X107195D01*
Y-63746D01*
X91448D01*
Y-64032D01*
X91162D01*
Y-64318D01*
Y-64605D01*
Y-64891D01*
X90876D01*
Y-65177D01*
Y-65464D01*
Y-65750D01*
X90589D01*
Y-66036D01*
Y-66322D01*
Y-66609D01*
X90303D01*
Y-66895D01*
Y-67181D01*
Y-67468D01*
X90017D01*
Y-67754D01*
Y-68040D01*
Y-68327D01*
X89730D01*
Y-68613D01*
Y-68899D01*
Y-69186D01*
X89444D01*
Y-69472D01*
Y-69758D01*
Y-70044D01*
X89158D01*
Y-70331D01*
Y-70617D01*
Y-70903D01*
X88872D01*
Y-71190D01*
Y-71476D01*
Y-71762D01*
Y-72049D01*
X88299D01*
Y-71762D01*
X88012D01*
Y-71476D01*
X87726D01*
Y-71190D01*
Y-70903D01*
X87440D01*
Y-70617D01*
X87154D01*
Y-70331D01*
Y-70044D01*
X86867D01*
Y-69758D01*
X86581D01*
Y-69472D01*
Y-69186D01*
X86295D01*
Y-68899D01*
X86008D01*
Y-68613D01*
Y-68327D01*
X85722D01*
Y-68040D01*
X85436D01*
Y-67754D01*
Y-67468D01*
X85149D01*
Y-67181D01*
X84863D01*
Y-66895D01*
Y-66609D01*
X84577D01*
Y-66322D01*
X84290D01*
Y-66036D01*
Y-65750D01*
X84004D01*
Y-65464D01*
X83718D01*
Y-65177D01*
Y-64891D01*
X83432D01*
Y-64605D01*
X83145D01*
Y-64318D01*
Y-64032D01*
X82859D01*
Y-63746D01*
X67112D01*
Y-64032D01*
D02*
G37*
G36*
X111204D02*
Y-64318D01*
Y-64605D01*
Y-64891D01*
Y-65177D01*
Y-65464D01*
Y-65750D01*
Y-66036D01*
Y-66322D01*
Y-66609D01*
Y-66895D01*
Y-67181D01*
Y-67468D01*
Y-67754D01*
Y-68040D01*
Y-68327D01*
Y-68613D01*
Y-68899D01*
Y-69186D01*
Y-69472D01*
Y-69758D01*
X111490D01*
Y-70044D01*
Y-70331D01*
Y-70617D01*
Y-70903D01*
Y-71190D01*
X111776D01*
Y-71476D01*
Y-71762D01*
Y-72049D01*
Y-72335D01*
X112063D01*
Y-72621D01*
Y-72908D01*
Y-73194D01*
Y-73480D01*
X112349D01*
Y-73767D01*
Y-74053D01*
Y-74339D01*
X112635D01*
Y-74625D01*
Y-74912D01*
Y-75198D01*
X112922D01*
Y-75485D01*
Y-75771D01*
Y-76057D01*
X113208D01*
Y-76343D01*
Y-76630D01*
Y-76916D01*
X113494D01*
Y-77202D01*
Y-77489D01*
X113781D01*
Y-77775D01*
Y-78061D01*
X114067D01*
Y-78348D01*
Y-78634D01*
Y-78920D01*
X114353D01*
Y-79207D01*
Y-79493D01*
X114640D01*
Y-79779D01*
Y-80066D01*
Y-80352D01*
X114926D01*
Y-80638D01*
Y-80924D01*
X115212D01*
Y-81211D01*
Y-81497D01*
Y-81783D01*
X115499D01*
Y-82070D01*
Y-82356D01*
X115785D01*
Y-82642D01*
Y-82929D01*
Y-83215D01*
X116071D01*
Y-83501D01*
Y-83788D01*
X116358D01*
Y-84074D01*
Y-84360D01*
Y-84646D01*
X116644D01*
Y-84933D01*
Y-85219D01*
X116930D01*
Y-85505D01*
Y-85792D01*
Y-86078D01*
X117216D01*
Y-86364D01*
Y-86651D01*
X117503D01*
Y-86937D01*
Y-87223D01*
Y-87510D01*
X117789D01*
Y-87796D01*
Y-88082D01*
X118075D01*
Y-88369D01*
Y-88655D01*
Y-88941D01*
X118362D01*
Y-89227D01*
Y-89514D01*
X118648D01*
Y-89800D01*
Y-90086D01*
Y-90373D01*
X118934D01*
Y-90659D01*
Y-90945D01*
X119221D01*
Y-91232D01*
Y-91518D01*
Y-91804D01*
X119507D01*
Y-92091D01*
Y-92377D01*
X119793D01*
Y-92663D01*
Y-92950D01*
Y-93236D01*
X120080D01*
Y-93522D01*
Y-93809D01*
X120366D01*
Y-94095D01*
Y-94381D01*
Y-94667D01*
X120652D01*
Y-94954D01*
Y-95240D01*
X120939D01*
Y-95526D01*
Y-95813D01*
Y-96099D01*
X121225D01*
Y-96385D01*
Y-96672D01*
X121511D01*
Y-96958D01*
Y-97244D01*
Y-97531D01*
X121797D01*
Y-97817D01*
Y-98103D01*
X122084D01*
Y-98390D01*
Y-98676D01*
Y-98962D01*
X122370D01*
Y-99248D01*
Y-99535D01*
X122656D01*
Y-99821D01*
Y-100107D01*
Y-100394D01*
X122943D01*
Y-100680D01*
Y-100966D01*
X123229D01*
Y-101253D01*
Y-101539D01*
X123515D01*
Y-101825D01*
Y-102112D01*
X123802D01*
Y-102398D01*
Y-102684D01*
Y-102971D01*
X124088D01*
Y-103257D01*
X124374D01*
Y-103543D01*
Y-103829D01*
Y-104116D01*
X124661D01*
Y-104402D01*
X124947D01*
Y-104688D01*
Y-104975D01*
X125233D01*
Y-105261D01*
Y-105547D01*
X125520D01*
Y-105834D01*
Y-106120D01*
X125806D01*
Y-106406D01*
Y-106693D01*
X126092D01*
Y-106979D01*
X126378D01*
Y-107265D01*
Y-107552D01*
X126665D01*
Y-107838D01*
Y-108124D01*
X126951D01*
Y-108410D01*
X127237D01*
Y-108697D01*
X127524D01*
Y-108983D01*
Y-109269D01*
X127810D01*
Y-109556D01*
X128096D01*
Y-109842D01*
Y-110128D01*
X128383D01*
Y-110415D01*
X128669D01*
Y-110701D01*
X128955D01*
Y-110987D01*
Y-111274D01*
X129242D01*
Y-111560D01*
X129528D01*
Y-111846D01*
X129814D01*
Y-112133D01*
X130101D01*
Y-112419D01*
X130387D01*
Y-112705D01*
Y-112991D01*
X130673D01*
Y-113278D01*
X130959D01*
Y-113564D01*
X131246D01*
Y-113850D01*
X131532D01*
Y-114137D01*
X131818D01*
Y-114423D01*
X132105D01*
Y-114709D01*
X132391D01*
Y-114996D01*
X132964D01*
Y-115282D01*
X133250D01*
Y-115568D01*
X133536D01*
Y-115855D01*
X133823D01*
Y-116141D01*
X134109D01*
Y-116427D01*
X134681D01*
Y-116714D01*
X134968D01*
Y-117000D01*
X135540D01*
Y-117286D01*
X135827D01*
Y-117572D01*
X136399D01*
Y-117859D01*
X136686D01*
Y-118145D01*
X137258D01*
Y-118431D01*
X137831D01*
Y-118718D01*
X138404D01*
Y-119004D01*
X138976D01*
Y-119290D01*
X139549D01*
Y-119577D01*
X140408D01*
Y-119863D01*
X140980D01*
Y-120149D01*
X141839D01*
Y-120436D01*
X142985D01*
Y-120722D01*
X144130D01*
Y-121008D01*
X145848D01*
Y-121294D01*
X147852D01*
Y-121581D01*
X148138D01*
Y-121294D01*
Y-121008D01*
Y-120722D01*
Y-120436D01*
Y-120149D01*
Y-119863D01*
Y-119577D01*
Y-119290D01*
Y-119004D01*
Y-118718D01*
Y-118431D01*
Y-118145D01*
Y-117859D01*
Y-117572D01*
Y-117286D01*
Y-117000D01*
Y-116714D01*
Y-116427D01*
Y-116141D01*
Y-115855D01*
Y-115568D01*
Y-115282D01*
Y-114996D01*
Y-114709D01*
Y-114423D01*
Y-114137D01*
Y-113850D01*
Y-113564D01*
Y-113278D01*
Y-112991D01*
Y-112705D01*
Y-112419D01*
Y-112133D01*
X147566D01*
Y-111846D01*
X146993D01*
Y-111560D01*
X146420D01*
Y-111274D01*
X145848D01*
Y-110987D01*
X145275D01*
Y-110701D01*
X144702D01*
Y-110415D01*
X144416D01*
Y-110128D01*
X143843D01*
Y-109842D01*
X143557D01*
Y-109556D01*
X142985D01*
Y-109269D01*
X142698D01*
Y-108983D01*
X142412D01*
Y-108697D01*
X141839D01*
Y-108410D01*
X141553D01*
Y-108124D01*
X141267D01*
Y-107838D01*
X140980D01*
Y-107552D01*
X140694D01*
Y-107265D01*
X140408D01*
Y-106979D01*
X140121D01*
Y-106693D01*
X139835D01*
Y-106406D01*
X139549D01*
Y-106120D01*
X139262D01*
Y-105834D01*
X138976D01*
Y-105547D01*
X138690D01*
Y-105261D01*
Y-104975D01*
X138404D01*
Y-104688D01*
X138117D01*
Y-104402D01*
X137831D01*
Y-104116D01*
Y-103829D01*
X137545D01*
Y-103543D01*
X137258D01*
Y-103257D01*
Y-102971D01*
X136972D01*
Y-102684D01*
Y-102398D01*
X136686D01*
Y-102112D01*
X136399D01*
Y-101825D01*
Y-101539D01*
X136113D01*
Y-101253D01*
Y-100966D01*
X135827D01*
Y-100680D01*
Y-100394D01*
X137545D01*
Y-100107D01*
X139549D01*
Y-99821D01*
X140694D01*
Y-99535D01*
X141267D01*
Y-99248D01*
X142126D01*
Y-98962D01*
X142698D01*
Y-98676D01*
X142985D01*
Y-98390D01*
X143557D01*
Y-98103D01*
X143843D01*
Y-97817D01*
X144130D01*
Y-97531D01*
X144416D01*
Y-97244D01*
X144702D01*
Y-96958D01*
X144989D01*
Y-96672D01*
Y-96385D01*
X145275D01*
Y-96099D01*
X145561D01*
Y-95813D01*
Y-95526D01*
X145848D01*
Y-95240D01*
Y-94954D01*
X146134D01*
Y-94667D01*
Y-94381D01*
X146420D01*
Y-94095D01*
Y-93809D01*
Y-93522D01*
X146707D01*
Y-93236D01*
Y-92950D01*
Y-92663D01*
Y-92377D01*
X146993D01*
Y-92091D01*
Y-91804D01*
Y-91518D01*
Y-91232D01*
Y-90945D01*
Y-90659D01*
Y-90373D01*
X147279D01*
Y-90086D01*
Y-89800D01*
Y-89514D01*
Y-89227D01*
Y-88941D01*
Y-88655D01*
Y-88369D01*
Y-88082D01*
Y-87796D01*
Y-87510D01*
Y-87223D01*
Y-86937D01*
Y-86651D01*
Y-86364D01*
Y-86078D01*
X147566D01*
Y-85792D01*
Y-85505D01*
Y-85219D01*
Y-84933D01*
Y-84646D01*
Y-84360D01*
Y-84074D01*
Y-83788D01*
Y-83501D01*
Y-83215D01*
Y-82929D01*
Y-82642D01*
Y-82356D01*
Y-82070D01*
Y-81783D01*
X147852D01*
Y-81497D01*
Y-81211D01*
Y-80924D01*
Y-80638D01*
Y-80352D01*
Y-80066D01*
Y-79779D01*
Y-79493D01*
Y-79207D01*
Y-78920D01*
Y-78634D01*
Y-78348D01*
Y-78061D01*
Y-77775D01*
Y-77489D01*
Y-77202D01*
X148138D01*
Y-76916D01*
Y-76630D01*
Y-76343D01*
Y-76057D01*
Y-75771D01*
Y-75485D01*
Y-75198D01*
Y-74912D01*
Y-74625D01*
Y-74339D01*
Y-74053D01*
Y-73767D01*
Y-73480D01*
Y-73194D01*
Y-72908D01*
Y-72621D01*
X148424D01*
Y-72335D01*
Y-72049D01*
Y-71762D01*
Y-71476D01*
Y-71190D01*
Y-70903D01*
Y-70617D01*
Y-70331D01*
Y-70044D01*
Y-69758D01*
Y-69472D01*
Y-69186D01*
Y-68899D01*
Y-68613D01*
X148711D01*
Y-68327D01*
Y-68040D01*
Y-67754D01*
Y-67468D01*
Y-67181D01*
Y-66895D01*
Y-66609D01*
Y-66322D01*
Y-66036D01*
Y-65750D01*
Y-65464D01*
Y-65177D01*
Y-64891D01*
Y-64605D01*
Y-64318D01*
Y-64032D01*
X148997D01*
Y-63746D01*
X135254D01*
Y-64032D01*
Y-64318D01*
Y-64605D01*
Y-64891D01*
Y-65177D01*
Y-65464D01*
Y-65750D01*
Y-66036D01*
Y-66322D01*
Y-66609D01*
Y-66895D01*
Y-67181D01*
Y-67468D01*
Y-67754D01*
X134968D01*
Y-68040D01*
Y-68327D01*
Y-68613D01*
Y-68899D01*
Y-69186D01*
Y-69472D01*
Y-69758D01*
Y-70044D01*
Y-70331D01*
Y-70617D01*
Y-70903D01*
Y-71190D01*
Y-71476D01*
Y-71762D01*
Y-72049D01*
Y-72335D01*
Y-72621D01*
Y-72908D01*
Y-73194D01*
Y-73480D01*
Y-73767D01*
Y-74053D01*
Y-74339D01*
Y-74625D01*
Y-74912D01*
Y-75198D01*
Y-75485D01*
Y-75771D01*
Y-76057D01*
Y-76343D01*
Y-76630D01*
Y-76916D01*
Y-77202D01*
Y-77489D01*
Y-77775D01*
Y-78061D01*
Y-78348D01*
Y-78634D01*
Y-78920D01*
Y-79207D01*
Y-79493D01*
X134681D01*
Y-79779D01*
X134968D01*
Y-80066D01*
Y-80352D01*
X134681D01*
Y-80638D01*
Y-80924D01*
Y-81211D01*
Y-81497D01*
Y-81783D01*
Y-82070D01*
Y-82356D01*
Y-82642D01*
Y-82929D01*
Y-83215D01*
Y-83501D01*
Y-83788D01*
Y-84074D01*
Y-84360D01*
Y-84646D01*
Y-84933D01*
Y-85219D01*
Y-85505D01*
Y-85792D01*
Y-86078D01*
Y-86364D01*
Y-86651D01*
Y-86937D01*
Y-87223D01*
Y-87510D01*
Y-87796D01*
X134395D01*
Y-88082D01*
Y-88369D01*
Y-88655D01*
X134109D01*
Y-88941D01*
X133823D01*
Y-89227D01*
X133536D01*
Y-89514D01*
X132677D01*
Y-89800D01*
X131818D01*
Y-89514D01*
X131532D01*
Y-89227D01*
Y-88941D01*
Y-88655D01*
X131246D01*
Y-88369D01*
Y-88082D01*
X130959D01*
Y-87796D01*
Y-87510D01*
Y-87223D01*
X130673D01*
Y-86937D01*
Y-86651D01*
Y-86364D01*
X130387D01*
Y-86078D01*
Y-85792D01*
Y-85505D01*
X130101D01*
Y-85219D01*
Y-84933D01*
Y-84646D01*
X129814D01*
Y-84360D01*
Y-84074D01*
X129528D01*
Y-83788D01*
Y-83501D01*
Y-83215D01*
X129242D01*
Y-82929D01*
Y-82642D01*
Y-82356D01*
X128955D01*
Y-82070D01*
Y-81783D01*
Y-81497D01*
X128669D01*
Y-81211D01*
Y-80924D01*
X128383D01*
Y-80638D01*
Y-80352D01*
Y-80066D01*
X128096D01*
Y-79779D01*
Y-79493D01*
Y-79207D01*
X127810D01*
Y-78920D01*
Y-78634D01*
Y-78348D01*
X127524D01*
Y-78061D01*
Y-77775D01*
X127237D01*
Y-77489D01*
Y-77202D01*
Y-76916D01*
X126951D01*
Y-76630D01*
Y-76343D01*
Y-76057D01*
X126665D01*
Y-75771D01*
Y-75485D01*
Y-75198D01*
X126378D01*
Y-74912D01*
Y-74625D01*
X126092D01*
Y-74339D01*
Y-74053D01*
Y-73767D01*
X125806D01*
Y-73480D01*
Y-73194D01*
Y-72908D01*
X125520D01*
Y-72621D01*
Y-72335D01*
Y-72049D01*
X125233D01*
Y-71762D01*
Y-71476D01*
Y-71190D01*
Y-70903D01*
X124947D01*
Y-70617D01*
Y-70331D01*
Y-70044D01*
Y-69758D01*
X124661D01*
Y-69472D01*
Y-69186D01*
Y-68899D01*
Y-68613D01*
Y-68327D01*
X124374D01*
Y-68040D01*
Y-67754D01*
Y-67468D01*
Y-67181D01*
Y-66895D01*
Y-66609D01*
X124088D01*
Y-66322D01*
Y-66036D01*
Y-65750D01*
Y-65464D01*
Y-65177D01*
Y-64891D01*
Y-64605D01*
Y-64318D01*
Y-64032D01*
Y-63746D01*
X111204D01*
Y-64032D01*
D02*
G37*
%LPC*%
G36*
X204542Y-60883D02*
X212559D01*
Y-61169D01*
Y-61455D01*
Y-61742D01*
Y-62028D01*
Y-62314D01*
X212845D01*
Y-62600D01*
Y-62887D01*
Y-63173D01*
Y-63459D01*
Y-63746D01*
Y-64032D01*
X213131D01*
Y-64318D01*
Y-64605D01*
Y-64891D01*
Y-65177D01*
Y-65464D01*
Y-65750D01*
X213418D01*
Y-66036D01*
Y-66322D01*
Y-66609D01*
Y-66895D01*
Y-67181D01*
Y-67468D01*
X213704D01*
Y-67754D01*
Y-68040D01*
Y-68327D01*
Y-68613D01*
Y-68899D01*
Y-69186D01*
Y-69472D01*
X213990D01*
Y-69758D01*
Y-70044D01*
Y-70331D01*
Y-70617D01*
Y-70903D01*
Y-71190D01*
X214277D01*
Y-71476D01*
Y-71762D01*
Y-72049D01*
X207119D01*
Y-71762D01*
X205973D01*
Y-71476D01*
X205401D01*
Y-71190D01*
X205115D01*
Y-70903D01*
X204828D01*
Y-70617D01*
X204542D01*
Y-70331D01*
X204256D01*
Y-70044D01*
Y-69758D01*
X203969D01*
Y-69472D01*
Y-69186D01*
X203683D01*
Y-68899D01*
Y-68613D01*
X203397D01*
Y-68327D01*
Y-68040D01*
Y-67754D01*
Y-67468D01*
X203110D01*
Y-67181D01*
Y-66895D01*
Y-66609D01*
Y-66322D01*
Y-66036D01*
X202824D01*
Y-65750D01*
Y-65464D01*
Y-65177D01*
Y-64891D01*
Y-64605D01*
Y-64318D01*
Y-64032D01*
Y-63746D01*
Y-63459D01*
Y-63173D01*
Y-62887D01*
X203110D01*
Y-62600D01*
Y-62314D01*
X203397D01*
Y-62028D01*
Y-61742D01*
X203683D01*
Y-61455D01*
X203969D01*
Y-61169D01*
X204542D01*
Y-60883D01*
D02*
G37*
%LPD*%
D12*
X29528Y-76776D02*
Y-90551D01*
X22640D01*
X20344Y-88255D01*
Y-85960D01*
X22640Y-83664D01*
X29528D01*
X22640D01*
X20344Y-81368D01*
Y-79072D01*
X22640Y-76776D01*
X29528D01*
X13457Y-90551D02*
X8865D01*
X6569Y-88255D01*
Y-83664D01*
X8865Y-81368D01*
X13457D01*
X15753Y-83664D01*
Y-88255D01*
X13457Y-90551D01*
X-319Y-79072D02*
Y-81368D01*
X1977D01*
X-2614D01*
X-319D01*
Y-88255D01*
X-2614Y-90551D01*
X-11798Y-79072D02*
Y-81368D01*
X-9502D01*
X-14094D01*
X-11798D01*
Y-88255D01*
X-14094Y-90551D01*
X-23277D02*
X-27869D01*
X-30165Y-88255D01*
Y-83664D01*
X-27869Y-81368D01*
X-23277D01*
X-20981Y-83664D01*
Y-88255D01*
X-23277Y-90551D01*
X-34756D02*
Y-81368D01*
X-37052D01*
X-39348Y-83664D01*
Y-90551D01*
Y-83664D01*
X-41644Y-81368D01*
X-43940Y-83664D01*
Y-90551D01*
X-62306D02*
Y-76776D01*
X-69194D01*
X-71490Y-79072D01*
Y-83664D01*
X-69194Y-85960D01*
X-62306D01*
X-78377Y-81368D02*
X-82969D01*
X-85265Y-83664D01*
Y-90551D01*
X-78377D01*
X-76081Y-88255D01*
X-78377Y-85960D01*
X-85265D01*
X-89856Y-90551D02*
X-96744D01*
X-99040Y-88255D01*
X-96744Y-85960D01*
X-92152D01*
X-89856Y-83664D01*
X-92152Y-81368D01*
X-99040D01*
X-105927Y-79072D02*
Y-81368D01*
X-103632D01*
X-108223D01*
X-105927D01*
Y-88255D01*
X-108223Y-90551D01*
X-121998D02*
X-117407D01*
X-115111Y-88255D01*
Y-83664D01*
X-117407Y-81368D01*
X-121998D01*
X-124294Y-83664D01*
Y-85960D01*
X-115111D01*
X30843Y-40031D02*
X33467Y-37407D01*
X38715D01*
X41339Y-40031D01*
Y-42654D01*
X38715Y-45278D01*
X33467D01*
X30843Y-47902D01*
Y-50526D01*
X33467Y-53150D01*
X38715D01*
X41339Y-50526D01*
X25596Y-53150D02*
X20348D01*
X22972D01*
Y-42654D01*
X25596D01*
X12477D02*
X1981Y-53150D01*
X7229Y-47902D01*
X1981Y-42654D01*
X12477Y-53150D01*
X-3266Y-42654D02*
X-13762Y-53150D01*
X-8514Y-47902D01*
X-13762Y-42654D01*
X-3266Y-53150D01*
X-19009Y-42654D02*
Y-50526D01*
X-21633Y-53150D01*
X-29505D01*
Y-55773D01*
X-26881Y-58397D01*
X-24257D01*
X-29505Y-53150D02*
Y-42654D01*
X26250Y-131890D02*
X35433D01*
X26250Y-122706D01*
Y-120411D01*
X28545Y-118115D01*
X33137D01*
X35433Y-120411D01*
X21658Y-131890D02*
X17066D01*
X19362D01*
Y-118115D01*
X21658Y-120411D01*
X10179Y-131890D02*
X995Y-122706D01*
X-3596Y-120411D02*
X-5892Y-118115D01*
X-10484D01*
X-12780Y-120411D01*
Y-129594D01*
X-10484Y-131890D01*
X-5892D01*
X-3596Y-129594D01*
Y-120411D01*
X-17371Y-131890D02*
X-21963D01*
X-19667D01*
Y-118115D01*
X-17371Y-120411D01*
X-28851Y-131890D02*
X-38034Y-122706D01*
X-51809Y-131890D02*
X-42626D01*
X-51809Y-122706D01*
Y-120411D01*
X-49513Y-118115D01*
X-44922D01*
X-42626Y-120411D01*
X-56401D02*
X-58697Y-118115D01*
X-63288D01*
X-65584Y-120411D01*
Y-129594D01*
X-63288Y-131890D01*
X-58697D01*
X-56401Y-129594D01*
Y-120411D01*
X-70176Y-131890D02*
X-74768D01*
X-72472D01*
Y-118115D01*
X-70176Y-120411D01*
X-81655Y-129594D02*
X-83951Y-131890D01*
X-88543D01*
X-90838Y-129594D01*
Y-120411D01*
X-88543Y-118115D01*
X-83951D01*
X-81655Y-120411D01*
Y-122706D01*
X-83951Y-125002D01*
X-90838D01*
X-127953Y-118771D02*
X-130577Y-116147D01*
X-135824D01*
X-138448Y-118771D01*
Y-129266D01*
X-135824Y-131890D01*
X-130577D01*
X-127953Y-129266D01*
Y-118771D01*
X-143696D02*
X-146319Y-116147D01*
X-151567D01*
X-154191Y-118771D01*
Y-129266D01*
X-151567Y-131890D01*
X-146319D01*
X-143696Y-129266D01*
Y-118771D01*
X226378Y-155517D02*
Y-171260D01*
X221130Y-166012D01*
X215883Y-171260D01*
Y-155517D01*
X210635Y-171260D02*
X205387D01*
X208011D01*
Y-160765D01*
X210635D01*
X197516Y-171260D02*
Y-160765D01*
X194892D01*
X192268Y-163388D01*
Y-171260D01*
Y-163388D01*
X189644Y-160765D01*
X187021Y-163388D01*
Y-171260D01*
X181773Y-155517D02*
Y-166012D01*
X176525Y-171260D01*
X171278Y-166012D01*
Y-155517D01*
X155535Y-158141D02*
X158159Y-155517D01*
X163406D01*
X166030Y-158141D01*
Y-168636D01*
X163406Y-171260D01*
X158159D01*
X155535Y-168636D01*
Y-163388D01*
X160782D01*
D15*
X1204724Y0D02*
Y48819D01*
X1204724D02*
X1131102D01*
X1204724Y0D02*
X1131102D01*
X1131102D02*
Y48819D01*
D16*
X1429134Y-177165D02*
X-224410D01*
X1429134D02*
Y992126D01*
X-224410Y-177165D02*
Y992126D01*
X1429134D02*
X-224410D01*
X51181Y-177165D02*
Y-19685D01*
X248031Y-177165D02*
Y-19685D01*
X-224410D01*
X248031Y-137795D02*
X-224410D01*
X51181Y-98425D02*
X-224410D01*
X51181Y-59055D02*
X-224410D01*
X-106299Y-137795D02*
Y-98425D01*
X37403Y-164372D02*
X38387Y-163388D01*
X40355D01*
X41339Y-164372D01*
Y-165356D01*
X40355Y-166340D01*
X38387D01*
X37403Y-167324D01*
Y-168307D01*
X38387Y-169291D01*
X40355D01*
X41339Y-168307D01*
X35435Y-163388D02*
X33467D01*
X34451D01*
Y-169291D01*
X35435D01*
X33467D01*
X30515Y-163388D02*
X26580Y-169291D01*
Y-163388D02*
X30515Y-169291D01*
X24612Y-163388D02*
X20676Y-169291D01*
Y-163388D02*
X24612Y-169291D01*
X18708Y-163388D02*
Y-164372D01*
X16740Y-166340D01*
X14772Y-164372D01*
Y-163388D01*
X16740Y-166340D02*
Y-169291D01*
X12804Y-170275D02*
X8869D01*
X6901Y-164372D02*
X5917Y-163388D01*
X3949D01*
X2965Y-164372D01*
Y-168307D01*
X3949Y-169291D01*
X5917D01*
X6901Y-168307D01*
Y-164372D01*
X997D02*
X13Y-163388D01*
X-1955D01*
X-2938Y-164372D01*
Y-168307D01*
X-1955Y-169291D01*
X13D01*
X997Y-168307D01*
Y-164372D01*
X-4906Y-169291D02*
Y-168307D01*
X-5890D01*
Y-169291D01*
X-4906D01*
X-9826D02*
Y-163388D01*
X-12778D01*
X-13762Y-164372D01*
Y-166340D01*
X-12778Y-167324D01*
X-9826D01*
X-19665Y-165356D02*
X-16714D01*
X-15730Y-166340D01*
Y-168307D01*
X-16714Y-169291D01*
X-19665D01*
X-21633Y-163388D02*
Y-169291D01*
X-24585D01*
X-25569Y-168307D01*
Y-167324D01*
Y-166340D01*
X-24585Y-165356D01*
X-21633D01*
X-27537Y-163388D02*
Y-169291D01*
X-30489D01*
X-31473Y-168307D01*
Y-164372D01*
X-30489Y-163388D01*
X-27537D01*
X-34424Y-169291D02*
X-36392D01*
X-37376Y-168307D01*
Y-166340D01*
X-36392Y-165356D01*
X-34424D01*
X-33440Y-166340D01*
Y-168307D01*
X-34424Y-169291D01*
X-43280Y-165356D02*
X-40328D01*
X-39344Y-166340D01*
Y-168307D01*
X-40328Y-169291D01*
X-43280D01*
D17*
X47244Y-141735D02*
Y-149606D01*
X43308D01*
X41996Y-148294D01*
Y-143047D01*
X43308Y-141735D01*
X47244D01*
X38061Y-149606D02*
X35437D01*
X34125Y-148294D01*
Y-145671D01*
X35437Y-144359D01*
X38061D01*
X39373Y-145671D01*
Y-148294D01*
X38061Y-149606D01*
X26254Y-144359D02*
X30189D01*
X31501Y-145671D01*
Y-148294D01*
X30189Y-149606D01*
X26254D01*
X23630Y-144359D02*
Y-148294D01*
X22318Y-149606D01*
X18382D01*
Y-144359D01*
X15758Y-149606D02*
Y-144359D01*
X14446D01*
X13134Y-145671D01*
Y-149606D01*
Y-145671D01*
X11822Y-144359D01*
X10510Y-145671D01*
Y-149606D01*
X3951D02*
X6575D01*
X7887Y-148294D01*
Y-145671D01*
X6575Y-144359D01*
X3951D01*
X2639Y-145671D01*
Y-146983D01*
X7887D01*
X15Y-149606D02*
Y-144359D01*
X-3920D01*
X-5232Y-145671D01*
Y-149606D01*
X-9168Y-143047D02*
Y-144359D01*
X-7856D01*
X-10480D01*
X-9168D01*
Y-148294D01*
X-10480Y-149606D01*
X47244Y-102365D02*
Y-110236D01*
X43308D01*
X41996Y-108924D01*
Y-103677D01*
X43308Y-102365D01*
X47244D01*
X38061Y-104989D02*
X35437D01*
X34125Y-106300D01*
Y-110236D01*
X38061D01*
X39373Y-108924D01*
X38061Y-107612D01*
X34125D01*
X30189Y-103677D02*
Y-104989D01*
X31501D01*
X28877D01*
X30189D01*
Y-108924D01*
X28877Y-110236D01*
X21006D02*
X23630D01*
X24942Y-108924D01*
Y-106300D01*
X23630Y-104989D01*
X21006D01*
X19694Y-106300D01*
Y-107612D01*
X24942D01*
X47244Y-62995D02*
Y-70866D01*
X41996D01*
X38061Y-65618D02*
X35437D01*
X34125Y-66930D01*
Y-70866D01*
X38061D01*
X39373Y-69554D01*
X38061Y-68242D01*
X34125D01*
X31501Y-65618D02*
Y-69554D01*
X30189Y-70866D01*
X26254D01*
Y-72178D01*
X27565Y-73490D01*
X28877D01*
X26254Y-70866D02*
Y-65618D01*
X19694Y-70866D02*
X22318D01*
X23630Y-69554D01*
Y-66930D01*
X22318Y-65618D01*
X19694D01*
X18382Y-66930D01*
Y-68242D01*
X23630D01*
X15758Y-65618D02*
Y-70866D01*
Y-68242D01*
X14446Y-66930D01*
X13134Y-65618D01*
X11822D01*
X15Y-70866D02*
Y-62995D01*
X-5232Y-70866D01*
Y-62995D01*
X-9168Y-65618D02*
X-11792D01*
X-13104Y-66930D01*
Y-70866D01*
X-9168D01*
X-7856Y-69554D01*
X-9168Y-68242D01*
X-13104D01*
X-15728Y-70866D02*
Y-65618D01*
X-17040D01*
X-18352Y-66930D01*
Y-70866D01*
Y-66930D01*
X-19663Y-65618D01*
X-20975Y-66930D01*
Y-70866D01*
X-27535D02*
X-24911D01*
X-23599Y-69554D01*
Y-66930D01*
X-24911Y-65618D01*
X-27535D01*
X-28847Y-66930D01*
Y-68242D01*
X-23599D01*
X47244Y-23625D02*
Y-31496D01*
X43308D01*
X41996Y-30184D01*
Y-24937D01*
X43308Y-23625D01*
X47244D01*
X38061Y-31496D02*
X35437D01*
X34125Y-30184D01*
Y-27560D01*
X35437Y-26248D01*
X38061D01*
X39373Y-27560D01*
Y-30184D01*
X38061Y-31496D01*
X26254Y-26248D02*
X30189D01*
X31501Y-27560D01*
Y-30184D01*
X30189Y-31496D01*
X26254D01*
X23630Y-26248D02*
Y-30184D01*
X22318Y-31496D01*
X18382D01*
Y-26248D01*
X15758Y-31496D02*
Y-26248D01*
X14446D01*
X13134Y-27560D01*
Y-31496D01*
Y-27560D01*
X11822Y-26248D01*
X10510Y-27560D01*
Y-31496D01*
X3951D02*
X6575D01*
X7887Y-30184D01*
Y-27560D01*
X6575Y-26248D01*
X3951D01*
X2639Y-27560D01*
Y-28872D01*
X7887D01*
X15Y-31496D02*
Y-26248D01*
X-3920D01*
X-5232Y-27560D01*
Y-31496D01*
X-9168Y-24937D02*
Y-26248D01*
X-7856D01*
X-10480D01*
X-9168D01*
Y-30184D01*
X-10480Y-31496D01*
X244094Y-141735D02*
Y-149606D01*
X240159D01*
X238847Y-148294D01*
Y-143047D01*
X240159Y-141735D01*
X244094D01*
X232287Y-149606D02*
X234911D01*
X236223Y-148294D01*
Y-145671D01*
X234911Y-144359D01*
X232287D01*
X230975Y-145671D01*
Y-146983D01*
X236223D01*
X228351Y-149606D02*
X224416D01*
X223104Y-148294D01*
X224416Y-146983D01*
X227040D01*
X228351Y-145671D01*
X227040Y-144359D01*
X223104D01*
X217856Y-152230D02*
X216544D01*
X215232Y-150918D01*
Y-144359D01*
X219168D01*
X220480Y-145671D01*
Y-148294D01*
X219168Y-149606D01*
X215232D01*
X212609D02*
X209985D01*
X211297D01*
Y-144359D01*
X212609D01*
X206049Y-149606D02*
Y-144359D01*
X202113D01*
X200801Y-145671D01*
Y-149606D01*
X194242D02*
X196866D01*
X198178Y-148294D01*
Y-145671D01*
X196866Y-144359D01*
X194242D01*
X192930Y-145671D01*
Y-146983D01*
X198178D01*
X190306Y-144359D02*
Y-149606D01*
Y-146983D01*
X188994Y-145671D01*
X187682Y-144359D01*
X186370D01*
X-110236Y-110236D02*
Y-102365D01*
X-114172D01*
X-115484Y-103677D01*
Y-106300D01*
X-114172Y-107612D01*
X-110236D01*
X-112860D02*
X-115484Y-110236D01*
X-122044D02*
X-119420D01*
X-118108Y-108924D01*
Y-106300D01*
X-119420Y-104989D01*
X-122044D01*
X-123355Y-106300D01*
Y-107612D01*
X-118108D01*
X-125979Y-104989D02*
X-128603Y-110236D01*
X-131227Y-104989D01*
D25*
X1137795Y24409D02*
D03*
Y34409D02*
D03*
Y14410D02*
D03*
X1198032D02*
D03*
Y34409D02*
D03*
Y24409D02*
D03*
D26*
X1175984Y20276D02*
D03*
Y17717D02*
D03*
Y15157D02*
D03*
X1184646D02*
D03*
Y20276D02*
D03*
D27*
X1176378Y29134D02*
D03*
X1184252D02*
D03*
X1180315D02*
D03*
X1151413D02*
D03*
X1159287D02*
D03*
X1155350D02*
D03*
D28*
X1189370Y43996D02*
D03*
X1171260D02*
D03*
X1164406D02*
D03*
X1146295D02*
D03*
M02*
