G04*
G04 #@! TF.GenerationSoftware,Altium Limited,Altium Designer,18.1.9 (240)*
G04*
G04 Layer_Physical_Order=2*
G04 Layer_Color=3381759*
%FSLAX25Y25*%
%MOIN*%
G70*
G01*
G75*
%ADD11C,0.00591*%
%ADD12C,0.01575*%
%ADD15C,0.00394*%
%ADD16C,0.00787*%
%ADD17C,0.00984*%
%ADD22C,0.00500*%
%ADD24C,0.02756*%
%ADD25R,0.11811X0.05906*%
%ADD26R,0.03543X0.01575*%
%ADD27R,0.02362X0.06102*%
%ADD28R,0.04724X0.07874*%
%ADD29C,0.01968*%
G36*
X72983Y30906D02*
X60887D01*
X60633Y31010D01*
X60439Y31204D01*
X60335Y31457D01*
Y34547D01*
X60303Y34866D01*
X60059Y35456D01*
X59608Y35907D01*
X59018Y36152D01*
X58699Y36183D01*
X55960D01*
X55916Y36217D01*
X55341Y36455D01*
X54724Y36536D01*
X54108Y36455D01*
X53533Y36217D01*
X53489Y36183D01*
X50787D01*
X50450Y36167D01*
X49787Y36035D01*
X49163Y35776D01*
X48602Y35401D01*
X48125Y34924D01*
X47749Y34362D01*
X47491Y33738D01*
X47378Y33169D01*
X47209D01*
Y25098D01*
X47744D01*
X47927Y24494D01*
X48303Y23587D01*
X48765Y22722D01*
X49310Y21906D01*
X49933Y21147D01*
X50271Y20791D01*
X60039Y11024D01*
Y10473D01*
X60590D01*
X62435Y8628D01*
Y8628D01*
X62568Y8495D01*
X62776Y8184D01*
X62919Y7838D01*
X62992Y7471D01*
Y6872D01*
X62752Y6293D01*
X62309Y5850D01*
X61731Y5610D01*
X61113D01*
X60516Y5729D01*
X59954Y5962D01*
X59448Y6300D01*
X45079Y20669D01*
X44774Y20974D01*
X44296Y21689D01*
X43967Y22484D01*
X43799Y23328D01*
Y27362D01*
X43785Y27652D01*
X43672Y28219D01*
X43450Y28754D01*
X43129Y29235D01*
X42720Y29645D01*
X42238Y29966D01*
X41704Y30188D01*
X41136Y30301D01*
X40846Y30315D01*
X33585D01*
X32897Y30600D01*
X32371Y31126D01*
X32087Y31813D01*
Y32283D01*
X32053Y32629D01*
X31788Y33268D01*
X31299Y33757D01*
X30661Y34021D01*
X30315Y34055D01*
X23228D01*
X22921Y34025D01*
X22353Y33790D01*
X21919Y33355D01*
X21684Y32787D01*
X21654Y32480D01*
Y26083D01*
X19291D01*
Y27559D01*
X19272Y27945D01*
X19122Y28702D01*
X18826Y29415D01*
X18398Y30057D01*
X17852Y30602D01*
X17210Y31031D01*
X16497Y31326D01*
X15740Y31477D01*
X15354Y31496D01*
X9958D01*
X9912Y31532D01*
X9337Y31770D01*
X8721Y31851D01*
X8104Y31770D01*
X7529Y31532D01*
X7482Y31496D01*
X639D01*
Y48180D01*
X12008D01*
Y39075D01*
X18701D01*
Y48180D01*
X30118D01*
Y39075D01*
X36811D01*
Y39075D01*
X36972D01*
Y39075D01*
X43665D01*
Y48180D01*
X55083D01*
Y39075D01*
X61775D01*
Y48180D01*
X72983D01*
Y30906D01*
D02*
G37*
G36*
X15617Y30478D02*
X16205Y30362D01*
X16735Y30142D01*
X17212Y29823D01*
X17618Y29417D01*
X17937Y28940D01*
X18157Y28409D01*
X18274Y27822D01*
X18288Y27534D01*
Y26603D01*
X17224Y25799D01*
X17126Y25801D01*
X16901Y26094D01*
X16408Y26473D01*
X15833Y26711D01*
X15217Y26792D01*
X14764Y26732D01*
X14448Y26839D01*
X13583Y27568D01*
Y28346D01*
X639D01*
Y30472D01*
X13583D01*
Y30492D01*
X15330D01*
X15617Y30478D01*
D02*
G37*
G36*
X30414Y33037D02*
X30731Y32906D01*
X30937Y32699D01*
X31069Y32383D01*
X31083Y32234D01*
Y31813D01*
X31159Y31429D01*
X31444Y30742D01*
X31662Y30416D01*
X32188Y29890D01*
X32188Y29890D01*
X32513Y29673D01*
X33201Y29388D01*
X33585Y29311D01*
X40822D01*
X41013Y29302D01*
X41411Y29223D01*
X41763Y29077D01*
X42080Y28865D01*
X42349Y28596D01*
X42561Y28279D01*
X42707Y27927D01*
X42786Y27528D01*
X42796Y27338D01*
Y23328D01*
X42815Y23231D01*
Y23132D01*
X42983Y22288D01*
X43021Y22197D01*
X43040Y22100D01*
X43369Y21305D01*
X43424Y21223D01*
X43462Y21132D01*
X43940Y20416D01*
X44010Y20346D01*
X44065Y20264D01*
X44369Y19960D01*
X58738Y5590D01*
X58821Y5535D01*
X58891Y5466D01*
X59397Y5127D01*
X59488Y5090D01*
X59570Y5035D01*
X60132Y4802D01*
X60229Y4783D01*
X60321Y4745D01*
X60917Y4626D01*
X61016D01*
X61113Y4607D01*
X61731D01*
X62115Y4683D01*
X62693Y4923D01*
X63019Y5140D01*
X63462Y5583D01*
X63462Y5583D01*
X63679Y5909D01*
X63919Y6488D01*
X63996Y6872D01*
Y7471D01*
X63976Y7568D01*
Y7666D01*
X63903Y8034D01*
X63866Y8125D01*
X63846Y8222D01*
X63703Y8568D01*
X63648Y8650D01*
X63610Y8741D01*
X63402Y9053D01*
X63332Y9123D01*
X63277Y9205D01*
X63145Y9337D01*
X63145Y9337D01*
X61300Y11182D01*
X60975Y11400D01*
X60968Y11401D01*
X60966Y11408D01*
X60749Y11733D01*
X50990Y21492D01*
X50685Y21812D01*
X50117Y22504D01*
X49627Y23238D01*
X49264Y23917D01*
X49345Y24191D01*
X50041Y25098D01*
X51539D01*
Y32554D01*
X52975D01*
X53040Y32469D01*
X53533Y32090D01*
X54108Y31852D01*
X54724Y31771D01*
X55341Y31852D01*
X55367Y31863D01*
X56176Y31054D01*
Y30906D01*
X56275Y30406D01*
X56558Y29983D01*
X60039Y26502D01*
Y20472D01*
X72983D01*
Y639D01*
X639D01*
Y20472D01*
X13583D01*
X13951Y19444D01*
Y18158D01*
X13645Y17852D01*
X13362Y17428D01*
X13262Y16929D01*
Y13976D01*
X13362Y13477D01*
X13645Y13054D01*
X14826Y11873D01*
X15249Y11590D01*
X15748Y11491D01*
X25000D01*
X25499Y11590D01*
X25923Y11873D01*
X26808Y12759D01*
X27091Y13182D01*
X27190Y13681D01*
Y15945D01*
X31496D01*
Y18504D01*
Y22047D01*
X26482D01*
X25992Y23228D01*
X27230Y24466D01*
X27503Y24875D01*
X27599Y25356D01*
Y33052D01*
X30266D01*
X30414Y33037D01*
D02*
G37*
G36*
X1137613Y-64032D02*
X1137326D01*
Y-64318D01*
X1137040D01*
Y-64605D01*
Y-64891D01*
X1136754D01*
Y-65177D01*
X1136467D01*
Y-65464D01*
X1136181D01*
Y-65750D01*
Y-66036D01*
X1135895D01*
Y-66322D01*
X1135608D01*
Y-66609D01*
X1135322D01*
Y-66895D01*
X1135036D01*
Y-67181D01*
Y-67468D01*
X1134750D01*
Y-67754D01*
X1134463D01*
Y-68040D01*
X1134177D01*
Y-68327D01*
Y-68613D01*
X1133891D01*
Y-68899D01*
X1133604D01*
Y-69186D01*
X1133318D01*
Y-69472D01*
X1133032D01*
Y-69758D01*
Y-70044D01*
X1132745D01*
Y-70331D01*
X1132459D01*
Y-70617D01*
X1132173D01*
Y-70903D01*
Y-71190D01*
X1131886D01*
Y-71476D01*
X1131600D01*
Y-71762D01*
X1131314D01*
Y-72049D01*
Y-72335D01*
X1131028D01*
Y-72621D01*
X1130741D01*
Y-72908D01*
X1130455D01*
Y-73194D01*
X1130169D01*
Y-73480D01*
Y-73767D01*
X1129882D01*
Y-74053D01*
X1129596D01*
Y-74339D01*
X1129310D01*
Y-74625D01*
Y-74912D01*
X1129023D01*
Y-75198D01*
X1128737D01*
Y-75485D01*
X1128451D01*
Y-75771D01*
Y-76057D01*
X1128164D01*
Y-76343D01*
X1127878D01*
Y-76630D01*
X1127592D01*
Y-76916D01*
X1127306D01*
Y-77202D01*
Y-77489D01*
X1127019D01*
Y-77775D01*
X1126733D01*
Y-78061D01*
X1126447D01*
Y-78348D01*
Y-78634D01*
X1126160D01*
Y-78920D01*
X1125874D01*
Y-79207D01*
X1125588D01*
Y-79493D01*
Y-79779D01*
X1125301D01*
Y-80066D01*
X1125015D01*
Y-80352D01*
X1124729D01*
Y-80638D01*
X1124442D01*
Y-80924D01*
Y-81211D01*
X1124156D01*
Y-81497D01*
X1123870D01*
Y-81783D01*
X1123583D01*
Y-82070D01*
Y-82356D01*
X1123297D01*
Y-82642D01*
X1123011D01*
Y-82929D01*
X1122725D01*
Y-83215D01*
X1122438D01*
Y-83501D01*
Y-83788D01*
X1122725D01*
Y-84074D01*
Y-84360D01*
X1123011D01*
Y-84646D01*
Y-84933D01*
X1123297D01*
Y-85219D01*
X1123583D01*
Y-85505D01*
Y-85792D01*
X1123870D01*
Y-86078D01*
Y-86364D01*
X1124156D01*
Y-86651D01*
Y-86937D01*
X1124442D01*
Y-87223D01*
Y-87510D01*
X1124729D01*
Y-87796D01*
Y-88082D01*
X1125015D01*
Y-88369D01*
Y-88655D01*
X1125301D01*
Y-88941D01*
Y-89227D01*
X1125588D01*
Y-89514D01*
Y-89800D01*
X1125874D01*
Y-90086D01*
X1126160D01*
Y-90373D01*
Y-90659D01*
X1126447D01*
Y-90945D01*
Y-91232D01*
X1126733D01*
Y-91518D01*
Y-91804D01*
X1127019D01*
Y-92091D01*
Y-92377D01*
X1127306D01*
Y-92663D01*
Y-92950D01*
X1127592D01*
Y-93236D01*
Y-93522D01*
X1127878D01*
Y-93809D01*
Y-94095D01*
X1128164D01*
Y-94381D01*
X1128451D01*
Y-94667D01*
Y-94954D01*
X1128737D01*
Y-95240D01*
Y-95526D01*
X1129023D01*
Y-95813D01*
Y-96099D01*
X1129310D01*
Y-96385D01*
Y-96672D01*
X1129596D01*
Y-96958D01*
Y-97244D01*
X1129882D01*
Y-97531D01*
Y-97817D01*
X1130169D01*
Y-98103D01*
Y-98390D01*
X1130455D01*
Y-98676D01*
X1130741D01*
Y-98962D01*
Y-99248D01*
X1131028D01*
Y-99535D01*
Y-99821D01*
X1131314D01*
Y-100107D01*
X1116139D01*
Y-99821D01*
X1115853D01*
Y-99535D01*
Y-99248D01*
Y-98962D01*
X1115567D01*
Y-98676D01*
Y-98390D01*
Y-98103D01*
X1115280D01*
Y-97817D01*
Y-97531D01*
X1114994D01*
Y-97244D01*
Y-96958D01*
Y-96672D01*
X1114708D01*
Y-96385D01*
Y-96099D01*
Y-95813D01*
X1114421D01*
Y-95526D01*
Y-95240D01*
X1114135D01*
Y-94954D01*
Y-94667D01*
Y-94381D01*
X1113849D01*
Y-94095D01*
Y-93809D01*
Y-93522D01*
X1113562D01*
Y-93236D01*
Y-92950D01*
Y-92663D01*
X1113276D01*
Y-92377D01*
X1112704D01*
Y-92663D01*
Y-92950D01*
X1112417D01*
Y-93236D01*
X1112131D01*
Y-93522D01*
Y-93809D01*
X1111845D01*
Y-94095D01*
X1111558D01*
Y-94381D01*
Y-94667D01*
X1111272D01*
Y-94954D01*
X1110986D01*
Y-95240D01*
Y-95526D01*
X1110699D01*
Y-95813D01*
X1110413D01*
Y-96099D01*
X1110127D01*
Y-96385D01*
Y-96672D01*
X1109840D01*
Y-96958D01*
X1109554D01*
Y-97244D01*
Y-97531D01*
X1109268D01*
Y-97817D01*
X1108981D01*
Y-98103D01*
Y-98390D01*
X1108695D01*
Y-98676D01*
X1108409D01*
Y-98962D01*
Y-99248D01*
X1108123D01*
Y-99535D01*
X1107836D01*
Y-99821D01*
Y-100107D01*
X1091803D01*
Y-99821D01*
X1092089D01*
Y-99535D01*
X1092375D01*
Y-99248D01*
X1092662D01*
Y-98962D01*
X1092948D01*
Y-98676D01*
Y-98390D01*
X1093234D01*
Y-98103D01*
X1093521D01*
Y-97817D01*
X1093807D01*
Y-97531D01*
X1094093D01*
Y-97244D01*
Y-96958D01*
X1094380D01*
Y-96672D01*
X1094666D01*
Y-96385D01*
X1094952D01*
Y-96099D01*
Y-95813D01*
X1095238D01*
Y-95526D01*
X1095525D01*
Y-95240D01*
X1095811D01*
Y-94954D01*
X1096097D01*
Y-94667D01*
Y-94381D01*
X1096384D01*
Y-94095D01*
X1096670D01*
Y-93809D01*
X1096956D01*
Y-93522D01*
X1097243D01*
Y-93236D01*
Y-92950D01*
X1097529D01*
Y-92663D01*
X1097815D01*
Y-92377D01*
X1098102D01*
Y-92091D01*
Y-91804D01*
X1098388D01*
Y-91518D01*
X1098674D01*
Y-91232D01*
X1098960D01*
Y-90945D01*
X1099247D01*
Y-90659D01*
Y-90373D01*
X1099533D01*
Y-90086D01*
X1099819D01*
Y-89800D01*
X1100106D01*
Y-89514D01*
Y-89227D01*
X1100392D01*
Y-88941D01*
X1100678D01*
Y-88655D01*
X1100965D01*
Y-88369D01*
X1101251D01*
Y-88082D01*
Y-87796D01*
X1101537D01*
Y-87510D01*
X1101824D01*
Y-87223D01*
X1102110D01*
Y-86937D01*
Y-86651D01*
X1102396D01*
Y-86364D01*
X1102683D01*
Y-86078D01*
X1102969D01*
Y-85792D01*
X1103255D01*
Y-85505D01*
Y-85219D01*
X1103541D01*
Y-84933D01*
X1103828D01*
Y-84646D01*
X1104114D01*
Y-84360D01*
X1104400D01*
Y-84074D01*
Y-83788D01*
X1104687D01*
Y-83501D01*
X1104973D01*
Y-83215D01*
X1105259D01*
Y-82929D01*
Y-82642D01*
X1105546D01*
Y-82356D01*
X1105832D01*
Y-82070D01*
X1106118D01*
Y-81783D01*
X1106405D01*
Y-81497D01*
Y-81211D01*
X1106691D01*
Y-80924D01*
Y-80638D01*
Y-80352D01*
X1106405D01*
Y-80066D01*
X1106118D01*
Y-79779D01*
Y-79493D01*
X1105832D01*
Y-79207D01*
Y-78920D01*
X1105546D01*
Y-78634D01*
Y-78348D01*
X1105259D01*
Y-78061D01*
Y-77775D01*
X1104973D01*
Y-77489D01*
Y-77202D01*
X1104687D01*
Y-76916D01*
Y-76630D01*
X1104400D01*
Y-76343D01*
X1104114D01*
Y-76057D01*
Y-75771D01*
X1103828D01*
Y-75485D01*
Y-75198D01*
X1103541D01*
Y-74912D01*
Y-74625D01*
X1103255D01*
Y-74339D01*
Y-74053D01*
X1102969D01*
Y-73767D01*
Y-73480D01*
X1102683D01*
Y-73194D01*
Y-72908D01*
X1102396D01*
Y-72621D01*
X1102110D01*
Y-72335D01*
Y-72049D01*
X1101824D01*
Y-71762D01*
Y-71476D01*
X1101537D01*
Y-71190D01*
Y-70903D01*
X1101251D01*
Y-70617D01*
Y-70331D01*
X1100965D01*
Y-70044D01*
Y-69758D01*
X1100678D01*
Y-69472D01*
Y-69186D01*
X1100392D01*
Y-68899D01*
Y-68613D01*
X1100106D01*
Y-68327D01*
X1099819D01*
Y-68040D01*
Y-67754D01*
X1099533D01*
Y-67468D01*
Y-67181D01*
X1099247D01*
Y-66895D01*
Y-66609D01*
X1098960D01*
Y-66322D01*
Y-66036D01*
X1098674D01*
Y-65750D01*
Y-65464D01*
X1098388D01*
Y-65177D01*
Y-64891D01*
X1098102D01*
Y-64605D01*
X1097815D01*
Y-64318D01*
Y-64032D01*
X1097529D01*
Y-63746D01*
X1113276D01*
Y-64032D01*
X1113562D01*
Y-64318D01*
Y-64605D01*
Y-64891D01*
X1113849D01*
Y-65177D01*
Y-65464D01*
Y-65750D01*
X1114135D01*
Y-66036D01*
Y-66322D01*
Y-66609D01*
X1114421D01*
Y-66895D01*
Y-67181D01*
Y-67468D01*
X1114708D01*
Y-67754D01*
Y-68040D01*
Y-68327D01*
X1114994D01*
Y-68613D01*
Y-68899D01*
Y-69186D01*
X1115280D01*
Y-69472D01*
Y-69758D01*
Y-70044D01*
X1115567D01*
Y-70331D01*
Y-70617D01*
Y-70903D01*
X1115853D01*
Y-71190D01*
Y-71476D01*
Y-71762D01*
Y-72049D01*
X1116426D01*
Y-71762D01*
X1116712D01*
Y-71476D01*
X1116998D01*
Y-71190D01*
Y-70903D01*
X1117284D01*
Y-70617D01*
X1117571D01*
Y-70331D01*
Y-70044D01*
X1117857D01*
Y-69758D01*
X1118143D01*
Y-69472D01*
Y-69186D01*
X1118430D01*
Y-68899D01*
X1118716D01*
Y-68613D01*
Y-68327D01*
X1119002D01*
Y-68040D01*
X1119289D01*
Y-67754D01*
Y-67468D01*
X1119575D01*
Y-67181D01*
X1119861D01*
Y-66895D01*
Y-66609D01*
X1120148D01*
Y-66322D01*
X1120434D01*
Y-66036D01*
Y-65750D01*
X1120720D01*
Y-65464D01*
X1121007D01*
Y-65177D01*
Y-64891D01*
X1121293D01*
Y-64605D01*
X1121579D01*
Y-64318D01*
Y-64032D01*
X1121865D01*
Y-63746D01*
X1137613D01*
Y-64032D01*
D02*
G37*
G36*
X1004477Y-50003D02*
X1006195D01*
Y-50289D01*
X1007054D01*
Y-50575D01*
X1007913D01*
Y-50862D01*
X1008772D01*
Y-51148D01*
X1009345D01*
Y-51434D01*
X1009631D01*
Y-51720D01*
X1010203D01*
Y-52007D01*
X1010490D01*
Y-52293D01*
X1011062D01*
Y-52579D01*
X1011349D01*
Y-52866D01*
X1011635D01*
Y-53152D01*
X1011921D01*
Y-53438D01*
X1012208D01*
Y-53725D01*
X1012494D01*
Y-54011D01*
X1012780D01*
Y-54297D01*
Y-54584D01*
X1013067D01*
Y-54870D01*
X1013353D01*
Y-55156D01*
Y-55443D01*
X1013639D01*
Y-55729D01*
X1013926D01*
Y-56015D01*
Y-56301D01*
X1014212D01*
Y-56588D01*
Y-56874D01*
Y-57161D01*
X1014498D01*
Y-57447D01*
Y-57733D01*
Y-58019D01*
X1014785D01*
Y-58306D01*
Y-58592D01*
Y-58878D01*
Y-59165D01*
X1015071D01*
Y-59451D01*
Y-59737D01*
Y-60024D01*
Y-60310D01*
Y-60596D01*
X1015357D01*
Y-60883D01*
Y-61169D01*
Y-61455D01*
Y-61742D01*
Y-62028D01*
Y-62314D01*
Y-62600D01*
Y-62887D01*
Y-63173D01*
Y-63459D01*
Y-63746D01*
Y-64032D01*
Y-64318D01*
Y-64605D01*
Y-64891D01*
Y-65177D01*
Y-65464D01*
Y-65750D01*
Y-66036D01*
Y-66322D01*
X1015071D01*
Y-66609D01*
Y-66895D01*
Y-67181D01*
Y-67468D01*
Y-67754D01*
Y-68040D01*
Y-68327D01*
X1014785D01*
Y-68613D01*
Y-68899D01*
Y-69186D01*
Y-69472D01*
Y-69758D01*
X1014498D01*
Y-70044D01*
Y-70331D01*
Y-70617D01*
Y-70903D01*
Y-71190D01*
X1014212D01*
Y-71476D01*
Y-71762D01*
Y-72049D01*
X1013926D01*
Y-72335D01*
Y-72621D01*
Y-72908D01*
Y-73194D01*
X1013639D01*
Y-73480D01*
Y-73767D01*
Y-74053D01*
X1013353D01*
Y-74339D01*
Y-74625D01*
X1013067D01*
Y-74912D01*
Y-75198D01*
Y-75485D01*
X1012780D01*
Y-75771D01*
Y-76057D01*
X1012494D01*
Y-76343D01*
Y-76630D01*
X1012208D01*
Y-76916D01*
Y-77202D01*
X1011921D01*
Y-77489D01*
X1011635D01*
Y-77775D01*
Y-78061D01*
X1011349D01*
Y-78348D01*
X1011062D01*
Y-78634D01*
X1010776D01*
Y-78920D01*
Y-79207D01*
X1010490D01*
Y-79493D01*
X1010203D01*
Y-79779D01*
X1009917D01*
Y-80066D01*
X1009631D01*
Y-80352D01*
X1009345D01*
Y-80638D01*
X1008772D01*
Y-80924D01*
X1008486D01*
Y-81211D01*
X1007913D01*
Y-81497D01*
X1007627D01*
Y-81783D01*
X1007054D01*
Y-82070D01*
X1006195D01*
Y-82356D01*
X1005336D01*
Y-82642D01*
X1004477D01*
Y-82929D01*
X1002759D01*
Y-83215D01*
X997606D01*
Y-82929D01*
X995029D01*
Y-82642D01*
X993025D01*
Y-82356D01*
X991593D01*
Y-82070D01*
X990162D01*
Y-81783D01*
X988730D01*
Y-82070D01*
Y-82356D01*
Y-82642D01*
Y-82929D01*
Y-83215D01*
Y-83501D01*
Y-83788D01*
X988444D01*
Y-84074D01*
Y-84360D01*
Y-84646D01*
Y-84933D01*
Y-85219D01*
Y-85505D01*
X988157D01*
Y-85792D01*
Y-86078D01*
Y-86364D01*
Y-86651D01*
Y-86937D01*
Y-87223D01*
X987871D01*
Y-87510D01*
Y-87796D01*
Y-88082D01*
Y-88369D01*
Y-88655D01*
Y-88941D01*
Y-89227D01*
X987585D01*
Y-89514D01*
Y-89800D01*
Y-90086D01*
Y-90373D01*
Y-90659D01*
Y-90945D01*
X987298D01*
Y-91232D01*
Y-91518D01*
Y-91804D01*
Y-92091D01*
Y-92377D01*
Y-92663D01*
X987012D01*
Y-92950D01*
Y-93236D01*
Y-93522D01*
Y-93809D01*
Y-94095D01*
Y-94381D01*
Y-94667D01*
X986726D01*
Y-94954D01*
Y-95240D01*
Y-95526D01*
Y-95813D01*
Y-96099D01*
Y-96385D01*
X986440D01*
Y-96672D01*
Y-96958D01*
Y-97244D01*
Y-97531D01*
Y-97817D01*
Y-98103D01*
X986153D01*
Y-98390D01*
Y-98676D01*
Y-98962D01*
Y-99248D01*
Y-99535D01*
Y-99821D01*
Y-100107D01*
X972696D01*
Y-99821D01*
X972983D01*
Y-99535D01*
Y-99248D01*
Y-98962D01*
Y-98676D01*
Y-98390D01*
X973269D01*
Y-98103D01*
Y-97817D01*
Y-97531D01*
Y-97244D01*
Y-96958D01*
Y-96672D01*
Y-96385D01*
X973555D01*
Y-96099D01*
Y-95813D01*
Y-95526D01*
Y-95240D01*
Y-94954D01*
Y-94667D01*
X973842D01*
Y-94381D01*
Y-94095D01*
Y-93809D01*
Y-93522D01*
Y-93236D01*
Y-92950D01*
X974128D01*
Y-92663D01*
Y-92377D01*
Y-92091D01*
Y-91804D01*
Y-91518D01*
Y-91232D01*
Y-90945D01*
X974414D01*
Y-90659D01*
Y-90373D01*
Y-90086D01*
Y-89800D01*
Y-89514D01*
Y-89227D01*
X974701D01*
Y-88941D01*
Y-88655D01*
Y-88369D01*
Y-88082D01*
Y-87796D01*
Y-87510D01*
X974987D01*
Y-87223D01*
Y-86937D01*
Y-86651D01*
Y-86364D01*
Y-86078D01*
Y-85792D01*
X975273D01*
Y-85505D01*
Y-85219D01*
Y-84933D01*
Y-84646D01*
Y-84360D01*
Y-84074D01*
Y-83788D01*
X975560D01*
Y-83501D01*
Y-83215D01*
Y-82929D01*
Y-82642D01*
Y-82356D01*
Y-82070D01*
X975846D01*
Y-81783D01*
Y-81497D01*
Y-81211D01*
Y-80924D01*
Y-80638D01*
Y-80352D01*
X976132D01*
Y-80066D01*
Y-79779D01*
Y-79493D01*
Y-79207D01*
Y-78920D01*
Y-78634D01*
X976419D01*
Y-78348D01*
Y-78061D01*
Y-77775D01*
Y-77489D01*
Y-77202D01*
Y-76916D01*
Y-76630D01*
X976705D01*
Y-76343D01*
Y-76057D01*
Y-75771D01*
Y-75485D01*
Y-75198D01*
Y-74912D01*
X976991D01*
Y-74625D01*
Y-74339D01*
Y-74053D01*
Y-73767D01*
Y-73480D01*
Y-73194D01*
X977277D01*
Y-72908D01*
Y-72621D01*
Y-72335D01*
Y-72049D01*
Y-71762D01*
Y-71476D01*
Y-71190D01*
X977564D01*
Y-70903D01*
Y-70617D01*
Y-70331D01*
Y-70044D01*
Y-69758D01*
Y-69472D01*
X977850D01*
Y-69186D01*
Y-68899D01*
Y-68613D01*
Y-68327D01*
Y-68040D01*
Y-67754D01*
X978137D01*
Y-67468D01*
Y-67181D01*
Y-66895D01*
Y-66609D01*
Y-66322D01*
Y-66036D01*
X978423D01*
Y-65750D01*
Y-65464D01*
Y-65177D01*
Y-64891D01*
Y-64605D01*
Y-64318D01*
Y-64032D01*
X978709D01*
Y-63746D01*
Y-63459D01*
Y-63173D01*
Y-62887D01*
Y-62600D01*
Y-62314D01*
X978995D01*
Y-62028D01*
Y-61742D01*
Y-61455D01*
Y-61169D01*
Y-60883D01*
Y-60596D01*
X979282D01*
Y-60310D01*
Y-60024D01*
Y-59737D01*
Y-59451D01*
Y-59165D01*
Y-58878D01*
Y-58592D01*
X979568D01*
Y-58306D01*
Y-58019D01*
Y-57733D01*
Y-57447D01*
Y-57161D01*
Y-56874D01*
X979854D01*
Y-56588D01*
Y-56301D01*
Y-56015D01*
Y-55729D01*
Y-55443D01*
Y-55156D01*
X980141D01*
Y-54870D01*
Y-54584D01*
Y-54297D01*
Y-54011D01*
Y-53725D01*
Y-53438D01*
Y-53152D01*
X980427D01*
Y-52866D01*
Y-52579D01*
Y-52293D01*
Y-52007D01*
Y-51720D01*
Y-51434D01*
X980713D01*
Y-51148D01*
Y-50862D01*
Y-50575D01*
Y-50289D01*
Y-50003D01*
Y-49716D01*
X1004477D01*
Y-50003D01*
D02*
G37*
G36*
X1093521Y-64032D02*
Y-64318D01*
Y-64605D01*
Y-64891D01*
Y-65177D01*
Y-65464D01*
Y-65750D01*
Y-66036D01*
Y-66322D01*
Y-66609D01*
Y-66895D01*
Y-67181D01*
Y-67468D01*
Y-67754D01*
Y-68040D01*
Y-68327D01*
Y-68613D01*
Y-68899D01*
Y-69186D01*
Y-69472D01*
Y-69758D01*
X1093234D01*
Y-70044D01*
Y-70331D01*
Y-70617D01*
Y-70903D01*
Y-71190D01*
X1092948D01*
Y-71476D01*
Y-71762D01*
Y-72049D01*
Y-72335D01*
X1092662D01*
Y-72621D01*
Y-72908D01*
Y-73194D01*
Y-73480D01*
X1092375D01*
Y-73767D01*
Y-74053D01*
Y-74339D01*
X1092089D01*
Y-74625D01*
Y-74912D01*
Y-75198D01*
X1091803D01*
Y-75485D01*
Y-75771D01*
Y-76057D01*
X1091516D01*
Y-76343D01*
Y-76630D01*
Y-76916D01*
X1091230D01*
Y-77202D01*
Y-77489D01*
X1090944D01*
Y-77775D01*
Y-78061D01*
X1090657D01*
Y-78348D01*
Y-78634D01*
Y-78920D01*
X1090371D01*
Y-79207D01*
Y-79493D01*
X1090085D01*
Y-79779D01*
Y-80066D01*
Y-80352D01*
X1089799D01*
Y-80638D01*
Y-80924D01*
X1089512D01*
Y-81211D01*
Y-81497D01*
Y-81783D01*
X1089226D01*
Y-82070D01*
Y-82356D01*
X1088939D01*
Y-82642D01*
Y-82929D01*
Y-83215D01*
X1088653D01*
Y-83501D01*
Y-83788D01*
X1088367D01*
Y-84074D01*
Y-84360D01*
Y-84646D01*
X1088081D01*
Y-84933D01*
Y-85219D01*
X1087794D01*
Y-85505D01*
Y-85792D01*
Y-86078D01*
X1087508D01*
Y-86364D01*
Y-86651D01*
X1087222D01*
Y-86937D01*
Y-87223D01*
Y-87510D01*
X1086935D01*
Y-87796D01*
Y-88082D01*
X1086649D01*
Y-88369D01*
Y-88655D01*
Y-88941D01*
X1086363D01*
Y-89227D01*
Y-89514D01*
X1086076D01*
Y-89800D01*
Y-90086D01*
Y-90373D01*
X1085790D01*
Y-90659D01*
Y-90945D01*
X1085504D01*
Y-91232D01*
Y-91518D01*
Y-91804D01*
X1085217D01*
Y-92091D01*
Y-92377D01*
X1084931D01*
Y-92663D01*
Y-92950D01*
Y-93236D01*
X1084645D01*
Y-93522D01*
Y-93809D01*
X1084359D01*
Y-94095D01*
Y-94381D01*
Y-94667D01*
X1084072D01*
Y-94954D01*
Y-95240D01*
X1083786D01*
Y-95526D01*
Y-95813D01*
Y-96099D01*
X1083500D01*
Y-96385D01*
Y-96672D01*
X1083213D01*
Y-96958D01*
Y-97244D01*
Y-97531D01*
X1082927D01*
Y-97817D01*
Y-98103D01*
X1082641D01*
Y-98390D01*
Y-98676D01*
Y-98962D01*
X1082354D01*
Y-99248D01*
Y-99535D01*
X1082068D01*
Y-99821D01*
Y-100107D01*
Y-100394D01*
X1081782D01*
Y-100680D01*
Y-100966D01*
X1081495D01*
Y-101253D01*
Y-101539D01*
X1081209D01*
Y-101825D01*
Y-102112D01*
X1080923D01*
Y-102398D01*
Y-102684D01*
Y-102971D01*
X1080637D01*
Y-103257D01*
X1080350D01*
Y-103543D01*
Y-103829D01*
Y-104116D01*
X1080064D01*
Y-104402D01*
X1079778D01*
Y-104688D01*
Y-104975D01*
X1079491D01*
Y-105261D01*
Y-105547D01*
X1079205D01*
Y-105834D01*
Y-106120D01*
X1078919D01*
Y-106406D01*
Y-106693D01*
X1078632D01*
Y-106979D01*
X1078346D01*
Y-107265D01*
Y-107552D01*
X1078060D01*
Y-107838D01*
Y-108124D01*
X1077773D01*
Y-108410D01*
X1077487D01*
Y-108697D01*
X1077201D01*
Y-108983D01*
Y-109269D01*
X1076914D01*
Y-109556D01*
X1076628D01*
Y-109842D01*
Y-110128D01*
X1076342D01*
Y-110415D01*
X1076056D01*
Y-110701D01*
X1075769D01*
Y-110987D01*
Y-111274D01*
X1075483D01*
Y-111560D01*
X1075196D01*
Y-111846D01*
X1074910D01*
Y-112133D01*
X1074624D01*
Y-112419D01*
X1074338D01*
Y-112705D01*
Y-112991D01*
X1074051D01*
Y-113278D01*
X1073765D01*
Y-113564D01*
X1073479D01*
Y-113850D01*
X1073192D01*
Y-114137D01*
X1072906D01*
Y-114423D01*
X1072620D01*
Y-114709D01*
X1072333D01*
Y-114996D01*
X1071761D01*
Y-115282D01*
X1071474D01*
Y-115568D01*
X1071188D01*
Y-115855D01*
X1070902D01*
Y-116141D01*
X1070615D01*
Y-116427D01*
X1070043D01*
Y-116714D01*
X1069757D01*
Y-117000D01*
X1069184D01*
Y-117286D01*
X1068898D01*
Y-117572D01*
X1068325D01*
Y-117859D01*
X1068039D01*
Y-118145D01*
X1067466D01*
Y-118431D01*
X1066893D01*
Y-118718D01*
X1066321D01*
Y-119004D01*
X1065748D01*
Y-119290D01*
X1065176D01*
Y-119577D01*
X1064317D01*
Y-119863D01*
X1063744D01*
Y-120149D01*
X1062885D01*
Y-120436D01*
X1061740D01*
Y-120722D01*
X1060595D01*
Y-121008D01*
X1058877D01*
Y-121294D01*
X1056872D01*
Y-121581D01*
X1056586D01*
Y-121294D01*
Y-121008D01*
Y-120722D01*
Y-120436D01*
Y-120149D01*
Y-119863D01*
Y-119577D01*
Y-119290D01*
Y-119004D01*
Y-118718D01*
Y-118431D01*
Y-118145D01*
Y-117859D01*
Y-117572D01*
Y-117286D01*
Y-117000D01*
Y-116714D01*
Y-116427D01*
Y-116141D01*
Y-115855D01*
Y-115568D01*
Y-115282D01*
Y-114996D01*
Y-114709D01*
Y-114423D01*
Y-114137D01*
Y-113850D01*
Y-113564D01*
Y-113278D01*
Y-112991D01*
Y-112705D01*
Y-112419D01*
Y-112133D01*
X1057159D01*
Y-111846D01*
X1057731D01*
Y-111560D01*
X1058304D01*
Y-111274D01*
X1058877D01*
Y-110987D01*
X1059449D01*
Y-110701D01*
X1060022D01*
Y-110415D01*
X1060308D01*
Y-110128D01*
X1060881D01*
Y-109842D01*
X1061167D01*
Y-109556D01*
X1061740D01*
Y-109269D01*
X1062026D01*
Y-108983D01*
X1062312D01*
Y-108697D01*
X1062885D01*
Y-108410D01*
X1063171D01*
Y-108124D01*
X1063458D01*
Y-107838D01*
X1063744D01*
Y-107552D01*
X1064030D01*
Y-107265D01*
X1064317D01*
Y-106979D01*
X1064603D01*
Y-106693D01*
X1064889D01*
Y-106406D01*
X1065176D01*
Y-106120D01*
X1065462D01*
Y-105834D01*
X1065748D01*
Y-105547D01*
X1066035D01*
Y-105261D01*
Y-104975D01*
X1066321D01*
Y-104688D01*
X1066607D01*
Y-104402D01*
X1066893D01*
Y-104116D01*
Y-103829D01*
X1067180D01*
Y-103543D01*
X1067466D01*
Y-103257D01*
Y-102971D01*
X1067752D01*
Y-102684D01*
Y-102398D01*
X1068039D01*
Y-102112D01*
X1068325D01*
Y-101825D01*
Y-101539D01*
X1068611D01*
Y-101253D01*
Y-100966D01*
X1068898D01*
Y-100680D01*
Y-100394D01*
X1067180D01*
Y-100107D01*
X1065176D01*
Y-99821D01*
X1064030D01*
Y-99535D01*
X1063458D01*
Y-99248D01*
X1062599D01*
Y-98962D01*
X1062026D01*
Y-98676D01*
X1061740D01*
Y-98390D01*
X1061167D01*
Y-98103D01*
X1060881D01*
Y-97817D01*
X1060595D01*
Y-97531D01*
X1060308D01*
Y-97244D01*
X1060022D01*
Y-96958D01*
X1059736D01*
Y-96672D01*
Y-96385D01*
X1059449D01*
Y-96099D01*
X1059163D01*
Y-95813D01*
Y-95526D01*
X1058877D01*
Y-95240D01*
Y-94954D01*
X1058590D01*
Y-94667D01*
Y-94381D01*
X1058304D01*
Y-94095D01*
Y-93809D01*
Y-93522D01*
X1058018D01*
Y-93236D01*
Y-92950D01*
Y-92663D01*
Y-92377D01*
X1057731D01*
Y-92091D01*
Y-91804D01*
Y-91518D01*
Y-91232D01*
Y-90945D01*
Y-90659D01*
Y-90373D01*
X1057445D01*
Y-90086D01*
Y-89800D01*
Y-89514D01*
Y-89227D01*
Y-88941D01*
Y-88655D01*
Y-88369D01*
Y-88082D01*
Y-87796D01*
Y-87510D01*
Y-87223D01*
Y-86937D01*
Y-86651D01*
Y-86364D01*
Y-86078D01*
X1057159D01*
Y-85792D01*
Y-85505D01*
Y-85219D01*
Y-84933D01*
Y-84646D01*
Y-84360D01*
Y-84074D01*
Y-83788D01*
Y-83501D01*
Y-83215D01*
Y-82929D01*
Y-82642D01*
Y-82356D01*
Y-82070D01*
Y-81783D01*
X1056872D01*
Y-81497D01*
Y-81211D01*
Y-80924D01*
Y-80638D01*
Y-80352D01*
Y-80066D01*
Y-79779D01*
Y-79493D01*
Y-79207D01*
Y-78920D01*
Y-78634D01*
Y-78348D01*
Y-78061D01*
Y-77775D01*
Y-77489D01*
Y-77202D01*
X1056586D01*
Y-76916D01*
Y-76630D01*
Y-76343D01*
Y-76057D01*
Y-75771D01*
Y-75485D01*
Y-75198D01*
Y-74912D01*
Y-74625D01*
Y-74339D01*
Y-74053D01*
Y-73767D01*
Y-73480D01*
Y-73194D01*
Y-72908D01*
Y-72621D01*
X1056300D01*
Y-72335D01*
Y-72049D01*
Y-71762D01*
Y-71476D01*
Y-71190D01*
Y-70903D01*
Y-70617D01*
Y-70331D01*
Y-70044D01*
Y-69758D01*
Y-69472D01*
Y-69186D01*
Y-68899D01*
Y-68613D01*
X1056014D01*
Y-68327D01*
Y-68040D01*
Y-67754D01*
Y-67468D01*
Y-67181D01*
Y-66895D01*
Y-66609D01*
Y-66322D01*
Y-66036D01*
Y-65750D01*
Y-65464D01*
Y-65177D01*
Y-64891D01*
Y-64605D01*
Y-64318D01*
Y-64032D01*
X1055727D01*
Y-63746D01*
X1069470D01*
Y-64032D01*
Y-64318D01*
Y-64605D01*
Y-64891D01*
Y-65177D01*
Y-65464D01*
Y-65750D01*
Y-66036D01*
Y-66322D01*
Y-66609D01*
Y-66895D01*
Y-67181D01*
Y-67468D01*
Y-67754D01*
X1069757D01*
Y-68040D01*
Y-68327D01*
Y-68613D01*
Y-68899D01*
Y-69186D01*
Y-69472D01*
Y-69758D01*
Y-70044D01*
Y-70331D01*
Y-70617D01*
Y-70903D01*
Y-71190D01*
Y-71476D01*
Y-71762D01*
Y-72049D01*
Y-72335D01*
Y-72621D01*
Y-72908D01*
Y-73194D01*
Y-73480D01*
Y-73767D01*
Y-74053D01*
Y-74339D01*
Y-74625D01*
Y-74912D01*
Y-75198D01*
Y-75485D01*
Y-75771D01*
Y-76057D01*
Y-76343D01*
Y-76630D01*
Y-76916D01*
Y-77202D01*
Y-77489D01*
Y-77775D01*
Y-78061D01*
Y-78348D01*
Y-78634D01*
Y-78920D01*
Y-79207D01*
Y-79493D01*
X1070043D01*
Y-79779D01*
X1069757D01*
Y-80066D01*
Y-80352D01*
X1070043D01*
Y-80638D01*
Y-80924D01*
Y-81211D01*
Y-81497D01*
Y-81783D01*
Y-82070D01*
Y-82356D01*
Y-82642D01*
Y-82929D01*
Y-83215D01*
Y-83501D01*
Y-83788D01*
Y-84074D01*
Y-84360D01*
Y-84646D01*
Y-84933D01*
Y-85219D01*
Y-85505D01*
Y-85792D01*
Y-86078D01*
Y-86364D01*
Y-86651D01*
Y-86937D01*
Y-87223D01*
Y-87510D01*
Y-87796D01*
X1070329D01*
Y-88082D01*
Y-88369D01*
Y-88655D01*
X1070615D01*
Y-88941D01*
X1070902D01*
Y-89227D01*
X1071188D01*
Y-89514D01*
X1072047D01*
Y-89800D01*
X1072906D01*
Y-89514D01*
X1073192D01*
Y-89227D01*
Y-88941D01*
Y-88655D01*
X1073479D01*
Y-88369D01*
Y-88082D01*
X1073765D01*
Y-87796D01*
Y-87510D01*
Y-87223D01*
X1074051D01*
Y-86937D01*
Y-86651D01*
Y-86364D01*
X1074338D01*
Y-86078D01*
Y-85792D01*
Y-85505D01*
X1074624D01*
Y-85219D01*
Y-84933D01*
Y-84646D01*
X1074910D01*
Y-84360D01*
Y-84074D01*
X1075196D01*
Y-83788D01*
Y-83501D01*
Y-83215D01*
X1075483D01*
Y-82929D01*
Y-82642D01*
Y-82356D01*
X1075769D01*
Y-82070D01*
Y-81783D01*
Y-81497D01*
X1076056D01*
Y-81211D01*
Y-80924D01*
X1076342D01*
Y-80638D01*
Y-80352D01*
Y-80066D01*
X1076628D01*
Y-79779D01*
Y-79493D01*
Y-79207D01*
X1076914D01*
Y-78920D01*
Y-78634D01*
Y-78348D01*
X1077201D01*
Y-78061D01*
Y-77775D01*
X1077487D01*
Y-77489D01*
Y-77202D01*
Y-76916D01*
X1077773D01*
Y-76630D01*
Y-76343D01*
Y-76057D01*
X1078060D01*
Y-75771D01*
Y-75485D01*
Y-75198D01*
X1078346D01*
Y-74912D01*
Y-74625D01*
X1078632D01*
Y-74339D01*
Y-74053D01*
Y-73767D01*
X1078919D01*
Y-73480D01*
Y-73194D01*
Y-72908D01*
X1079205D01*
Y-72621D01*
Y-72335D01*
Y-72049D01*
X1079491D01*
Y-71762D01*
Y-71476D01*
Y-71190D01*
Y-70903D01*
X1079778D01*
Y-70617D01*
Y-70331D01*
Y-70044D01*
Y-69758D01*
X1080064D01*
Y-69472D01*
Y-69186D01*
Y-68899D01*
Y-68613D01*
Y-68327D01*
X1080350D01*
Y-68040D01*
Y-67754D01*
Y-67468D01*
Y-67181D01*
Y-66895D01*
Y-66609D01*
X1080637D01*
Y-66322D01*
Y-66036D01*
Y-65750D01*
Y-65464D01*
Y-65177D01*
Y-64891D01*
Y-64605D01*
Y-64318D01*
Y-64032D01*
Y-63746D01*
X1093521D01*
Y-64032D01*
D02*
G37*
G36*
X1035685Y-46567D02*
Y-46853D01*
X1035399D01*
Y-47139D01*
Y-47426D01*
Y-47712D01*
Y-47998D01*
Y-48285D01*
Y-48571D01*
X1035113D01*
Y-48857D01*
Y-49144D01*
Y-49430D01*
Y-49716D01*
Y-50003D01*
Y-50289D01*
X1034826D01*
Y-50575D01*
Y-50862D01*
Y-51148D01*
Y-51434D01*
Y-51720D01*
Y-52007D01*
Y-52293D01*
X1034540D01*
Y-52579D01*
Y-52866D01*
Y-53152D01*
Y-53438D01*
Y-53725D01*
Y-54011D01*
X1034254D01*
Y-54297D01*
Y-54584D01*
Y-54870D01*
Y-55156D01*
Y-55443D01*
Y-55729D01*
X1033967D01*
Y-56015D01*
Y-56301D01*
Y-56588D01*
Y-56874D01*
Y-57161D01*
Y-57447D01*
Y-57733D01*
X1033681D01*
Y-58019D01*
Y-58306D01*
Y-58592D01*
Y-58878D01*
Y-59165D01*
Y-59451D01*
X1033395D01*
Y-59737D01*
Y-60024D01*
Y-60310D01*
Y-60596D01*
Y-60883D01*
Y-61169D01*
X1033109D01*
Y-61455D01*
Y-61742D01*
Y-62028D01*
Y-62314D01*
Y-62600D01*
Y-62887D01*
X1032822D01*
Y-63173D01*
Y-63459D01*
Y-63746D01*
Y-64032D01*
Y-64318D01*
Y-64605D01*
Y-64891D01*
X1032536D01*
Y-65177D01*
Y-65464D01*
Y-65750D01*
Y-66036D01*
Y-66322D01*
Y-66609D01*
X1032250D01*
Y-66895D01*
Y-67181D01*
X1032822D01*
Y-66895D01*
X1033109D01*
Y-66609D01*
X1033395D01*
Y-66322D01*
X1033967D01*
Y-66036D01*
X1034254D01*
Y-65750D01*
X1034540D01*
Y-65464D01*
X1035113D01*
Y-65177D01*
X1035685D01*
Y-64891D01*
X1035972D01*
Y-64605D01*
X1036544D01*
Y-64318D01*
X1037403D01*
Y-64032D01*
X1037976D01*
Y-63746D01*
X1038835D01*
Y-63459D01*
X1040266D01*
Y-63173D01*
X1046565D01*
Y-63459D01*
X1047711D01*
Y-63746D01*
X1048569D01*
Y-64032D01*
X1049142D01*
Y-64318D01*
X1049428D01*
Y-64605D01*
X1050001D01*
Y-64891D01*
X1050287D01*
Y-65177D01*
X1050574D01*
Y-65464D01*
X1050860D01*
Y-65750D01*
X1051146D01*
Y-66036D01*
Y-66322D01*
X1051433D01*
Y-66609D01*
Y-66895D01*
X1051719D01*
Y-67181D01*
Y-67468D01*
Y-67754D01*
X1052005D01*
Y-68040D01*
Y-68327D01*
Y-68613D01*
Y-68899D01*
X1052291D01*
Y-69186D01*
Y-69472D01*
Y-69758D01*
Y-70044D01*
Y-70331D01*
Y-70617D01*
Y-70903D01*
Y-71190D01*
Y-71476D01*
Y-71762D01*
Y-72049D01*
Y-72335D01*
Y-72621D01*
Y-72908D01*
Y-73194D01*
Y-73480D01*
Y-73767D01*
Y-74053D01*
X1052005D01*
Y-74339D01*
Y-74625D01*
Y-74912D01*
Y-75198D01*
Y-75485D01*
Y-75771D01*
Y-76057D01*
X1051719D01*
Y-76343D01*
Y-76630D01*
Y-76916D01*
Y-77202D01*
Y-77489D01*
Y-77775D01*
Y-78061D01*
X1051433D01*
Y-78348D01*
Y-78634D01*
Y-78920D01*
Y-79207D01*
Y-79493D01*
Y-79779D01*
X1051146D01*
Y-80066D01*
Y-80352D01*
Y-80638D01*
Y-80924D01*
Y-81211D01*
Y-81497D01*
X1050860D01*
Y-81783D01*
Y-82070D01*
Y-82356D01*
Y-82642D01*
Y-82929D01*
Y-83215D01*
X1050574D01*
Y-83501D01*
Y-83788D01*
Y-84074D01*
Y-84360D01*
Y-84646D01*
Y-84933D01*
Y-85219D01*
X1050287D01*
Y-85505D01*
Y-85792D01*
Y-86078D01*
Y-86364D01*
Y-86651D01*
Y-86937D01*
X1050001D01*
Y-87223D01*
Y-87510D01*
Y-87796D01*
Y-88082D01*
Y-88369D01*
Y-88655D01*
X1049715D01*
Y-88941D01*
Y-89227D01*
Y-89514D01*
Y-89800D01*
Y-90086D01*
Y-90373D01*
Y-90659D01*
X1049428D01*
Y-90945D01*
Y-91232D01*
Y-91518D01*
Y-91804D01*
Y-92091D01*
Y-92377D01*
X1049142D01*
Y-92663D01*
Y-92950D01*
Y-93236D01*
Y-93522D01*
Y-93809D01*
Y-94095D01*
X1048856D01*
Y-94381D01*
Y-94667D01*
Y-94954D01*
Y-95240D01*
Y-95526D01*
Y-95813D01*
X1048569D01*
Y-96099D01*
Y-96385D01*
Y-96672D01*
Y-96958D01*
Y-97244D01*
Y-97531D01*
Y-97817D01*
X1048283D01*
Y-98103D01*
Y-98390D01*
Y-98676D01*
Y-98962D01*
Y-99248D01*
Y-99535D01*
X1047997D01*
Y-99821D01*
Y-100107D01*
X1034826D01*
Y-99821D01*
Y-99535D01*
X1035113D01*
Y-99248D01*
Y-98962D01*
Y-98676D01*
Y-98390D01*
Y-98103D01*
Y-97817D01*
X1035399D01*
Y-97531D01*
Y-97244D01*
Y-96958D01*
Y-96672D01*
Y-96385D01*
Y-96099D01*
Y-95813D01*
X1035685D01*
Y-95526D01*
Y-95240D01*
Y-94954D01*
Y-94667D01*
Y-94381D01*
Y-94095D01*
X1035972D01*
Y-93809D01*
Y-93522D01*
Y-93236D01*
Y-92950D01*
Y-92663D01*
Y-92377D01*
X1036258D01*
Y-92091D01*
Y-91804D01*
Y-91518D01*
Y-91232D01*
Y-90945D01*
Y-90659D01*
Y-90373D01*
X1036544D01*
Y-90086D01*
Y-89800D01*
Y-89514D01*
Y-89227D01*
Y-88941D01*
Y-88655D01*
X1036831D01*
Y-88369D01*
Y-88082D01*
Y-87796D01*
Y-87510D01*
Y-87223D01*
Y-86937D01*
Y-86651D01*
X1037117D01*
Y-86364D01*
Y-86078D01*
Y-85792D01*
Y-85505D01*
Y-85219D01*
Y-84933D01*
X1037403D01*
Y-84646D01*
Y-84360D01*
Y-84074D01*
Y-83788D01*
Y-83501D01*
Y-83215D01*
X1037689D01*
Y-82929D01*
Y-82642D01*
Y-82356D01*
Y-82070D01*
Y-81783D01*
Y-81497D01*
X1037976D01*
Y-81211D01*
Y-80924D01*
Y-80638D01*
Y-80352D01*
Y-80066D01*
Y-79779D01*
Y-79493D01*
X1038262D01*
Y-79207D01*
Y-78920D01*
Y-78634D01*
Y-78348D01*
Y-78061D01*
Y-77775D01*
X1038548D01*
Y-77489D01*
Y-77202D01*
Y-76916D01*
Y-76630D01*
Y-76343D01*
Y-76057D01*
Y-75771D01*
X1038835D01*
Y-75485D01*
Y-75198D01*
Y-74912D01*
Y-74625D01*
Y-74339D01*
Y-74053D01*
X1038548D01*
Y-73767D01*
Y-73480D01*
X1038262D01*
Y-73194D01*
X1037976D01*
Y-72908D01*
X1037403D01*
Y-72621D01*
X1035685D01*
Y-72908D01*
X1034254D01*
Y-73194D01*
X1033395D01*
Y-73480D01*
X1032822D01*
Y-73767D01*
X1032536D01*
Y-74053D01*
X1031963D01*
Y-74339D01*
X1031677D01*
Y-74625D01*
X1031391D01*
Y-74912D01*
Y-75198D01*
X1031104D01*
Y-75485D01*
Y-75771D01*
Y-76057D01*
X1030818D01*
Y-76343D01*
Y-76630D01*
Y-76916D01*
Y-77202D01*
Y-77489D01*
Y-77775D01*
X1030532D01*
Y-78061D01*
Y-78348D01*
Y-78634D01*
Y-78920D01*
Y-79207D01*
Y-79493D01*
Y-79779D01*
X1030245D01*
Y-80066D01*
Y-80352D01*
Y-80638D01*
Y-80924D01*
Y-81211D01*
Y-81497D01*
X1029959D01*
Y-81783D01*
Y-82070D01*
Y-82356D01*
Y-82642D01*
Y-82929D01*
Y-83215D01*
X1029673D01*
Y-83501D01*
Y-83788D01*
Y-84074D01*
Y-84360D01*
Y-84646D01*
Y-84933D01*
X1029387D01*
Y-85219D01*
Y-85505D01*
Y-85792D01*
Y-86078D01*
Y-86364D01*
Y-86651D01*
Y-86937D01*
X1029100D01*
Y-87223D01*
Y-87510D01*
Y-87796D01*
Y-88082D01*
Y-88369D01*
Y-88655D01*
X1028814D01*
Y-88941D01*
Y-89227D01*
Y-89514D01*
Y-89800D01*
Y-90086D01*
Y-90373D01*
X1028528D01*
Y-90659D01*
Y-90945D01*
Y-91232D01*
Y-91518D01*
Y-91804D01*
Y-92091D01*
Y-92377D01*
X1028241D01*
Y-92663D01*
Y-92950D01*
Y-93236D01*
Y-93522D01*
Y-93809D01*
Y-94095D01*
X1027955D01*
Y-94381D01*
Y-94667D01*
Y-94954D01*
Y-95240D01*
Y-95526D01*
Y-95813D01*
X1027669D01*
Y-96099D01*
Y-96385D01*
Y-96672D01*
Y-96958D01*
Y-97244D01*
Y-97531D01*
X1027382D01*
Y-97817D01*
Y-98103D01*
Y-98390D01*
Y-98676D01*
Y-98962D01*
Y-99248D01*
Y-99535D01*
X1027096D01*
Y-99821D01*
Y-100107D01*
X1013926D01*
Y-99821D01*
Y-99535D01*
X1014212D01*
Y-99248D01*
Y-98962D01*
Y-98676D01*
Y-98390D01*
Y-98103D01*
Y-97817D01*
Y-97531D01*
X1014498D01*
Y-97244D01*
Y-96958D01*
Y-96672D01*
Y-96385D01*
Y-96099D01*
Y-95813D01*
X1014785D01*
Y-95526D01*
Y-95240D01*
Y-94954D01*
Y-94667D01*
Y-94381D01*
Y-94095D01*
X1015071D01*
Y-93809D01*
Y-93522D01*
Y-93236D01*
Y-92950D01*
Y-92663D01*
Y-92377D01*
Y-92091D01*
X1015357D01*
Y-91804D01*
Y-91518D01*
Y-91232D01*
Y-90945D01*
Y-90659D01*
Y-90373D01*
X1015643D01*
Y-90086D01*
Y-89800D01*
Y-89514D01*
Y-89227D01*
Y-88941D01*
Y-88655D01*
X1015930D01*
Y-88369D01*
Y-88082D01*
Y-87796D01*
Y-87510D01*
Y-87223D01*
Y-86937D01*
X1016216D01*
Y-86651D01*
Y-86364D01*
Y-86078D01*
Y-85792D01*
Y-85505D01*
Y-85219D01*
Y-84933D01*
X1016502D01*
Y-84646D01*
Y-84360D01*
Y-84074D01*
Y-83788D01*
Y-83501D01*
Y-83215D01*
X1016789D01*
Y-82929D01*
Y-82642D01*
Y-82356D01*
Y-82070D01*
Y-81783D01*
Y-81497D01*
X1017075D01*
Y-81211D01*
Y-80924D01*
Y-80638D01*
Y-80352D01*
Y-80066D01*
Y-79779D01*
Y-79493D01*
X1017361D01*
Y-79207D01*
Y-78920D01*
Y-78634D01*
Y-78348D01*
Y-78061D01*
Y-77775D01*
X1017648D01*
Y-77489D01*
Y-77202D01*
Y-76916D01*
Y-76630D01*
Y-76343D01*
Y-76057D01*
X1017934D01*
Y-75771D01*
Y-75485D01*
Y-75198D01*
Y-74912D01*
Y-74625D01*
Y-74339D01*
X1018220D01*
Y-74053D01*
Y-73767D01*
Y-73480D01*
Y-73194D01*
Y-72908D01*
Y-72621D01*
Y-72335D01*
X1018507D01*
Y-72049D01*
Y-71762D01*
Y-71476D01*
Y-71190D01*
Y-70903D01*
Y-70617D01*
X1018793D01*
Y-70331D01*
Y-70044D01*
Y-69758D01*
Y-69472D01*
Y-69186D01*
Y-68899D01*
X1019079D01*
Y-68613D01*
Y-68327D01*
Y-68040D01*
Y-67754D01*
Y-67468D01*
Y-67181D01*
X1019366D01*
Y-66895D01*
Y-66609D01*
Y-66322D01*
Y-66036D01*
Y-65750D01*
Y-65464D01*
Y-65177D01*
X1019652D01*
Y-64891D01*
Y-64605D01*
Y-64318D01*
Y-64032D01*
Y-63746D01*
Y-63459D01*
X1019938D01*
Y-63173D01*
Y-62887D01*
Y-62600D01*
Y-62314D01*
Y-62028D01*
Y-61742D01*
X1020224D01*
Y-61455D01*
Y-61169D01*
Y-60883D01*
Y-60596D01*
Y-60310D01*
Y-60024D01*
Y-59737D01*
X1020511D01*
Y-59451D01*
Y-59165D01*
Y-58878D01*
Y-58592D01*
Y-58306D01*
Y-58019D01*
X1020797D01*
Y-57733D01*
Y-57447D01*
Y-57161D01*
Y-56874D01*
Y-56588D01*
Y-56301D01*
X1021083D01*
Y-56015D01*
Y-55729D01*
Y-55443D01*
Y-55156D01*
Y-54870D01*
Y-54584D01*
X1021370D01*
Y-54297D01*
Y-54011D01*
Y-53725D01*
Y-53438D01*
Y-53152D01*
Y-52866D01*
Y-52579D01*
X1021656D01*
Y-52293D01*
Y-52007D01*
Y-51720D01*
Y-51434D01*
Y-51148D01*
Y-50862D01*
X1021942D01*
Y-50575D01*
Y-50289D01*
Y-50003D01*
Y-49716D01*
Y-49430D01*
Y-49144D01*
X1022229D01*
Y-48857D01*
Y-48571D01*
Y-48285D01*
Y-47998D01*
Y-47712D01*
Y-47426D01*
Y-47139D01*
X1022515D01*
Y-46853D01*
Y-46567D01*
Y-46281D01*
X1035685D01*
Y-46567D01*
D02*
G37*
%LPC*%
G36*
X1000183Y-60883D02*
X992166D01*
Y-61169D01*
Y-61455D01*
Y-61742D01*
Y-62028D01*
Y-62314D01*
X991879D01*
Y-62600D01*
Y-62887D01*
Y-63173D01*
Y-63459D01*
Y-63746D01*
Y-64032D01*
X991593D01*
Y-64318D01*
Y-64605D01*
Y-64891D01*
Y-65177D01*
Y-65464D01*
Y-65750D01*
X991307D01*
Y-66036D01*
Y-66322D01*
Y-66609D01*
Y-66895D01*
Y-67181D01*
Y-67468D01*
X991020D01*
Y-67754D01*
Y-68040D01*
Y-68327D01*
Y-68613D01*
Y-68899D01*
Y-69186D01*
Y-69472D01*
X990734D01*
Y-69758D01*
Y-70044D01*
Y-70331D01*
Y-70617D01*
Y-70903D01*
Y-71190D01*
X990448D01*
Y-71476D01*
Y-71762D01*
Y-72049D01*
X997606D01*
Y-71762D01*
X998751D01*
Y-71476D01*
X999324D01*
Y-71190D01*
X999610D01*
Y-70903D01*
X999896D01*
Y-70617D01*
X1000183D01*
Y-70331D01*
X1000469D01*
Y-70044D01*
Y-69758D01*
X1000755D01*
Y-69472D01*
Y-69186D01*
X1001042D01*
Y-68899D01*
Y-68613D01*
X1001328D01*
Y-68327D01*
Y-68040D01*
Y-67754D01*
Y-67468D01*
X1001614D01*
Y-67181D01*
Y-66895D01*
Y-66609D01*
Y-66322D01*
Y-66036D01*
X1001900D01*
Y-65750D01*
Y-65464D01*
Y-65177D01*
Y-64891D01*
Y-64605D01*
Y-64318D01*
Y-64032D01*
Y-63746D01*
Y-63459D01*
Y-63173D01*
Y-62887D01*
X1001614D01*
Y-62600D01*
Y-62314D01*
X1001328D01*
Y-62028D01*
Y-61742D01*
X1001042D01*
Y-61455D01*
X1000755D01*
Y-61169D01*
X1000183D01*
Y-60883D01*
D02*
G37*
%LPD*%
D11*
X66339Y35000D02*
Y44488D01*
Y35000D02*
X66929Y34409D01*
X53445Y24311D02*
X54921D01*
X53311D02*
X53445D01*
X15748Y12795D02*
X22835D01*
X25000D01*
X25886Y13681D01*
Y16634D01*
X26575Y17323D01*
X28346D01*
X28740Y17717D01*
X15256Y17618D02*
Y24409D01*
X14567Y13976D02*
X15748Y12795D01*
X14567Y13976D02*
Y16929D01*
X15256Y17618D01*
X54921Y24311D02*
X56299Y25689D01*
X63976Y24409D02*
X66929D01*
X57480Y30906D02*
X63976Y24409D01*
X57480Y30906D02*
Y31594D01*
X34449Y14091D02*
Y14213D01*
Y4134D02*
Y14091D01*
X15256Y24409D02*
X23228D01*
X6693D02*
X15256D01*
X28740Y15157D02*
X32776D01*
X25394Y4134D02*
Y10827D01*
X28740Y36220D02*
Y44783D01*
X50394Y33858D02*
X54528D01*
X55216D02*
X57480Y31594D01*
X49374Y32838D02*
X50394Y33858D01*
X49374Y29134D02*
Y32838D01*
X24409Y25591D02*
Y29134D01*
X23228Y24409D02*
X24409Y25591D01*
D12*
X17224Y15157D02*
X20079D01*
X1175197Y-76776D02*
Y-90551D01*
X1182084D01*
X1184380Y-88255D01*
Y-85960D01*
X1182084Y-83664D01*
X1175197D01*
X1182084D01*
X1184380Y-81368D01*
Y-79072D01*
X1182084Y-76776D01*
X1175197D01*
X1191268Y-90551D02*
X1195860D01*
X1198155Y-88255D01*
Y-83664D01*
X1195860Y-81368D01*
X1191268D01*
X1188972Y-83664D01*
Y-88255D01*
X1191268Y-90551D01*
X1205043Y-79072D02*
Y-81368D01*
X1202747D01*
X1207339D01*
X1205043D01*
Y-88255D01*
X1207339Y-90551D01*
X1216522Y-79072D02*
Y-81368D01*
X1214226D01*
X1218818D01*
X1216522D01*
Y-88255D01*
X1218818Y-90551D01*
X1228001D02*
X1232593D01*
X1234889Y-88255D01*
Y-83664D01*
X1232593Y-81368D01*
X1228001D01*
X1225706Y-83664D01*
Y-88255D01*
X1228001Y-90551D01*
X1239481D02*
Y-81368D01*
X1241776D01*
X1244072Y-83664D01*
Y-90551D01*
Y-83664D01*
X1246368Y-81368D01*
X1248664Y-83664D01*
Y-90551D01*
X1267031Y-76776D02*
Y-90551D01*
X1276214D01*
X1283102Y-81368D02*
X1287693D01*
X1289989Y-83664D01*
Y-90551D01*
X1283102D01*
X1280806Y-88255D01*
X1283102Y-85960D01*
X1289989D01*
X1294581Y-81368D02*
Y-88255D01*
X1296877Y-90551D01*
X1303764D01*
Y-92847D01*
X1301468Y-95143D01*
X1299173D01*
X1303764Y-90551D02*
Y-81368D01*
X1315244Y-90551D02*
X1310652D01*
X1308356Y-88255D01*
Y-83664D01*
X1310652Y-81368D01*
X1315244D01*
X1317539Y-83664D01*
Y-85960D01*
X1308356D01*
X1322131Y-81368D02*
Y-90551D01*
Y-85960D01*
X1324427Y-83664D01*
X1326723Y-81368D01*
X1329019D01*
X1173881Y-40031D02*
X1171257Y-37407D01*
X1166010D01*
X1163386Y-40031D01*
Y-42654D01*
X1166010Y-45278D01*
X1171257D01*
X1173881Y-47902D01*
Y-50526D01*
X1171257Y-53150D01*
X1166010D01*
X1163386Y-50526D01*
X1179129Y-53150D02*
X1184376D01*
X1181753D01*
Y-42654D01*
X1179129D01*
X1192248D02*
X1202743Y-53150D01*
X1197495Y-47902D01*
X1202743Y-42654D01*
X1192248Y-53150D01*
X1207991Y-42654D02*
X1218486Y-53150D01*
X1213239Y-47902D01*
X1218486Y-42654D01*
X1207991Y-53150D01*
X1223734Y-42654D02*
Y-50526D01*
X1226358Y-53150D01*
X1234229D01*
Y-55773D01*
X1231605Y-58397D01*
X1228981D01*
X1234229Y-53150D02*
Y-42654D01*
X1178475Y-131890D02*
X1169291D01*
X1178475Y-122706D01*
Y-120411D01*
X1176179Y-118115D01*
X1171587D01*
X1169291Y-120411D01*
X1183066Y-131890D02*
X1187658D01*
X1185362D01*
Y-118115D01*
X1183066Y-120411D01*
X1194546Y-131890D02*
X1203729Y-122706D01*
X1208321Y-120411D02*
X1210617Y-118115D01*
X1215208D01*
X1217504Y-120411D01*
Y-129594D01*
X1215208Y-131890D01*
X1210617D01*
X1208321Y-129594D01*
Y-120411D01*
X1222096Y-131890D02*
X1226688D01*
X1224392D01*
Y-118115D01*
X1222096Y-120411D01*
X1233575Y-131890D02*
X1242758Y-122706D01*
X1256534Y-131890D02*
X1247350D01*
X1256534Y-122706D01*
Y-120411D01*
X1254238Y-118115D01*
X1249646D01*
X1247350Y-120411D01*
X1261125D02*
X1263421Y-118115D01*
X1268013D01*
X1270309Y-120411D01*
Y-129594D01*
X1268013Y-131890D01*
X1263421D01*
X1261125Y-129594D01*
Y-120411D01*
X1274900Y-131890D02*
X1279492D01*
X1277196D01*
Y-118115D01*
X1274900Y-120411D01*
X1286380Y-129594D02*
X1288675Y-131890D01*
X1293267D01*
X1295563Y-129594D01*
Y-120411D01*
X1293267Y-118115D01*
X1288675D01*
X1286380Y-120411D01*
Y-122706D01*
X1288675Y-125002D01*
X1295563D01*
X1332677Y-118771D02*
X1335301Y-116147D01*
X1340549D01*
X1343172Y-118771D01*
Y-129266D01*
X1340549Y-131890D01*
X1335301D01*
X1332677Y-129266D01*
Y-118771D01*
X1348420D02*
X1351044Y-116147D01*
X1356292D01*
X1358915Y-118771D01*
Y-129266D01*
X1356292Y-131890D01*
X1351044D01*
X1348420Y-129266D01*
Y-118771D01*
X978347Y-155517D02*
Y-171260D01*
X983594Y-166012D01*
X988842Y-171260D01*
Y-155517D01*
X994089Y-171260D02*
X999337D01*
X996713D01*
Y-160765D01*
X994089D01*
X1007209Y-171260D02*
Y-160765D01*
X1009832D01*
X1012456Y-163388D01*
Y-171260D01*
Y-163388D01*
X1015080Y-160765D01*
X1017704Y-163388D01*
Y-171260D01*
X1022952Y-155517D02*
Y-166012D01*
X1028199Y-171260D01*
X1033447Y-166012D01*
Y-155517D01*
X1049190Y-158141D02*
X1046566Y-155517D01*
X1041318D01*
X1038694Y-158141D01*
Y-168636D01*
X1041318Y-171260D01*
X1046566D01*
X1049190Y-168636D01*
Y-163388D01*
X1043942D01*
D15*
X0Y0D02*
Y48819D01*
X-0D02*
X73622D01*
X0Y0D02*
X73622D01*
X73622D02*
Y48819D01*
D16*
X-224410Y-177165D02*
X1429134D01*
X-224410D02*
Y992126D01*
X1429134Y-177165D02*
Y992126D01*
X-224410D02*
X1429134D01*
X1153543Y-177165D02*
Y-19685D01*
X956693Y-177165D02*
Y-19685D01*
X1429134D01*
X956693Y-137795D02*
X1429134D01*
X1153543Y-98425D02*
X1429134D01*
X1153543Y-59055D02*
X1429134D01*
X1311024Y-137795D02*
Y-98425D01*
X1167322Y-164372D02*
X1166338Y-163388D01*
X1164370D01*
X1163386Y-164372D01*
Y-165356D01*
X1164370Y-166340D01*
X1166338D01*
X1167322Y-167324D01*
Y-168307D01*
X1166338Y-169291D01*
X1164370D01*
X1163386Y-168307D01*
X1169289Y-163388D02*
X1171257D01*
X1170273D01*
Y-169291D01*
X1169289D01*
X1171257D01*
X1174209Y-163388D02*
X1178145Y-169291D01*
Y-163388D02*
X1174209Y-169291D01*
X1180113Y-163388D02*
X1184048Y-169291D01*
Y-163388D02*
X1180113Y-169291D01*
X1186016Y-163388D02*
Y-164372D01*
X1187984Y-166340D01*
X1189952Y-164372D01*
Y-163388D01*
X1187984Y-166340D02*
Y-169291D01*
X1191920Y-170275D02*
X1195856D01*
X1197824Y-164372D02*
X1198807Y-163388D01*
X1200775D01*
X1201759Y-164372D01*
Y-168307D01*
X1200775Y-169291D01*
X1198807D01*
X1197824Y-168307D01*
Y-164372D01*
X1203727D02*
X1204711Y-163388D01*
X1206679D01*
X1207663Y-164372D01*
Y-168307D01*
X1206679Y-169291D01*
X1204711D01*
X1203727Y-168307D01*
Y-164372D01*
X1209631Y-169291D02*
Y-168307D01*
X1210615D01*
Y-169291D01*
X1209631D01*
X1214550D02*
Y-163388D01*
X1217502D01*
X1218486Y-164372D01*
Y-166340D01*
X1217502Y-167324D01*
X1214550D01*
X1224390Y-165356D02*
X1221438D01*
X1220454Y-166340D01*
Y-168307D01*
X1221438Y-169291D01*
X1224390D01*
X1226358Y-163388D02*
Y-169291D01*
X1229309D01*
X1230293Y-168307D01*
Y-167324D01*
Y-166340D01*
X1229309Y-165356D01*
X1226358D01*
X1232261Y-163388D02*
Y-169291D01*
X1235213D01*
X1236197Y-168307D01*
Y-164372D01*
X1235213Y-163388D01*
X1232261D01*
X1239149Y-169291D02*
X1241117D01*
X1242101Y-168307D01*
Y-166340D01*
X1241117Y-165356D01*
X1239149D01*
X1238165Y-166340D01*
Y-168307D01*
X1239149Y-169291D01*
X1248004Y-165356D02*
X1245052D01*
X1244068Y-166340D01*
Y-168307D01*
X1245052Y-169291D01*
X1248004D01*
D17*
X1157480Y-141735D02*
Y-149606D01*
X1161416D01*
X1162728Y-148294D01*
Y-143047D01*
X1161416Y-141735D01*
X1157480D01*
X1166664Y-149606D02*
X1169287D01*
X1170599Y-148294D01*
Y-145671D01*
X1169287Y-144359D01*
X1166664D01*
X1165352Y-145671D01*
Y-148294D01*
X1166664Y-149606D01*
X1178471Y-144359D02*
X1174535D01*
X1173223Y-145671D01*
Y-148294D01*
X1174535Y-149606D01*
X1178471D01*
X1181095Y-144359D02*
Y-148294D01*
X1182407Y-149606D01*
X1186342D01*
Y-144359D01*
X1188966Y-149606D02*
Y-144359D01*
X1190278D01*
X1191590Y-145671D01*
Y-149606D01*
Y-145671D01*
X1192902Y-144359D01*
X1194214Y-145671D01*
Y-149606D01*
X1200774D02*
X1198150D01*
X1196838Y-148294D01*
Y-145671D01*
X1198150Y-144359D01*
X1200774D01*
X1202085Y-145671D01*
Y-146983D01*
X1196838D01*
X1204709Y-149606D02*
Y-144359D01*
X1208645D01*
X1209957Y-145671D01*
Y-149606D01*
X1213893Y-143047D02*
Y-144359D01*
X1212581D01*
X1215205D01*
X1213893D01*
Y-148294D01*
X1215205Y-149606D01*
X1157480Y-102365D02*
Y-110236D01*
X1161416D01*
X1162728Y-108924D01*
Y-103677D01*
X1161416Y-102365D01*
X1157480D01*
X1166664Y-104989D02*
X1169287D01*
X1170599Y-106300D01*
Y-110236D01*
X1166664D01*
X1165352Y-108924D01*
X1166664Y-107612D01*
X1170599D01*
X1174535Y-103677D02*
Y-104989D01*
X1173223D01*
X1175847D01*
X1174535D01*
Y-108924D01*
X1175847Y-110236D01*
X1183719D02*
X1181095D01*
X1179783Y-108924D01*
Y-106300D01*
X1181095Y-104989D01*
X1183719D01*
X1185030Y-106300D01*
Y-107612D01*
X1179783D01*
X1157480Y-62995D02*
Y-70866D01*
X1162728D01*
X1166664Y-65618D02*
X1169287D01*
X1170599Y-66930D01*
Y-70866D01*
X1166664D01*
X1165352Y-69554D01*
X1166664Y-68242D01*
X1170599D01*
X1173223Y-65618D02*
Y-69554D01*
X1174535Y-70866D01*
X1178471D01*
Y-72178D01*
X1177159Y-73490D01*
X1175847D01*
X1178471Y-70866D02*
Y-65618D01*
X1185030Y-70866D02*
X1182407D01*
X1181095Y-69554D01*
Y-66930D01*
X1182407Y-65618D01*
X1185030D01*
X1186342Y-66930D01*
Y-68242D01*
X1181095D01*
X1188966Y-65618D02*
Y-70866D01*
Y-68242D01*
X1190278Y-66930D01*
X1191590Y-65618D01*
X1192902D01*
X1204709Y-70866D02*
Y-62995D01*
X1209957Y-70866D01*
Y-62995D01*
X1213893Y-65618D02*
X1216516D01*
X1217828Y-66930D01*
Y-70866D01*
X1213893D01*
X1212581Y-69554D01*
X1213893Y-68242D01*
X1217828D01*
X1220452Y-70866D02*
Y-65618D01*
X1221764D01*
X1223076Y-66930D01*
Y-70866D01*
Y-66930D01*
X1224388Y-65618D01*
X1225700Y-66930D01*
Y-70866D01*
X1232259D02*
X1229636D01*
X1228324Y-69554D01*
Y-66930D01*
X1229636Y-65618D01*
X1232259D01*
X1233571Y-66930D01*
Y-68242D01*
X1228324D01*
X1157480Y-23625D02*
Y-31496D01*
X1161416D01*
X1162728Y-30184D01*
Y-24937D01*
X1161416Y-23625D01*
X1157480D01*
X1166664Y-31496D02*
X1169287D01*
X1170599Y-30184D01*
Y-27560D01*
X1169287Y-26248D01*
X1166664D01*
X1165352Y-27560D01*
Y-30184D01*
X1166664Y-31496D01*
X1178471Y-26248D02*
X1174535D01*
X1173223Y-27560D01*
Y-30184D01*
X1174535Y-31496D01*
X1178471D01*
X1181095Y-26248D02*
Y-30184D01*
X1182407Y-31496D01*
X1186342D01*
Y-26248D01*
X1188966Y-31496D02*
Y-26248D01*
X1190278D01*
X1191590Y-27560D01*
Y-31496D01*
Y-27560D01*
X1192902Y-26248D01*
X1194214Y-27560D01*
Y-31496D01*
X1200774D02*
X1198150D01*
X1196838Y-30184D01*
Y-27560D01*
X1198150Y-26248D01*
X1200774D01*
X1202085Y-27560D01*
Y-28872D01*
X1196838D01*
X1204709Y-31496D02*
Y-26248D01*
X1208645D01*
X1209957Y-27560D01*
Y-31496D01*
X1213893Y-24937D02*
Y-26248D01*
X1212581D01*
X1215205D01*
X1213893D01*
Y-30184D01*
X1215205Y-31496D01*
X960630Y-141735D02*
Y-149606D01*
X964566D01*
X965878Y-148294D01*
Y-143047D01*
X964566Y-141735D01*
X960630D01*
X972437Y-149606D02*
X969813D01*
X968501Y-148294D01*
Y-145671D01*
X969813Y-144359D01*
X972437D01*
X973749Y-145671D01*
Y-146983D01*
X968501D01*
X976373Y-149606D02*
X980309D01*
X981621Y-148294D01*
X980309Y-146983D01*
X977685D01*
X976373Y-145671D01*
X977685Y-144359D01*
X981621D01*
X986868Y-152230D02*
X988180D01*
X989492Y-150918D01*
Y-144359D01*
X985556D01*
X984244Y-145671D01*
Y-148294D01*
X985556Y-149606D01*
X989492D01*
X992116D02*
X994740D01*
X993428D01*
Y-144359D01*
X992116D01*
X998675Y-149606D02*
Y-144359D01*
X1002611D01*
X1003923Y-145671D01*
Y-149606D01*
X1010483D02*
X1007859D01*
X1006547Y-148294D01*
Y-145671D01*
X1007859Y-144359D01*
X1010483D01*
X1011794Y-145671D01*
Y-146983D01*
X1006547D01*
X1014418Y-144359D02*
Y-149606D01*
Y-146983D01*
X1015730Y-145671D01*
X1017042Y-144359D01*
X1018354D01*
X1314961Y-110236D02*
Y-102365D01*
X1318896D01*
X1320208Y-103677D01*
Y-106300D01*
X1318896Y-107612D01*
X1314961D01*
X1317584D02*
X1320208Y-110236D01*
X1326768D02*
X1324144D01*
X1322832Y-108924D01*
Y-106300D01*
X1324144Y-104989D01*
X1326768D01*
X1328080Y-106300D01*
Y-107612D01*
X1322832D01*
X1330704Y-104989D02*
X1333327Y-110236D01*
X1335951Y-104989D01*
D22*
X3543Y42461D02*
Y45669D01*
Y42461D02*
X9783Y36220D01*
X36319Y32874D02*
Y36122D01*
X8504Y36220D02*
X9783D01*
X26340Y25356D02*
Y36183D01*
X21260Y20276D02*
X26340Y25356D01*
X20079Y20276D02*
X21260D01*
X26340Y36183D02*
X26378Y36220D01*
D24*
X66339Y44488D02*
D03*
X3543Y45669D02*
D03*
X61417Y7283D02*
D03*
X7283Y10138D02*
D03*
X70669Y32972D02*
D03*
X36319Y32874D02*
D03*
X56299Y25689D02*
D03*
X35472Y15354D02*
D03*
X28740Y44783D02*
D03*
X54724Y34154D02*
D03*
X17224Y15157D02*
D03*
X15217Y24409D02*
D03*
X8721Y29469D02*
D03*
X34449Y4134D02*
D03*
X25394D02*
D03*
D25*
X66929Y24409D02*
D03*
Y34409D02*
D03*
Y14410D02*
D03*
X6693D02*
D03*
Y34409D02*
D03*
Y24409D02*
D03*
D26*
X28740Y20276D02*
D03*
Y17717D02*
D03*
Y15157D02*
D03*
X20079D02*
D03*
Y20276D02*
D03*
D27*
X28346Y29134D02*
D03*
X20472D02*
D03*
X24409D02*
D03*
X53311D02*
D03*
X45437D02*
D03*
X49374D02*
D03*
D28*
X15354Y43996D02*
D03*
X33465D02*
D03*
X40319D02*
D03*
X58429D02*
D03*
D29*
X45437Y23264D02*
Y29134D01*
Y23264D02*
X61417Y7283D01*
X63681Y14075D02*
X66929D01*
X35531Y3051D02*
X65059D01*
X34449Y4134D02*
X35531Y3051D01*
X65059D02*
X66929Y4921D01*
X7283Y10138D02*
Y13721D01*
X53445Y24311D02*
X63681Y14075D01*
X66929D02*
Y14410D01*
Y4921D02*
Y14075D01*
X9783Y36220D02*
X20472D01*
X53311Y24311D02*
Y29134D01*
X34449Y14091D02*
X35485Y14101D01*
X32776Y14075D02*
X34449Y14091D01*
X29528Y10827D02*
X32776Y14075D01*
X26378Y36220D02*
X28740D01*
X20472D02*
X26378D01*
X32776Y15157D02*
Y22539D01*
Y14075D02*
Y15157D01*
X25394Y10827D02*
X29528D01*
X13780D02*
X25394D01*
X28740Y36220D02*
X45437D01*
X10197Y14410D02*
X13780Y10827D01*
X6693Y14410D02*
X10197D01*
X45437Y36220D02*
X47110Y37894D01*
X60630D01*
X64114Y34409D01*
X66929D01*
X45437Y29134D02*
Y36220D01*
X28346Y26969D02*
X32776Y22539D01*
X28346Y26969D02*
Y29134D01*
X20472D02*
Y36220D01*
X6693Y34409D02*
X8504Y36220D01*
M02*
