G04*
G04 #@! TF.GenerationSoftware,Altium Limited,Altium Designer,18.1.9 (240)*
G04*
G04 Layer_Color=16711935*
%FSLAX25Y25*%
%MOIN*%
G70*
G01*
G75*
%ADD12C,0.01575*%
%ADD13R,0.00787X0.00787*%
%ADD14R,0.03150X0.03150*%
%ADD15C,0.00394*%
%ADD16C,0.00787*%
%ADD17C,0.00984*%
G36*
X1004477Y-50003D02*
X1006195D01*
Y-50289D01*
X1007054D01*
Y-50575D01*
X1007913D01*
Y-50862D01*
X1008772D01*
Y-51148D01*
X1009345D01*
Y-51434D01*
X1009631D01*
Y-51720D01*
X1010203D01*
Y-52007D01*
X1010490D01*
Y-52293D01*
X1011062D01*
Y-52579D01*
X1011349D01*
Y-52866D01*
X1011635D01*
Y-53152D01*
X1011921D01*
Y-53438D01*
X1012208D01*
Y-53725D01*
X1012494D01*
Y-54011D01*
X1012780D01*
Y-54297D01*
Y-54584D01*
X1013067D01*
Y-54870D01*
X1013353D01*
Y-55156D01*
Y-55443D01*
X1013639D01*
Y-55729D01*
X1013926D01*
Y-56015D01*
Y-56301D01*
X1014212D01*
Y-56588D01*
Y-56874D01*
Y-57161D01*
X1014498D01*
Y-57447D01*
Y-57733D01*
Y-58019D01*
X1014785D01*
Y-58306D01*
Y-58592D01*
Y-58878D01*
Y-59165D01*
X1015071D01*
Y-59451D01*
Y-59737D01*
Y-60024D01*
Y-60310D01*
Y-60596D01*
X1015357D01*
Y-60883D01*
Y-61169D01*
Y-61455D01*
Y-61742D01*
Y-62028D01*
Y-62314D01*
Y-62600D01*
Y-62887D01*
Y-63173D01*
Y-63459D01*
Y-63746D01*
Y-64032D01*
Y-64318D01*
Y-64605D01*
Y-64891D01*
Y-65177D01*
Y-65464D01*
Y-65750D01*
Y-66036D01*
Y-66322D01*
X1015071D01*
Y-66609D01*
Y-66895D01*
Y-67181D01*
Y-67468D01*
Y-67754D01*
Y-68040D01*
Y-68327D01*
X1014785D01*
Y-68613D01*
Y-68899D01*
Y-69186D01*
Y-69472D01*
Y-69758D01*
X1014498D01*
Y-70044D01*
Y-70331D01*
Y-70617D01*
Y-70903D01*
Y-71190D01*
X1014212D01*
Y-71476D01*
Y-71762D01*
Y-72049D01*
X1013926D01*
Y-72335D01*
Y-72621D01*
Y-72908D01*
Y-73194D01*
X1013639D01*
Y-73480D01*
Y-73767D01*
Y-74053D01*
X1013353D01*
Y-74339D01*
Y-74625D01*
X1013067D01*
Y-74912D01*
Y-75198D01*
Y-75485D01*
X1012780D01*
Y-75771D01*
Y-76057D01*
X1012494D01*
Y-76343D01*
Y-76630D01*
X1012208D01*
Y-76916D01*
Y-77202D01*
X1011921D01*
Y-77489D01*
X1011635D01*
Y-77775D01*
Y-78061D01*
X1011349D01*
Y-78348D01*
X1011062D01*
Y-78634D01*
X1010776D01*
Y-78920D01*
Y-79207D01*
X1010490D01*
Y-79493D01*
X1010203D01*
Y-79779D01*
X1009917D01*
Y-80066D01*
X1009631D01*
Y-80352D01*
X1009345D01*
Y-80638D01*
X1008772D01*
Y-80924D01*
X1008486D01*
Y-81211D01*
X1007913D01*
Y-81497D01*
X1007627D01*
Y-81783D01*
X1007054D01*
Y-82070D01*
X1006195D01*
Y-82356D01*
X1005336D01*
Y-82642D01*
X1004477D01*
Y-82929D01*
X1002759D01*
Y-83215D01*
X997606D01*
Y-82929D01*
X995029D01*
Y-82642D01*
X993025D01*
Y-82356D01*
X991593D01*
Y-82070D01*
X990162D01*
Y-81783D01*
X988730D01*
Y-82070D01*
Y-82356D01*
Y-82642D01*
Y-82929D01*
Y-83215D01*
Y-83501D01*
Y-83788D01*
X988444D01*
Y-84074D01*
Y-84360D01*
Y-84646D01*
Y-84933D01*
Y-85219D01*
Y-85505D01*
X988157D01*
Y-85792D01*
Y-86078D01*
Y-86364D01*
Y-86651D01*
Y-86937D01*
Y-87223D01*
X987871D01*
Y-87510D01*
Y-87796D01*
Y-88082D01*
Y-88369D01*
Y-88655D01*
Y-88941D01*
Y-89227D01*
X987585D01*
Y-89514D01*
Y-89800D01*
Y-90086D01*
Y-90373D01*
Y-90659D01*
Y-90945D01*
X987298D01*
Y-91232D01*
Y-91518D01*
Y-91804D01*
Y-92091D01*
Y-92377D01*
Y-92663D01*
X987012D01*
Y-92950D01*
Y-93236D01*
Y-93522D01*
Y-93809D01*
Y-94095D01*
Y-94381D01*
Y-94667D01*
X986726D01*
Y-94954D01*
Y-95240D01*
Y-95526D01*
Y-95813D01*
Y-96099D01*
Y-96385D01*
X986440D01*
Y-96672D01*
Y-96958D01*
Y-97244D01*
Y-97531D01*
Y-97817D01*
Y-98103D01*
X986153D01*
Y-98390D01*
Y-98676D01*
Y-98962D01*
Y-99248D01*
Y-99535D01*
Y-99821D01*
Y-100107D01*
X972696D01*
Y-99821D01*
X972983D01*
Y-99535D01*
Y-99248D01*
Y-98962D01*
Y-98676D01*
Y-98390D01*
X973269D01*
Y-98103D01*
Y-97817D01*
Y-97531D01*
Y-97244D01*
Y-96958D01*
Y-96672D01*
Y-96385D01*
X973555D01*
Y-96099D01*
Y-95813D01*
Y-95526D01*
Y-95240D01*
Y-94954D01*
Y-94667D01*
X973842D01*
Y-94381D01*
Y-94095D01*
Y-93809D01*
Y-93522D01*
Y-93236D01*
Y-92950D01*
X974128D01*
Y-92663D01*
Y-92377D01*
Y-92091D01*
Y-91804D01*
Y-91518D01*
Y-91232D01*
Y-90945D01*
X974414D01*
Y-90659D01*
Y-90373D01*
Y-90086D01*
Y-89800D01*
Y-89514D01*
Y-89227D01*
X974701D01*
Y-88941D01*
Y-88655D01*
Y-88369D01*
Y-88082D01*
Y-87796D01*
Y-87510D01*
X974987D01*
Y-87223D01*
Y-86937D01*
Y-86651D01*
Y-86364D01*
Y-86078D01*
Y-85792D01*
X975273D01*
Y-85505D01*
Y-85219D01*
Y-84933D01*
Y-84646D01*
Y-84360D01*
Y-84074D01*
Y-83788D01*
X975560D01*
Y-83501D01*
Y-83215D01*
Y-82929D01*
Y-82642D01*
Y-82356D01*
Y-82070D01*
X975846D01*
Y-81783D01*
Y-81497D01*
Y-81211D01*
Y-80924D01*
Y-80638D01*
Y-80352D01*
X976132D01*
Y-80066D01*
Y-79779D01*
Y-79493D01*
Y-79207D01*
Y-78920D01*
Y-78634D01*
X976419D01*
Y-78348D01*
Y-78061D01*
Y-77775D01*
Y-77489D01*
Y-77202D01*
Y-76916D01*
Y-76630D01*
X976705D01*
Y-76343D01*
Y-76057D01*
Y-75771D01*
Y-75485D01*
Y-75198D01*
Y-74912D01*
X976991D01*
Y-74625D01*
Y-74339D01*
Y-74053D01*
Y-73767D01*
Y-73480D01*
Y-73194D01*
X977277D01*
Y-72908D01*
Y-72621D01*
Y-72335D01*
Y-72049D01*
Y-71762D01*
Y-71476D01*
Y-71190D01*
X977564D01*
Y-70903D01*
Y-70617D01*
Y-70331D01*
Y-70044D01*
Y-69758D01*
Y-69472D01*
X977850D01*
Y-69186D01*
Y-68899D01*
Y-68613D01*
Y-68327D01*
Y-68040D01*
Y-67754D01*
X978137D01*
Y-67468D01*
Y-67181D01*
Y-66895D01*
Y-66609D01*
Y-66322D01*
Y-66036D01*
X978423D01*
Y-65750D01*
Y-65464D01*
Y-65177D01*
Y-64891D01*
Y-64605D01*
Y-64318D01*
Y-64032D01*
X978709D01*
Y-63746D01*
Y-63459D01*
Y-63173D01*
Y-62887D01*
Y-62600D01*
Y-62314D01*
X978995D01*
Y-62028D01*
Y-61742D01*
Y-61455D01*
Y-61169D01*
Y-60883D01*
Y-60596D01*
X979282D01*
Y-60310D01*
Y-60024D01*
Y-59737D01*
Y-59451D01*
Y-59165D01*
Y-58878D01*
Y-58592D01*
X979568D01*
Y-58306D01*
Y-58019D01*
Y-57733D01*
Y-57447D01*
Y-57161D01*
Y-56874D01*
X979854D01*
Y-56588D01*
Y-56301D01*
Y-56015D01*
Y-55729D01*
Y-55443D01*
Y-55156D01*
X980141D01*
Y-54870D01*
Y-54584D01*
Y-54297D01*
Y-54011D01*
Y-53725D01*
Y-53438D01*
Y-53152D01*
X980427D01*
Y-52866D01*
Y-52579D01*
Y-52293D01*
Y-52007D01*
Y-51720D01*
Y-51434D01*
X980713D01*
Y-51148D01*
Y-50862D01*
Y-50575D01*
Y-50289D01*
Y-50003D01*
Y-49716D01*
X1004477D01*
Y-50003D01*
D02*
G37*
G36*
X1035685Y-46567D02*
Y-46853D01*
X1035399D01*
Y-47139D01*
Y-47426D01*
Y-47712D01*
Y-47998D01*
Y-48285D01*
Y-48571D01*
X1035113D01*
Y-48857D01*
Y-49144D01*
Y-49430D01*
Y-49716D01*
Y-50003D01*
Y-50289D01*
X1034826D01*
Y-50575D01*
Y-50862D01*
Y-51148D01*
Y-51434D01*
Y-51720D01*
Y-52007D01*
Y-52293D01*
X1034540D01*
Y-52579D01*
Y-52866D01*
Y-53152D01*
Y-53438D01*
Y-53725D01*
Y-54011D01*
X1034254D01*
Y-54297D01*
Y-54584D01*
Y-54870D01*
Y-55156D01*
Y-55443D01*
Y-55729D01*
X1033967D01*
Y-56015D01*
Y-56301D01*
Y-56588D01*
Y-56874D01*
Y-57161D01*
Y-57447D01*
Y-57733D01*
X1033681D01*
Y-58019D01*
Y-58306D01*
Y-58592D01*
Y-58878D01*
Y-59165D01*
Y-59451D01*
X1033395D01*
Y-59737D01*
Y-60024D01*
Y-60310D01*
Y-60596D01*
Y-60883D01*
Y-61169D01*
X1033109D01*
Y-61455D01*
Y-61742D01*
Y-62028D01*
Y-62314D01*
Y-62600D01*
Y-62887D01*
X1032822D01*
Y-63173D01*
Y-63459D01*
Y-63746D01*
Y-64032D01*
Y-64318D01*
Y-64605D01*
Y-64891D01*
X1032536D01*
Y-65177D01*
Y-65464D01*
Y-65750D01*
Y-66036D01*
Y-66322D01*
Y-66609D01*
X1032250D01*
Y-66895D01*
Y-67181D01*
X1032822D01*
Y-66895D01*
X1033109D01*
Y-66609D01*
X1033395D01*
Y-66322D01*
X1033967D01*
Y-66036D01*
X1034254D01*
Y-65750D01*
X1034540D01*
Y-65464D01*
X1035113D01*
Y-65177D01*
X1035685D01*
Y-64891D01*
X1035972D01*
Y-64605D01*
X1036544D01*
Y-64318D01*
X1037403D01*
Y-64032D01*
X1037976D01*
Y-63746D01*
X1038835D01*
Y-63459D01*
X1040266D01*
Y-63173D01*
X1046565D01*
Y-63459D01*
X1047711D01*
Y-63746D01*
X1048569D01*
Y-64032D01*
X1049142D01*
Y-64318D01*
X1049428D01*
Y-64605D01*
X1050001D01*
Y-64891D01*
X1050287D01*
Y-65177D01*
X1050574D01*
Y-65464D01*
X1050860D01*
Y-65750D01*
X1051146D01*
Y-66036D01*
Y-66322D01*
X1051433D01*
Y-66609D01*
Y-66895D01*
X1051719D01*
Y-67181D01*
Y-67468D01*
Y-67754D01*
X1052005D01*
Y-68040D01*
Y-68327D01*
Y-68613D01*
Y-68899D01*
X1052291D01*
Y-69186D01*
Y-69472D01*
Y-69758D01*
Y-70044D01*
Y-70331D01*
Y-70617D01*
Y-70903D01*
Y-71190D01*
Y-71476D01*
Y-71762D01*
Y-72049D01*
Y-72335D01*
Y-72621D01*
Y-72908D01*
Y-73194D01*
Y-73480D01*
Y-73767D01*
Y-74053D01*
X1052005D01*
Y-74339D01*
Y-74625D01*
Y-74912D01*
Y-75198D01*
Y-75485D01*
Y-75771D01*
Y-76057D01*
X1051719D01*
Y-76343D01*
Y-76630D01*
Y-76916D01*
Y-77202D01*
Y-77489D01*
Y-77775D01*
Y-78061D01*
X1051433D01*
Y-78348D01*
Y-78634D01*
Y-78920D01*
Y-79207D01*
Y-79493D01*
Y-79779D01*
X1051146D01*
Y-80066D01*
Y-80352D01*
Y-80638D01*
Y-80924D01*
Y-81211D01*
Y-81497D01*
X1050860D01*
Y-81783D01*
Y-82070D01*
Y-82356D01*
Y-82642D01*
Y-82929D01*
Y-83215D01*
X1050574D01*
Y-83501D01*
Y-83788D01*
Y-84074D01*
Y-84360D01*
Y-84646D01*
Y-84933D01*
Y-85219D01*
X1050287D01*
Y-85505D01*
Y-85792D01*
Y-86078D01*
Y-86364D01*
Y-86651D01*
Y-86937D01*
X1050001D01*
Y-87223D01*
Y-87510D01*
Y-87796D01*
Y-88082D01*
Y-88369D01*
Y-88655D01*
X1049715D01*
Y-88941D01*
Y-89227D01*
Y-89514D01*
Y-89800D01*
Y-90086D01*
Y-90373D01*
Y-90659D01*
X1049428D01*
Y-90945D01*
Y-91232D01*
Y-91518D01*
Y-91804D01*
Y-92091D01*
Y-92377D01*
X1049142D01*
Y-92663D01*
Y-92950D01*
Y-93236D01*
Y-93522D01*
Y-93809D01*
Y-94095D01*
X1048856D01*
Y-94381D01*
Y-94667D01*
Y-94954D01*
Y-95240D01*
Y-95526D01*
Y-95813D01*
X1048569D01*
Y-96099D01*
Y-96385D01*
Y-96672D01*
Y-96958D01*
Y-97244D01*
Y-97531D01*
Y-97817D01*
X1048283D01*
Y-98103D01*
Y-98390D01*
Y-98676D01*
Y-98962D01*
Y-99248D01*
Y-99535D01*
X1047997D01*
Y-99821D01*
Y-100107D01*
X1034826D01*
Y-99821D01*
Y-99535D01*
X1035113D01*
Y-99248D01*
Y-98962D01*
Y-98676D01*
Y-98390D01*
Y-98103D01*
Y-97817D01*
X1035399D01*
Y-97531D01*
Y-97244D01*
Y-96958D01*
Y-96672D01*
Y-96385D01*
Y-96099D01*
Y-95813D01*
X1035685D01*
Y-95526D01*
Y-95240D01*
Y-94954D01*
Y-94667D01*
Y-94381D01*
Y-94095D01*
X1035972D01*
Y-93809D01*
Y-93522D01*
Y-93236D01*
Y-92950D01*
Y-92663D01*
Y-92377D01*
X1036258D01*
Y-92091D01*
Y-91804D01*
Y-91518D01*
Y-91232D01*
Y-90945D01*
Y-90659D01*
Y-90373D01*
X1036544D01*
Y-90086D01*
Y-89800D01*
Y-89514D01*
Y-89227D01*
Y-88941D01*
Y-88655D01*
X1036831D01*
Y-88369D01*
Y-88082D01*
Y-87796D01*
Y-87510D01*
Y-87223D01*
Y-86937D01*
Y-86651D01*
X1037117D01*
Y-86364D01*
Y-86078D01*
Y-85792D01*
Y-85505D01*
Y-85219D01*
Y-84933D01*
X1037403D01*
Y-84646D01*
Y-84360D01*
Y-84074D01*
Y-83788D01*
Y-83501D01*
Y-83215D01*
X1037689D01*
Y-82929D01*
Y-82642D01*
Y-82356D01*
Y-82070D01*
Y-81783D01*
Y-81497D01*
X1037976D01*
Y-81211D01*
Y-80924D01*
Y-80638D01*
Y-80352D01*
Y-80066D01*
Y-79779D01*
Y-79493D01*
X1038262D01*
Y-79207D01*
Y-78920D01*
Y-78634D01*
Y-78348D01*
Y-78061D01*
Y-77775D01*
X1038548D01*
Y-77489D01*
Y-77202D01*
Y-76916D01*
Y-76630D01*
Y-76343D01*
Y-76057D01*
Y-75771D01*
X1038835D01*
Y-75485D01*
Y-75198D01*
Y-74912D01*
Y-74625D01*
Y-74339D01*
Y-74053D01*
X1038548D01*
Y-73767D01*
Y-73480D01*
X1038262D01*
Y-73194D01*
X1037976D01*
Y-72908D01*
X1037403D01*
Y-72621D01*
X1035685D01*
Y-72908D01*
X1034254D01*
Y-73194D01*
X1033395D01*
Y-73480D01*
X1032822D01*
Y-73767D01*
X1032536D01*
Y-74053D01*
X1031963D01*
Y-74339D01*
X1031677D01*
Y-74625D01*
X1031391D01*
Y-74912D01*
Y-75198D01*
X1031104D01*
Y-75485D01*
Y-75771D01*
Y-76057D01*
X1030818D01*
Y-76343D01*
Y-76630D01*
Y-76916D01*
Y-77202D01*
Y-77489D01*
Y-77775D01*
X1030532D01*
Y-78061D01*
Y-78348D01*
Y-78634D01*
Y-78920D01*
Y-79207D01*
Y-79493D01*
Y-79779D01*
X1030245D01*
Y-80066D01*
Y-80352D01*
Y-80638D01*
Y-80924D01*
Y-81211D01*
Y-81497D01*
X1029959D01*
Y-81783D01*
Y-82070D01*
Y-82356D01*
Y-82642D01*
Y-82929D01*
Y-83215D01*
X1029673D01*
Y-83501D01*
Y-83788D01*
Y-84074D01*
Y-84360D01*
Y-84646D01*
Y-84933D01*
X1029387D01*
Y-85219D01*
Y-85505D01*
Y-85792D01*
Y-86078D01*
Y-86364D01*
Y-86651D01*
Y-86937D01*
X1029100D01*
Y-87223D01*
Y-87510D01*
Y-87796D01*
Y-88082D01*
Y-88369D01*
Y-88655D01*
X1028814D01*
Y-88941D01*
Y-89227D01*
Y-89514D01*
Y-89800D01*
Y-90086D01*
Y-90373D01*
X1028528D01*
Y-90659D01*
Y-90945D01*
Y-91232D01*
Y-91518D01*
Y-91804D01*
Y-92091D01*
Y-92377D01*
X1028241D01*
Y-92663D01*
Y-92950D01*
Y-93236D01*
Y-93522D01*
Y-93809D01*
Y-94095D01*
X1027955D01*
Y-94381D01*
Y-94667D01*
Y-94954D01*
Y-95240D01*
Y-95526D01*
Y-95813D01*
X1027669D01*
Y-96099D01*
Y-96385D01*
Y-96672D01*
Y-96958D01*
Y-97244D01*
Y-97531D01*
X1027382D01*
Y-97817D01*
Y-98103D01*
Y-98390D01*
Y-98676D01*
Y-98962D01*
Y-99248D01*
Y-99535D01*
X1027096D01*
Y-99821D01*
Y-100107D01*
X1013926D01*
Y-99821D01*
Y-99535D01*
X1014212D01*
Y-99248D01*
Y-98962D01*
Y-98676D01*
Y-98390D01*
Y-98103D01*
Y-97817D01*
Y-97531D01*
X1014498D01*
Y-97244D01*
Y-96958D01*
Y-96672D01*
Y-96385D01*
Y-96099D01*
Y-95813D01*
X1014785D01*
Y-95526D01*
Y-95240D01*
Y-94954D01*
Y-94667D01*
Y-94381D01*
Y-94095D01*
X1015071D01*
Y-93809D01*
Y-93522D01*
Y-93236D01*
Y-92950D01*
Y-92663D01*
Y-92377D01*
Y-92091D01*
X1015357D01*
Y-91804D01*
Y-91518D01*
Y-91232D01*
Y-90945D01*
Y-90659D01*
Y-90373D01*
X1015643D01*
Y-90086D01*
Y-89800D01*
Y-89514D01*
Y-89227D01*
Y-88941D01*
Y-88655D01*
X1015930D01*
Y-88369D01*
Y-88082D01*
Y-87796D01*
Y-87510D01*
Y-87223D01*
Y-86937D01*
X1016216D01*
Y-86651D01*
Y-86364D01*
Y-86078D01*
Y-85792D01*
Y-85505D01*
Y-85219D01*
Y-84933D01*
X1016502D01*
Y-84646D01*
Y-84360D01*
Y-84074D01*
Y-83788D01*
Y-83501D01*
Y-83215D01*
X1016789D01*
Y-82929D01*
Y-82642D01*
Y-82356D01*
Y-82070D01*
Y-81783D01*
Y-81497D01*
X1017075D01*
Y-81211D01*
Y-80924D01*
Y-80638D01*
Y-80352D01*
Y-80066D01*
Y-79779D01*
Y-79493D01*
X1017361D01*
Y-79207D01*
Y-78920D01*
Y-78634D01*
Y-78348D01*
Y-78061D01*
Y-77775D01*
X1017648D01*
Y-77489D01*
Y-77202D01*
Y-76916D01*
Y-76630D01*
Y-76343D01*
Y-76057D01*
X1017934D01*
Y-75771D01*
Y-75485D01*
Y-75198D01*
Y-74912D01*
Y-74625D01*
Y-74339D01*
X1018220D01*
Y-74053D01*
Y-73767D01*
Y-73480D01*
Y-73194D01*
Y-72908D01*
Y-72621D01*
Y-72335D01*
X1018507D01*
Y-72049D01*
Y-71762D01*
Y-71476D01*
Y-71190D01*
Y-70903D01*
Y-70617D01*
X1018793D01*
Y-70331D01*
Y-70044D01*
Y-69758D01*
Y-69472D01*
Y-69186D01*
Y-68899D01*
X1019079D01*
Y-68613D01*
Y-68327D01*
Y-68040D01*
Y-67754D01*
Y-67468D01*
Y-67181D01*
X1019366D01*
Y-66895D01*
Y-66609D01*
Y-66322D01*
Y-66036D01*
Y-65750D01*
Y-65464D01*
Y-65177D01*
X1019652D01*
Y-64891D01*
Y-64605D01*
Y-64318D01*
Y-64032D01*
Y-63746D01*
Y-63459D01*
X1019938D01*
Y-63173D01*
Y-62887D01*
Y-62600D01*
Y-62314D01*
Y-62028D01*
Y-61742D01*
X1020224D01*
Y-61455D01*
Y-61169D01*
Y-60883D01*
Y-60596D01*
Y-60310D01*
Y-60024D01*
Y-59737D01*
X1020511D01*
Y-59451D01*
Y-59165D01*
Y-58878D01*
Y-58592D01*
Y-58306D01*
Y-58019D01*
X1020797D01*
Y-57733D01*
Y-57447D01*
Y-57161D01*
Y-56874D01*
Y-56588D01*
Y-56301D01*
X1021083D01*
Y-56015D01*
Y-55729D01*
Y-55443D01*
Y-55156D01*
Y-54870D01*
Y-54584D01*
X1021370D01*
Y-54297D01*
Y-54011D01*
Y-53725D01*
Y-53438D01*
Y-53152D01*
Y-52866D01*
Y-52579D01*
X1021656D01*
Y-52293D01*
Y-52007D01*
Y-51720D01*
Y-51434D01*
Y-51148D01*
Y-50862D01*
X1021942D01*
Y-50575D01*
Y-50289D01*
Y-50003D01*
Y-49716D01*
Y-49430D01*
Y-49144D01*
X1022229D01*
Y-48857D01*
Y-48571D01*
Y-48285D01*
Y-47998D01*
Y-47712D01*
Y-47426D01*
Y-47139D01*
X1022515D01*
Y-46853D01*
Y-46567D01*
Y-46281D01*
X1035685D01*
Y-46567D01*
D02*
G37*
G36*
X1137613Y-64032D02*
X1137326D01*
Y-64318D01*
X1137040D01*
Y-64605D01*
Y-64891D01*
X1136754D01*
Y-65177D01*
X1136467D01*
Y-65464D01*
X1136181D01*
Y-65750D01*
Y-66036D01*
X1135895D01*
Y-66322D01*
X1135608D01*
Y-66609D01*
X1135322D01*
Y-66895D01*
X1135036D01*
Y-67181D01*
Y-67468D01*
X1134750D01*
Y-67754D01*
X1134463D01*
Y-68040D01*
X1134177D01*
Y-68327D01*
Y-68613D01*
X1133891D01*
Y-68899D01*
X1133604D01*
Y-69186D01*
X1133318D01*
Y-69472D01*
X1133032D01*
Y-69758D01*
Y-70044D01*
X1132745D01*
Y-70331D01*
X1132459D01*
Y-70617D01*
X1132173D01*
Y-70903D01*
Y-71190D01*
X1131886D01*
Y-71476D01*
X1131600D01*
Y-71762D01*
X1131314D01*
Y-72049D01*
Y-72335D01*
X1131028D01*
Y-72621D01*
X1130741D01*
Y-72908D01*
X1130455D01*
Y-73194D01*
X1130169D01*
Y-73480D01*
Y-73767D01*
X1129882D01*
Y-74053D01*
X1129596D01*
Y-74339D01*
X1129310D01*
Y-74625D01*
Y-74912D01*
X1129023D01*
Y-75198D01*
X1128737D01*
Y-75485D01*
X1128451D01*
Y-75771D01*
Y-76057D01*
X1128164D01*
Y-76343D01*
X1127878D01*
Y-76630D01*
X1127592D01*
Y-76916D01*
X1127306D01*
Y-77202D01*
Y-77489D01*
X1127019D01*
Y-77775D01*
X1126733D01*
Y-78061D01*
X1126447D01*
Y-78348D01*
Y-78634D01*
X1126160D01*
Y-78920D01*
X1125874D01*
Y-79207D01*
X1125588D01*
Y-79493D01*
Y-79779D01*
X1125301D01*
Y-80066D01*
X1125015D01*
Y-80352D01*
X1124729D01*
Y-80638D01*
X1124442D01*
Y-80924D01*
Y-81211D01*
X1124156D01*
Y-81497D01*
X1123870D01*
Y-81783D01*
X1123583D01*
Y-82070D01*
Y-82356D01*
X1123297D01*
Y-82642D01*
X1123011D01*
Y-82929D01*
X1122725D01*
Y-83215D01*
X1122438D01*
Y-83501D01*
Y-83788D01*
X1122725D01*
Y-84074D01*
Y-84360D01*
X1123011D01*
Y-84646D01*
Y-84933D01*
X1123297D01*
Y-85219D01*
X1123583D01*
Y-85505D01*
Y-85792D01*
X1123870D01*
Y-86078D01*
Y-86364D01*
X1124156D01*
Y-86651D01*
Y-86937D01*
X1124442D01*
Y-87223D01*
Y-87510D01*
X1124729D01*
Y-87796D01*
Y-88082D01*
X1125015D01*
Y-88369D01*
Y-88655D01*
X1125301D01*
Y-88941D01*
Y-89227D01*
X1125588D01*
Y-89514D01*
Y-89800D01*
X1125874D01*
Y-90086D01*
X1126160D01*
Y-90373D01*
Y-90659D01*
X1126447D01*
Y-90945D01*
Y-91232D01*
X1126733D01*
Y-91518D01*
Y-91804D01*
X1127019D01*
Y-92091D01*
Y-92377D01*
X1127306D01*
Y-92663D01*
Y-92950D01*
X1127592D01*
Y-93236D01*
Y-93522D01*
X1127878D01*
Y-93809D01*
Y-94095D01*
X1128164D01*
Y-94381D01*
X1128451D01*
Y-94667D01*
Y-94954D01*
X1128737D01*
Y-95240D01*
Y-95526D01*
X1129023D01*
Y-95813D01*
Y-96099D01*
X1129310D01*
Y-96385D01*
Y-96672D01*
X1129596D01*
Y-96958D01*
Y-97244D01*
X1129882D01*
Y-97531D01*
Y-97817D01*
X1130169D01*
Y-98103D01*
Y-98390D01*
X1130455D01*
Y-98676D01*
X1130741D01*
Y-98962D01*
Y-99248D01*
X1131028D01*
Y-99535D01*
Y-99821D01*
X1131314D01*
Y-100107D01*
X1116139D01*
Y-99821D01*
X1115853D01*
Y-99535D01*
Y-99248D01*
Y-98962D01*
X1115567D01*
Y-98676D01*
Y-98390D01*
Y-98103D01*
X1115280D01*
Y-97817D01*
Y-97531D01*
X1114994D01*
Y-97244D01*
Y-96958D01*
Y-96672D01*
X1114708D01*
Y-96385D01*
Y-96099D01*
Y-95813D01*
X1114421D01*
Y-95526D01*
Y-95240D01*
X1114135D01*
Y-94954D01*
Y-94667D01*
Y-94381D01*
X1113849D01*
Y-94095D01*
Y-93809D01*
Y-93522D01*
X1113562D01*
Y-93236D01*
Y-92950D01*
Y-92663D01*
X1113276D01*
Y-92377D01*
X1112704D01*
Y-92663D01*
Y-92950D01*
X1112417D01*
Y-93236D01*
X1112131D01*
Y-93522D01*
Y-93809D01*
X1111845D01*
Y-94095D01*
X1111558D01*
Y-94381D01*
Y-94667D01*
X1111272D01*
Y-94954D01*
X1110986D01*
Y-95240D01*
Y-95526D01*
X1110699D01*
Y-95813D01*
X1110413D01*
Y-96099D01*
X1110127D01*
Y-96385D01*
Y-96672D01*
X1109840D01*
Y-96958D01*
X1109554D01*
Y-97244D01*
Y-97531D01*
X1109268D01*
Y-97817D01*
X1108981D01*
Y-98103D01*
Y-98390D01*
X1108695D01*
Y-98676D01*
X1108409D01*
Y-98962D01*
Y-99248D01*
X1108123D01*
Y-99535D01*
X1107836D01*
Y-99821D01*
Y-100107D01*
X1091803D01*
Y-99821D01*
X1092089D01*
Y-99535D01*
X1092375D01*
Y-99248D01*
X1092662D01*
Y-98962D01*
X1092948D01*
Y-98676D01*
Y-98390D01*
X1093234D01*
Y-98103D01*
X1093521D01*
Y-97817D01*
X1093807D01*
Y-97531D01*
X1094093D01*
Y-97244D01*
Y-96958D01*
X1094380D01*
Y-96672D01*
X1094666D01*
Y-96385D01*
X1094952D01*
Y-96099D01*
Y-95813D01*
X1095238D01*
Y-95526D01*
X1095525D01*
Y-95240D01*
X1095811D01*
Y-94954D01*
X1096097D01*
Y-94667D01*
Y-94381D01*
X1096384D01*
Y-94095D01*
X1096670D01*
Y-93809D01*
X1096956D01*
Y-93522D01*
X1097243D01*
Y-93236D01*
Y-92950D01*
X1097529D01*
Y-92663D01*
X1097815D01*
Y-92377D01*
X1098102D01*
Y-92091D01*
Y-91804D01*
X1098388D01*
Y-91518D01*
X1098674D01*
Y-91232D01*
X1098960D01*
Y-90945D01*
X1099247D01*
Y-90659D01*
Y-90373D01*
X1099533D01*
Y-90086D01*
X1099819D01*
Y-89800D01*
X1100106D01*
Y-89514D01*
Y-89227D01*
X1100392D01*
Y-88941D01*
X1100678D01*
Y-88655D01*
X1100965D01*
Y-88369D01*
X1101251D01*
Y-88082D01*
Y-87796D01*
X1101537D01*
Y-87510D01*
X1101824D01*
Y-87223D01*
X1102110D01*
Y-86937D01*
Y-86651D01*
X1102396D01*
Y-86364D01*
X1102683D01*
Y-86078D01*
X1102969D01*
Y-85792D01*
X1103255D01*
Y-85505D01*
Y-85219D01*
X1103541D01*
Y-84933D01*
X1103828D01*
Y-84646D01*
X1104114D01*
Y-84360D01*
X1104400D01*
Y-84074D01*
Y-83788D01*
X1104687D01*
Y-83501D01*
X1104973D01*
Y-83215D01*
X1105259D01*
Y-82929D01*
Y-82642D01*
X1105546D01*
Y-82356D01*
X1105832D01*
Y-82070D01*
X1106118D01*
Y-81783D01*
X1106405D01*
Y-81497D01*
Y-81211D01*
X1106691D01*
Y-80924D01*
Y-80638D01*
Y-80352D01*
X1106405D01*
Y-80066D01*
X1106118D01*
Y-79779D01*
Y-79493D01*
X1105832D01*
Y-79207D01*
Y-78920D01*
X1105546D01*
Y-78634D01*
Y-78348D01*
X1105259D01*
Y-78061D01*
Y-77775D01*
X1104973D01*
Y-77489D01*
Y-77202D01*
X1104687D01*
Y-76916D01*
Y-76630D01*
X1104400D01*
Y-76343D01*
X1104114D01*
Y-76057D01*
Y-75771D01*
X1103828D01*
Y-75485D01*
Y-75198D01*
X1103541D01*
Y-74912D01*
Y-74625D01*
X1103255D01*
Y-74339D01*
Y-74053D01*
X1102969D01*
Y-73767D01*
Y-73480D01*
X1102683D01*
Y-73194D01*
Y-72908D01*
X1102396D01*
Y-72621D01*
X1102110D01*
Y-72335D01*
Y-72049D01*
X1101824D01*
Y-71762D01*
Y-71476D01*
X1101537D01*
Y-71190D01*
Y-70903D01*
X1101251D01*
Y-70617D01*
Y-70331D01*
X1100965D01*
Y-70044D01*
Y-69758D01*
X1100678D01*
Y-69472D01*
Y-69186D01*
X1100392D01*
Y-68899D01*
Y-68613D01*
X1100106D01*
Y-68327D01*
X1099819D01*
Y-68040D01*
Y-67754D01*
X1099533D01*
Y-67468D01*
Y-67181D01*
X1099247D01*
Y-66895D01*
Y-66609D01*
X1098960D01*
Y-66322D01*
Y-66036D01*
X1098674D01*
Y-65750D01*
Y-65464D01*
X1098388D01*
Y-65177D01*
Y-64891D01*
X1098102D01*
Y-64605D01*
X1097815D01*
Y-64318D01*
Y-64032D01*
X1097529D01*
Y-63746D01*
X1113276D01*
Y-64032D01*
X1113562D01*
Y-64318D01*
Y-64605D01*
Y-64891D01*
X1113849D01*
Y-65177D01*
Y-65464D01*
Y-65750D01*
X1114135D01*
Y-66036D01*
Y-66322D01*
Y-66609D01*
X1114421D01*
Y-66895D01*
Y-67181D01*
Y-67468D01*
X1114708D01*
Y-67754D01*
Y-68040D01*
Y-68327D01*
X1114994D01*
Y-68613D01*
Y-68899D01*
Y-69186D01*
X1115280D01*
Y-69472D01*
Y-69758D01*
Y-70044D01*
X1115567D01*
Y-70331D01*
Y-70617D01*
Y-70903D01*
X1115853D01*
Y-71190D01*
Y-71476D01*
Y-71762D01*
Y-72049D01*
X1116426D01*
Y-71762D01*
X1116712D01*
Y-71476D01*
X1116998D01*
Y-71190D01*
Y-70903D01*
X1117284D01*
Y-70617D01*
X1117571D01*
Y-70331D01*
Y-70044D01*
X1117857D01*
Y-69758D01*
X1118143D01*
Y-69472D01*
Y-69186D01*
X1118430D01*
Y-68899D01*
X1118716D01*
Y-68613D01*
Y-68327D01*
X1119002D01*
Y-68040D01*
X1119289D01*
Y-67754D01*
Y-67468D01*
X1119575D01*
Y-67181D01*
X1119861D01*
Y-66895D01*
Y-66609D01*
X1120148D01*
Y-66322D01*
X1120434D01*
Y-66036D01*
Y-65750D01*
X1120720D01*
Y-65464D01*
X1121007D01*
Y-65177D01*
Y-64891D01*
X1121293D01*
Y-64605D01*
X1121579D01*
Y-64318D01*
Y-64032D01*
X1121865D01*
Y-63746D01*
X1137613D01*
Y-64032D01*
D02*
G37*
G36*
X1093521D02*
Y-64318D01*
Y-64605D01*
Y-64891D01*
Y-65177D01*
Y-65464D01*
Y-65750D01*
Y-66036D01*
Y-66322D01*
Y-66609D01*
Y-66895D01*
Y-67181D01*
Y-67468D01*
Y-67754D01*
Y-68040D01*
Y-68327D01*
Y-68613D01*
Y-68899D01*
Y-69186D01*
Y-69472D01*
Y-69758D01*
X1093234D01*
Y-70044D01*
Y-70331D01*
Y-70617D01*
Y-70903D01*
Y-71190D01*
X1092948D01*
Y-71476D01*
Y-71762D01*
Y-72049D01*
Y-72335D01*
X1092662D01*
Y-72621D01*
Y-72908D01*
Y-73194D01*
Y-73480D01*
X1092375D01*
Y-73767D01*
Y-74053D01*
Y-74339D01*
X1092089D01*
Y-74625D01*
Y-74912D01*
Y-75198D01*
X1091803D01*
Y-75485D01*
Y-75771D01*
Y-76057D01*
X1091516D01*
Y-76343D01*
Y-76630D01*
Y-76916D01*
X1091230D01*
Y-77202D01*
Y-77489D01*
X1090944D01*
Y-77775D01*
Y-78061D01*
X1090657D01*
Y-78348D01*
Y-78634D01*
Y-78920D01*
X1090371D01*
Y-79207D01*
Y-79493D01*
X1090085D01*
Y-79779D01*
Y-80066D01*
Y-80352D01*
X1089799D01*
Y-80638D01*
Y-80924D01*
X1089512D01*
Y-81211D01*
Y-81497D01*
Y-81783D01*
X1089226D01*
Y-82070D01*
Y-82356D01*
X1088939D01*
Y-82642D01*
Y-82929D01*
Y-83215D01*
X1088653D01*
Y-83501D01*
Y-83788D01*
X1088367D01*
Y-84074D01*
Y-84360D01*
Y-84646D01*
X1088081D01*
Y-84933D01*
Y-85219D01*
X1087794D01*
Y-85505D01*
Y-85792D01*
Y-86078D01*
X1087508D01*
Y-86364D01*
Y-86651D01*
X1087222D01*
Y-86937D01*
Y-87223D01*
Y-87510D01*
X1086935D01*
Y-87796D01*
Y-88082D01*
X1086649D01*
Y-88369D01*
Y-88655D01*
Y-88941D01*
X1086363D01*
Y-89227D01*
Y-89514D01*
X1086076D01*
Y-89800D01*
Y-90086D01*
Y-90373D01*
X1085790D01*
Y-90659D01*
Y-90945D01*
X1085504D01*
Y-91232D01*
Y-91518D01*
Y-91804D01*
X1085217D01*
Y-92091D01*
Y-92377D01*
X1084931D01*
Y-92663D01*
Y-92950D01*
Y-93236D01*
X1084645D01*
Y-93522D01*
Y-93809D01*
X1084359D01*
Y-94095D01*
Y-94381D01*
Y-94667D01*
X1084072D01*
Y-94954D01*
Y-95240D01*
X1083786D01*
Y-95526D01*
Y-95813D01*
Y-96099D01*
X1083500D01*
Y-96385D01*
Y-96672D01*
X1083213D01*
Y-96958D01*
Y-97244D01*
Y-97531D01*
X1082927D01*
Y-97817D01*
Y-98103D01*
X1082641D01*
Y-98390D01*
Y-98676D01*
Y-98962D01*
X1082354D01*
Y-99248D01*
Y-99535D01*
X1082068D01*
Y-99821D01*
Y-100107D01*
Y-100394D01*
X1081782D01*
Y-100680D01*
Y-100966D01*
X1081495D01*
Y-101253D01*
Y-101539D01*
X1081209D01*
Y-101825D01*
Y-102112D01*
X1080923D01*
Y-102398D01*
Y-102684D01*
Y-102971D01*
X1080637D01*
Y-103257D01*
X1080350D01*
Y-103543D01*
Y-103829D01*
Y-104116D01*
X1080064D01*
Y-104402D01*
X1079778D01*
Y-104688D01*
Y-104975D01*
X1079491D01*
Y-105261D01*
Y-105547D01*
X1079205D01*
Y-105834D01*
Y-106120D01*
X1078919D01*
Y-106406D01*
Y-106693D01*
X1078632D01*
Y-106979D01*
X1078346D01*
Y-107265D01*
Y-107552D01*
X1078060D01*
Y-107838D01*
Y-108124D01*
X1077773D01*
Y-108410D01*
X1077487D01*
Y-108697D01*
X1077201D01*
Y-108983D01*
Y-109269D01*
X1076914D01*
Y-109556D01*
X1076628D01*
Y-109842D01*
Y-110128D01*
X1076342D01*
Y-110415D01*
X1076056D01*
Y-110701D01*
X1075769D01*
Y-110987D01*
Y-111274D01*
X1075483D01*
Y-111560D01*
X1075196D01*
Y-111846D01*
X1074910D01*
Y-112133D01*
X1074624D01*
Y-112419D01*
X1074338D01*
Y-112705D01*
Y-112991D01*
X1074051D01*
Y-113278D01*
X1073765D01*
Y-113564D01*
X1073479D01*
Y-113850D01*
X1073192D01*
Y-114137D01*
X1072906D01*
Y-114423D01*
X1072620D01*
Y-114709D01*
X1072333D01*
Y-114996D01*
X1071761D01*
Y-115282D01*
X1071474D01*
Y-115568D01*
X1071188D01*
Y-115855D01*
X1070902D01*
Y-116141D01*
X1070615D01*
Y-116427D01*
X1070043D01*
Y-116714D01*
X1069757D01*
Y-117000D01*
X1069184D01*
Y-117286D01*
X1068898D01*
Y-117572D01*
X1068325D01*
Y-117859D01*
X1068039D01*
Y-118145D01*
X1067466D01*
Y-118431D01*
X1066893D01*
Y-118718D01*
X1066321D01*
Y-119004D01*
X1065748D01*
Y-119290D01*
X1065176D01*
Y-119577D01*
X1064317D01*
Y-119863D01*
X1063744D01*
Y-120149D01*
X1062885D01*
Y-120436D01*
X1061740D01*
Y-120722D01*
X1060595D01*
Y-121008D01*
X1058877D01*
Y-121294D01*
X1056872D01*
Y-121581D01*
X1056586D01*
Y-121294D01*
Y-121008D01*
Y-120722D01*
Y-120436D01*
Y-120149D01*
Y-119863D01*
Y-119577D01*
Y-119290D01*
Y-119004D01*
Y-118718D01*
Y-118431D01*
Y-118145D01*
Y-117859D01*
Y-117572D01*
Y-117286D01*
Y-117000D01*
Y-116714D01*
Y-116427D01*
Y-116141D01*
Y-115855D01*
Y-115568D01*
Y-115282D01*
Y-114996D01*
Y-114709D01*
Y-114423D01*
Y-114137D01*
Y-113850D01*
Y-113564D01*
Y-113278D01*
Y-112991D01*
Y-112705D01*
Y-112419D01*
Y-112133D01*
X1057159D01*
Y-111846D01*
X1057731D01*
Y-111560D01*
X1058304D01*
Y-111274D01*
X1058877D01*
Y-110987D01*
X1059449D01*
Y-110701D01*
X1060022D01*
Y-110415D01*
X1060308D01*
Y-110128D01*
X1060881D01*
Y-109842D01*
X1061167D01*
Y-109556D01*
X1061740D01*
Y-109269D01*
X1062026D01*
Y-108983D01*
X1062312D01*
Y-108697D01*
X1062885D01*
Y-108410D01*
X1063171D01*
Y-108124D01*
X1063458D01*
Y-107838D01*
X1063744D01*
Y-107552D01*
X1064030D01*
Y-107265D01*
X1064317D01*
Y-106979D01*
X1064603D01*
Y-106693D01*
X1064889D01*
Y-106406D01*
X1065176D01*
Y-106120D01*
X1065462D01*
Y-105834D01*
X1065748D01*
Y-105547D01*
X1066035D01*
Y-105261D01*
Y-104975D01*
X1066321D01*
Y-104688D01*
X1066607D01*
Y-104402D01*
X1066893D01*
Y-104116D01*
Y-103829D01*
X1067180D01*
Y-103543D01*
X1067466D01*
Y-103257D01*
Y-102971D01*
X1067752D01*
Y-102684D01*
Y-102398D01*
X1068039D01*
Y-102112D01*
X1068325D01*
Y-101825D01*
Y-101539D01*
X1068611D01*
Y-101253D01*
Y-100966D01*
X1068898D01*
Y-100680D01*
Y-100394D01*
X1067180D01*
Y-100107D01*
X1065176D01*
Y-99821D01*
X1064030D01*
Y-99535D01*
X1063458D01*
Y-99248D01*
X1062599D01*
Y-98962D01*
X1062026D01*
Y-98676D01*
X1061740D01*
Y-98390D01*
X1061167D01*
Y-98103D01*
X1060881D01*
Y-97817D01*
X1060595D01*
Y-97531D01*
X1060308D01*
Y-97244D01*
X1060022D01*
Y-96958D01*
X1059736D01*
Y-96672D01*
Y-96385D01*
X1059449D01*
Y-96099D01*
X1059163D01*
Y-95813D01*
Y-95526D01*
X1058877D01*
Y-95240D01*
Y-94954D01*
X1058590D01*
Y-94667D01*
Y-94381D01*
X1058304D01*
Y-94095D01*
Y-93809D01*
Y-93522D01*
X1058018D01*
Y-93236D01*
Y-92950D01*
Y-92663D01*
Y-92377D01*
X1057731D01*
Y-92091D01*
Y-91804D01*
Y-91518D01*
Y-91232D01*
Y-90945D01*
Y-90659D01*
Y-90373D01*
X1057445D01*
Y-90086D01*
Y-89800D01*
Y-89514D01*
Y-89227D01*
Y-88941D01*
Y-88655D01*
Y-88369D01*
Y-88082D01*
Y-87796D01*
Y-87510D01*
Y-87223D01*
Y-86937D01*
Y-86651D01*
Y-86364D01*
Y-86078D01*
X1057159D01*
Y-85792D01*
Y-85505D01*
Y-85219D01*
Y-84933D01*
Y-84646D01*
Y-84360D01*
Y-84074D01*
Y-83788D01*
Y-83501D01*
Y-83215D01*
Y-82929D01*
Y-82642D01*
Y-82356D01*
Y-82070D01*
Y-81783D01*
X1056872D01*
Y-81497D01*
Y-81211D01*
Y-80924D01*
Y-80638D01*
Y-80352D01*
Y-80066D01*
Y-79779D01*
Y-79493D01*
Y-79207D01*
Y-78920D01*
Y-78634D01*
Y-78348D01*
Y-78061D01*
Y-77775D01*
Y-77489D01*
Y-77202D01*
X1056586D01*
Y-76916D01*
Y-76630D01*
Y-76343D01*
Y-76057D01*
Y-75771D01*
Y-75485D01*
Y-75198D01*
Y-74912D01*
Y-74625D01*
Y-74339D01*
Y-74053D01*
Y-73767D01*
Y-73480D01*
Y-73194D01*
Y-72908D01*
Y-72621D01*
X1056300D01*
Y-72335D01*
Y-72049D01*
Y-71762D01*
Y-71476D01*
Y-71190D01*
Y-70903D01*
Y-70617D01*
Y-70331D01*
Y-70044D01*
Y-69758D01*
Y-69472D01*
Y-69186D01*
Y-68899D01*
Y-68613D01*
X1056014D01*
Y-68327D01*
Y-68040D01*
Y-67754D01*
Y-67468D01*
Y-67181D01*
Y-66895D01*
Y-66609D01*
Y-66322D01*
Y-66036D01*
Y-65750D01*
Y-65464D01*
Y-65177D01*
Y-64891D01*
Y-64605D01*
Y-64318D01*
Y-64032D01*
X1055727D01*
Y-63746D01*
X1069470D01*
Y-64032D01*
Y-64318D01*
Y-64605D01*
Y-64891D01*
Y-65177D01*
Y-65464D01*
Y-65750D01*
Y-66036D01*
Y-66322D01*
Y-66609D01*
Y-66895D01*
Y-67181D01*
Y-67468D01*
Y-67754D01*
X1069757D01*
Y-68040D01*
Y-68327D01*
Y-68613D01*
Y-68899D01*
Y-69186D01*
Y-69472D01*
Y-69758D01*
Y-70044D01*
Y-70331D01*
Y-70617D01*
Y-70903D01*
Y-71190D01*
Y-71476D01*
Y-71762D01*
Y-72049D01*
Y-72335D01*
Y-72621D01*
Y-72908D01*
Y-73194D01*
Y-73480D01*
Y-73767D01*
Y-74053D01*
Y-74339D01*
Y-74625D01*
Y-74912D01*
Y-75198D01*
Y-75485D01*
Y-75771D01*
Y-76057D01*
Y-76343D01*
Y-76630D01*
Y-76916D01*
Y-77202D01*
Y-77489D01*
Y-77775D01*
Y-78061D01*
Y-78348D01*
Y-78634D01*
Y-78920D01*
Y-79207D01*
Y-79493D01*
X1070043D01*
Y-79779D01*
X1069757D01*
Y-80066D01*
Y-80352D01*
X1070043D01*
Y-80638D01*
Y-80924D01*
Y-81211D01*
Y-81497D01*
Y-81783D01*
Y-82070D01*
Y-82356D01*
Y-82642D01*
Y-82929D01*
Y-83215D01*
Y-83501D01*
Y-83788D01*
Y-84074D01*
Y-84360D01*
Y-84646D01*
Y-84933D01*
Y-85219D01*
Y-85505D01*
Y-85792D01*
Y-86078D01*
Y-86364D01*
Y-86651D01*
Y-86937D01*
Y-87223D01*
Y-87510D01*
Y-87796D01*
X1070329D01*
Y-88082D01*
Y-88369D01*
Y-88655D01*
X1070615D01*
Y-88941D01*
X1070902D01*
Y-89227D01*
X1071188D01*
Y-89514D01*
X1072047D01*
Y-89800D01*
X1072906D01*
Y-89514D01*
X1073192D01*
Y-89227D01*
Y-88941D01*
Y-88655D01*
X1073479D01*
Y-88369D01*
Y-88082D01*
X1073765D01*
Y-87796D01*
Y-87510D01*
Y-87223D01*
X1074051D01*
Y-86937D01*
Y-86651D01*
Y-86364D01*
X1074338D01*
Y-86078D01*
Y-85792D01*
Y-85505D01*
X1074624D01*
Y-85219D01*
Y-84933D01*
Y-84646D01*
X1074910D01*
Y-84360D01*
Y-84074D01*
X1075196D01*
Y-83788D01*
Y-83501D01*
Y-83215D01*
X1075483D01*
Y-82929D01*
Y-82642D01*
Y-82356D01*
X1075769D01*
Y-82070D01*
Y-81783D01*
Y-81497D01*
X1076056D01*
Y-81211D01*
Y-80924D01*
X1076342D01*
Y-80638D01*
Y-80352D01*
Y-80066D01*
X1076628D01*
Y-79779D01*
Y-79493D01*
Y-79207D01*
X1076914D01*
Y-78920D01*
Y-78634D01*
Y-78348D01*
X1077201D01*
Y-78061D01*
Y-77775D01*
X1077487D01*
Y-77489D01*
Y-77202D01*
Y-76916D01*
X1077773D01*
Y-76630D01*
Y-76343D01*
Y-76057D01*
X1078060D01*
Y-75771D01*
Y-75485D01*
Y-75198D01*
X1078346D01*
Y-74912D01*
Y-74625D01*
X1078632D01*
Y-74339D01*
Y-74053D01*
Y-73767D01*
X1078919D01*
Y-73480D01*
Y-73194D01*
Y-72908D01*
X1079205D01*
Y-72621D01*
Y-72335D01*
Y-72049D01*
X1079491D01*
Y-71762D01*
Y-71476D01*
Y-71190D01*
Y-70903D01*
X1079778D01*
Y-70617D01*
Y-70331D01*
Y-70044D01*
Y-69758D01*
X1080064D01*
Y-69472D01*
Y-69186D01*
Y-68899D01*
Y-68613D01*
Y-68327D01*
X1080350D01*
Y-68040D01*
Y-67754D01*
Y-67468D01*
Y-67181D01*
Y-66895D01*
Y-66609D01*
X1080637D01*
Y-66322D01*
Y-66036D01*
Y-65750D01*
Y-65464D01*
Y-65177D01*
Y-64891D01*
Y-64605D01*
Y-64318D01*
Y-64032D01*
Y-63746D01*
X1093521D01*
Y-64032D01*
D02*
G37*
%LPC*%
G36*
X1000183Y-60883D02*
X992166D01*
Y-61169D01*
Y-61455D01*
Y-61742D01*
Y-62028D01*
Y-62314D01*
X991879D01*
Y-62600D01*
Y-62887D01*
Y-63173D01*
Y-63459D01*
Y-63746D01*
Y-64032D01*
X991593D01*
Y-64318D01*
Y-64605D01*
Y-64891D01*
Y-65177D01*
Y-65464D01*
Y-65750D01*
X991307D01*
Y-66036D01*
Y-66322D01*
Y-66609D01*
Y-66895D01*
Y-67181D01*
Y-67468D01*
X991020D01*
Y-67754D01*
Y-68040D01*
Y-68327D01*
Y-68613D01*
Y-68899D01*
Y-69186D01*
Y-69472D01*
X990734D01*
Y-69758D01*
Y-70044D01*
Y-70331D01*
Y-70617D01*
Y-70903D01*
Y-71190D01*
X990448D01*
Y-71476D01*
Y-71762D01*
Y-72049D01*
X997606D01*
Y-71762D01*
X998751D01*
Y-71476D01*
X999324D01*
Y-71190D01*
X999610D01*
Y-70903D01*
X999896D01*
Y-70617D01*
X1000183D01*
Y-70331D01*
X1000469D01*
Y-70044D01*
Y-69758D01*
X1000755D01*
Y-69472D01*
Y-69186D01*
X1001042D01*
Y-68899D01*
Y-68613D01*
X1001328D01*
Y-68327D01*
Y-68040D01*
Y-67754D01*
Y-67468D01*
X1001614D01*
Y-67181D01*
Y-66895D01*
Y-66609D01*
Y-66322D01*
Y-66036D01*
X1001900D01*
Y-65750D01*
Y-65464D01*
Y-65177D01*
Y-64891D01*
Y-64605D01*
Y-64318D01*
Y-64032D01*
Y-63746D01*
Y-63459D01*
Y-63173D01*
Y-62887D01*
X1001614D01*
Y-62600D01*
Y-62314D01*
X1001328D01*
Y-62028D01*
Y-61742D01*
X1001042D01*
Y-61455D01*
X1000755D01*
Y-61169D01*
X1000183D01*
Y-60883D01*
D02*
G37*
%LPD*%
D12*
X1173881Y-40031D02*
X1171257Y-37407D01*
X1166010D01*
X1163386Y-40031D01*
Y-42654D01*
X1166010Y-45278D01*
X1171257D01*
X1173881Y-47902D01*
Y-50526D01*
X1171257Y-53150D01*
X1166010D01*
X1163386Y-50526D01*
X1179129Y-53150D02*
X1184376D01*
X1181753D01*
Y-42654D01*
X1179129D01*
X1192248D02*
X1202743Y-53150D01*
X1197495Y-47902D01*
X1202743Y-42654D01*
X1192248Y-53150D01*
X1207991Y-42654D02*
X1218486Y-53150D01*
X1213239Y-47902D01*
X1218486Y-42654D01*
X1207991Y-53150D01*
X1223734Y-42654D02*
Y-50526D01*
X1226358Y-53150D01*
X1234229D01*
Y-55773D01*
X1231605Y-58397D01*
X1228981D01*
X1234229Y-53150D02*
Y-42654D01*
X1178475Y-131890D02*
X1169291D01*
X1178475Y-122706D01*
Y-120411D01*
X1176179Y-118115D01*
X1171587D01*
X1169291Y-120411D01*
X1183066Y-131890D02*
X1187658D01*
X1185362D01*
Y-118115D01*
X1183066Y-120411D01*
X1194546Y-131890D02*
X1203729Y-122706D01*
X1208321Y-120411D02*
X1210617Y-118115D01*
X1215208D01*
X1217504Y-120411D01*
Y-129594D01*
X1215208Y-131890D01*
X1210617D01*
X1208321Y-129594D01*
Y-120411D01*
X1222096Y-131890D02*
X1226688D01*
X1224392D01*
Y-118115D01*
X1222096Y-120411D01*
X1233575Y-131890D02*
X1242758Y-122706D01*
X1256534Y-131890D02*
X1247350D01*
X1256534Y-122706D01*
Y-120411D01*
X1254238Y-118115D01*
X1249646D01*
X1247350Y-120411D01*
X1261125D02*
X1263421Y-118115D01*
X1268013D01*
X1270309Y-120411D01*
Y-129594D01*
X1268013Y-131890D01*
X1263421D01*
X1261125Y-129594D01*
Y-120411D01*
X1274900Y-131890D02*
X1279492D01*
X1277196D01*
Y-118115D01*
X1274900Y-120411D01*
X1286380Y-129594D02*
X1288675Y-131890D01*
X1293267D01*
X1295563Y-129594D01*
Y-120411D01*
X1293267Y-118115D01*
X1288675D01*
X1286380Y-120411D01*
Y-122706D01*
X1288675Y-125002D01*
X1295563D01*
X1332677Y-118771D02*
X1335301Y-116147D01*
X1340549D01*
X1343172Y-118771D01*
Y-129266D01*
X1340549Y-131890D01*
X1335301D01*
X1332677Y-129266D01*
Y-118771D01*
X1348420D02*
X1351044Y-116147D01*
X1356292D01*
X1358915Y-118771D01*
Y-129266D01*
X1356292Y-131890D01*
X1351044D01*
X1348420Y-129266D01*
Y-118771D01*
X978347Y-155517D02*
Y-171260D01*
X983594Y-166012D01*
X988842Y-171260D01*
Y-155517D01*
X994089Y-171260D02*
X999337D01*
X996713D01*
Y-160765D01*
X994089D01*
X1007209Y-171260D02*
Y-160765D01*
X1009832D01*
X1012456Y-163388D01*
Y-171260D01*
Y-163388D01*
X1015080Y-160765D01*
X1017704Y-163388D01*
Y-171260D01*
X1022952Y-155517D02*
Y-166012D01*
X1028199Y-171260D01*
X1033447Y-166012D01*
Y-155517D01*
X1049190Y-158141D02*
X1046566Y-155517D01*
X1041318D01*
X1038694Y-158141D01*
Y-168636D01*
X1041318Y-171260D01*
X1046566D01*
X1049190Y-168636D01*
Y-163388D01*
X1043942D01*
D13*
X52756Y23228D02*
D03*
Y24409D02*
D03*
Y25591D02*
D03*
X20866Y23228D02*
D03*
Y24409D02*
D03*
Y25591D02*
D03*
X29921Y23228D02*
D03*
Y24409D02*
D03*
Y25591D02*
D03*
X70866Y34646D02*
D03*
Y33465D02*
D03*
Y32283D02*
D03*
X57087Y32283D02*
D03*
Y33465D02*
D03*
Y34646D02*
D03*
X52756Y43701D02*
D03*
Y42520D02*
D03*
Y41339D02*
D03*
X43701Y43701D02*
D03*
Y42520D02*
D03*
Y41339D02*
D03*
X29921Y41339D02*
D03*
Y42520D02*
D03*
Y43701D02*
D03*
X20866Y41339D02*
D03*
Y42520D02*
D03*
Y43701D02*
D03*
X2756Y32283D02*
D03*
Y33465D02*
D03*
Y34646D02*
D03*
X16535Y34646D02*
D03*
Y33465D02*
D03*
Y32283D02*
D03*
X43701Y25591D02*
D03*
Y24409D02*
D03*
Y23228D02*
D03*
X70866Y16535D02*
D03*
Y15354D02*
D03*
Y14173D02*
D03*
X57087Y14173D02*
D03*
Y15354D02*
D03*
Y16535D02*
D03*
X52756Y7480D02*
D03*
Y6299D02*
D03*
Y5118D02*
D03*
X43701Y7480D02*
D03*
Y6299D02*
D03*
Y5118D02*
D03*
X29921Y5118D02*
D03*
Y6299D02*
D03*
Y7480D02*
D03*
X20866Y5118D02*
D03*
Y6299D02*
D03*
Y7480D02*
D03*
X16535Y16535D02*
D03*
Y15354D02*
D03*
Y14173D02*
D03*
X2756Y14173D02*
D03*
Y15354D02*
D03*
Y16535D02*
D03*
D14*
X49213Y24409D02*
D03*
X24409Y24409D02*
D03*
X33465Y24409D02*
D03*
X67323Y33465D02*
D03*
X60630Y33465D02*
D03*
X49213Y42520D02*
D03*
X40157D02*
D03*
X33465Y42520D02*
D03*
X24409D02*
D03*
X6299Y33465D02*
D03*
X12992Y33465D02*
D03*
X40157Y24409D02*
D03*
X67323Y15354D02*
D03*
X60630Y15354D02*
D03*
X49213Y6299D02*
D03*
X40157D02*
D03*
X33465Y6299D02*
D03*
X24409Y6299D02*
D03*
X12992Y15354D02*
D03*
X6299Y15354D02*
D03*
D15*
X47244Y28740D02*
G03*
X48425Y27559I1181J0D01*
G01*
X48425D02*
G03*
X49606Y28740I0J1181D01*
G01*
X51181D02*
G03*
X52362Y27559I1181J0D01*
G01*
X52362D02*
G03*
X53543Y28740I0J1181D01*
G01*
Y20079D02*
G03*
X52362Y21260I-1181J0D01*
G01*
X52362D02*
G03*
X51181Y20079I0J-1181D01*
G01*
X49606D02*
G03*
X48425Y21260I-1181J0D01*
G01*
X48425D02*
G03*
X47244Y20079I0J-1181D01*
G01*
X25197Y27559D02*
G03*
X26378Y28740I0J1181D01*
G01*
X24016D02*
G03*
X25197Y27559I1181J0D01*
G01*
X21260D02*
G03*
X22441Y28740I0J1181D01*
G01*
X20079D02*
G03*
X21260Y27559I1181J0D01*
G01*
Y21260D02*
G03*
X20079Y20079I0J-1181D01*
G01*
X22441D02*
G03*
X21260Y21260I-1181J0D01*
G01*
X25197D02*
G03*
X24016Y20079I0J-1181D01*
G01*
X26378D02*
G03*
X25197Y21260I-1181J0D01*
G01*
X34252Y27559D02*
G03*
X35433Y28740I0J1181D01*
G01*
X33071D02*
G03*
X34252Y27559I1181J0D01*
G01*
X30315D02*
G03*
X31496Y28740I0J1181D01*
G01*
X29134D02*
G03*
X30315Y27559I1181J0D01*
G01*
Y21260D02*
G03*
X29134Y20079I0J-1181D01*
G01*
X31496D02*
G03*
X30315Y21260I-1181J0D01*
G01*
X34252D02*
G03*
X33071Y20079I0J-1181D01*
G01*
X35433D02*
G03*
X34252Y21260I-1181J0D01*
G01*
X66535Y30315D02*
G03*
X65354Y29134I0J-1181D01*
G01*
X67716D02*
G03*
X66535Y30315I-1181J0D01*
G01*
X70472D02*
G03*
X69291Y29134I0J-1181D01*
G01*
X71653D02*
G03*
X70472Y30315I-1181J0D01*
G01*
Y36614D02*
G03*
X71653Y37795I0J1181D01*
G01*
X69291D02*
G03*
X70472Y36614I1181J0D01*
G01*
X66535D02*
G03*
X67716Y37795I0J1181D01*
G01*
X65354D02*
G03*
X66535Y36614I1181J0D01*
G01*
X61417D02*
G03*
X62598Y37795I0J1181D01*
G01*
X60236D02*
G03*
X61417Y36614I1181J0D01*
G01*
X57480D02*
G03*
X58661Y37795I0J1181D01*
G01*
X56299D02*
G03*
X57480Y36614I1181J0D01*
G01*
Y30315D02*
G03*
X56299Y29134I0J-1181D01*
G01*
X58661D02*
G03*
X57480Y30315I-1181J0D01*
G01*
X61417D02*
G03*
X60236Y29134I0J-1181D01*
G01*
X62598D02*
G03*
X61417Y30315I-1181J0D01*
G01*
X48425Y39370D02*
G03*
X47244Y38189I0J-1181D01*
G01*
X49606D02*
G03*
X48425Y39370I-1181J0D01*
G01*
X52362D02*
G03*
X51181Y38189I0J-1181D01*
G01*
X53543D02*
G03*
X52362Y39370I-1181J0D01*
G01*
Y45669D02*
G03*
X53543Y46850I0J1181D01*
G01*
X51181D02*
G03*
X52362Y45669I1181J0D01*
G01*
X48425D02*
G03*
X49606Y46850I0J1181D01*
G01*
X47244D02*
G03*
X48425Y45669I1181J0D01*
G01*
X39370Y39370D02*
G03*
X38189Y38189I0J-1181D01*
G01*
X40551D02*
G03*
X39370Y39370I-1181J0D01*
G01*
X43307D02*
G03*
X42126Y38189I0J-1181D01*
G01*
X44488D02*
G03*
X43307Y39370I-1181J0D01*
G01*
Y45669D02*
G03*
X44488Y46850I0J1181D01*
G01*
X42126D02*
G03*
X43307Y45669I1181J0D01*
G01*
X39370D02*
G03*
X40551Y46850I0J1181D01*
G01*
X38189D02*
G03*
X39370Y45669I1181J0D01*
G01*
X34252D02*
G03*
X35433Y46850I0J1181D01*
G01*
X33071D02*
G03*
X34252Y45669I1181J0D01*
G01*
X30315D02*
G03*
X31496Y46850I0J1181D01*
G01*
X29134D02*
G03*
X30315Y45669I1181J0D01*
G01*
Y39370D02*
G03*
X29134Y38189I0J-1181D01*
G01*
X31496D02*
G03*
X30315Y39370I-1181J0D01*
G01*
X34252D02*
G03*
X33071Y38189I0J-1181D01*
G01*
X35433D02*
G03*
X34252Y39370I-1181J0D01*
G01*
X25197Y45669D02*
G03*
X26378Y46850I0J1181D01*
G01*
X24016D02*
G03*
X25197Y45669I1181J0D01*
G01*
X21260D02*
G03*
X22441Y46850I0J1181D01*
G01*
X20079D02*
G03*
X21260Y45669I1181J0D01*
G01*
Y39370D02*
G03*
X20079Y38189I0J-1181D01*
G01*
X22441D02*
G03*
X21260Y39370I-1181J0D01*
G01*
X25197D02*
G03*
X24016Y38189I0J-1181D01*
G01*
X26378D02*
G03*
X25197Y39370I-1181J0D01*
G01*
X7087Y36614D02*
G03*
X8268Y37795I0J1181D01*
G01*
X5906D02*
G03*
X7087Y36614I1181J0D01*
G01*
X3150D02*
G03*
X4331Y37795I0J1181D01*
G01*
X1969D02*
G03*
X3150Y36614I1181J0D01*
G01*
Y30315D02*
G03*
X1969Y29134I0J-1181D01*
G01*
X4331D02*
G03*
X3150Y30315I-1181J0D01*
G01*
X7087D02*
G03*
X5906Y29134I0J-1181D01*
G01*
X8268D02*
G03*
X7087Y30315I-1181J0D01*
G01*
X12205D02*
G03*
X11024Y29134I0J-1181D01*
G01*
X13386D02*
G03*
X12205Y30315I-1181J0D01*
G01*
X16142D02*
G03*
X14961Y29134I0J-1181D01*
G01*
X17323D02*
G03*
X16142Y30315I-1181J0D01*
G01*
Y36614D02*
G03*
X17323Y37795I0J1181D01*
G01*
X14961D02*
G03*
X16142Y36614I1181J0D01*
G01*
X12205D02*
G03*
X13386Y37795I0J1181D01*
G01*
X11024D02*
G03*
X12205Y36614I1181J0D01*
G01*
X39370Y21260D02*
G03*
X38189Y20079I0J-1181D01*
G01*
X40551D02*
G03*
X39370Y21260I-1181J0D01*
G01*
X43307D02*
G03*
X42126Y20079I0J-1181D01*
G01*
X44488D02*
G03*
X43307Y21260I-1181J0D01*
G01*
Y27559D02*
G03*
X44488Y28740I0J1181D01*
G01*
X42126D02*
G03*
X43307Y27559I1181J0D01*
G01*
X39370D02*
G03*
X40551Y28740I0J1181D01*
G01*
X38189D02*
G03*
X39370Y27559I1181J0D01*
G01*
X66535Y12205D02*
G03*
X65354Y11024I0J-1181D01*
G01*
X67716D02*
G03*
X66535Y12205I-1181J0D01*
G01*
X70472D02*
G03*
X69291Y11024I0J-1181D01*
G01*
X71653D02*
G03*
X70472Y12205I-1181J0D01*
G01*
Y18504D02*
G03*
X71653Y19685I0J1181D01*
G01*
X69291D02*
G03*
X70472Y18504I1181J0D01*
G01*
X66535D02*
G03*
X67716Y19685I0J1181D01*
G01*
X65354D02*
G03*
X66535Y18504I1181J0D01*
G01*
X61417D02*
G03*
X62598Y19685I0J1181D01*
G01*
X60236D02*
G03*
X61417Y18504I1181J0D01*
G01*
X57480D02*
G03*
X58661Y19685I0J1181D01*
G01*
X56299D02*
G03*
X57480Y18504I1181J0D01*
G01*
Y12205D02*
G03*
X56299Y11024I0J-1181D01*
G01*
X58661D02*
G03*
X57480Y12205I-1181J0D01*
G01*
X61417D02*
G03*
X60236Y11024I0J-1181D01*
G01*
X62598D02*
G03*
X61417Y12205I-1181J0D01*
G01*
X48425Y3150D02*
G03*
X47244Y1969I0J-1181D01*
G01*
X49606D02*
G03*
X48425Y3150I-1181J0D01*
G01*
X52362D02*
G03*
X51181Y1969I0J-1181D01*
G01*
X53543D02*
G03*
X52362Y3150I-1181J0D01*
G01*
Y9449D02*
G03*
X53543Y10630I0J1181D01*
G01*
X51181D02*
G03*
X52362Y9449I1181J0D01*
G01*
X48425D02*
G03*
X49606Y10630I0J1181D01*
G01*
X47244D02*
G03*
X48425Y9449I1181J0D01*
G01*
X39370Y3150D02*
G03*
X38189Y1969I0J-1181D01*
G01*
X40551D02*
G03*
X39370Y3150I-1181J0D01*
G01*
X43307D02*
G03*
X42126Y1969I0J-1181D01*
G01*
X44488D02*
G03*
X43307Y3150I-1181J0D01*
G01*
Y9449D02*
G03*
X44488Y10630I0J1181D01*
G01*
X42126D02*
G03*
X43307Y9449I1181J0D01*
G01*
X39370D02*
G03*
X40551Y10630I0J1181D01*
G01*
X38189D02*
G03*
X39370Y9449I1181J0D01*
G01*
X34252D02*
G03*
X35433Y10630I0J1181D01*
G01*
X33071D02*
G03*
X34252Y9449I1181J0D01*
G01*
X30315D02*
G03*
X31496Y10630I0J1181D01*
G01*
X29134D02*
G03*
X30315Y9449I1181J0D01*
G01*
Y3150D02*
G03*
X29134Y1969I0J-1181D01*
G01*
X31496D02*
G03*
X30315Y3150I-1181J0D01*
G01*
X34252D02*
G03*
X33071Y1969I0J-1181D01*
G01*
X35433D02*
G03*
X34252Y3150I-1181J0D01*
G01*
X25197Y9449D02*
G03*
X26378Y10630I0J1181D01*
G01*
X24016D02*
G03*
X25197Y9449I1181J0D01*
G01*
X21260D02*
G03*
X22441Y10630I0J1181D01*
G01*
X20079D02*
G03*
X21260Y9449I1181J0D01*
G01*
Y3150D02*
G03*
X20079Y1969I0J-1181D01*
G01*
X22441D02*
G03*
X21260Y3150I-1181J0D01*
G01*
X25197D02*
G03*
X24016Y1969I0J-1181D01*
G01*
X26378D02*
G03*
X25197Y3150I-1181J0D01*
G01*
X12205Y12205D02*
G03*
X11024Y11024I0J-1181D01*
G01*
X13386D02*
G03*
X12205Y12205I-1181J0D01*
G01*
X16142D02*
G03*
X14961Y11024I0J-1181D01*
G01*
X17323D02*
G03*
X16142Y12205I-1181J0D01*
G01*
Y18504D02*
G03*
X17323Y19685I0J1181D01*
G01*
X14961D02*
G03*
X16142Y18504I1181J0D01*
G01*
X12205D02*
G03*
X13386Y19685I0J1181D01*
G01*
X11024D02*
G03*
X12205Y18504I1181J0D01*
G01*
X7087D02*
G03*
X8268Y19685I0J1181D01*
G01*
X5906D02*
G03*
X7087Y18504I1181J0D01*
G01*
X3150D02*
G03*
X4331Y19685I0J1181D01*
G01*
X1969D02*
G03*
X3150Y18504I1181J0D01*
G01*
Y12205D02*
G03*
X1969Y11024I0J-1181D01*
G01*
X4331D02*
G03*
X3150Y12205I-1181J0D01*
G01*
X7087D02*
G03*
X5906Y11024I0J-1181D01*
G01*
X8268D02*
G03*
X7087Y12205I-1181J0D01*
G01*
X5906Y22835D02*
Y25984D01*
Y22835D02*
X11811D01*
Y25984D01*
X5906D02*
X11811D01*
X48228Y31890D02*
Y35039D01*
X42323D02*
X48228D01*
X42323Y31890D02*
Y35039D01*
Y31890D02*
X48228D01*
X23622D02*
Y35039D01*
Y31890D02*
X29528D01*
Y35039D01*
X23622D02*
X29528D01*
X23622Y13780D02*
Y16929D01*
Y13780D02*
X29528D01*
Y16929D01*
X23622D02*
X29528D01*
X66929Y22835D02*
Y25984D01*
X61024D02*
X66929D01*
X61024Y22835D02*
Y25984D01*
Y22835D02*
X66929D01*
X50197Y13780D02*
Y16929D01*
X44291D02*
X50197D01*
X44291Y13780D02*
Y16929D01*
Y13780D02*
X50197D01*
X46457Y28740D02*
X47244D01*
X48425Y27559D02*
X48425D01*
X49606Y28740D02*
X51181D01*
X52362Y27559D02*
X52362D01*
X53543Y28740D02*
X54331D01*
X53543Y20079D02*
X54331D01*
X52362Y21260D02*
X52362D01*
X49606Y20079D02*
X51181D01*
X48425Y21260D02*
X48425D01*
X46457Y20079D02*
X47244D01*
X46457D02*
Y28740D01*
X54331Y20079D02*
Y28740D01*
X19291Y20079D02*
Y28740D01*
X27165Y20079D02*
Y28740D01*
X26378D02*
X27165D01*
X25197Y27559D02*
X25197D01*
X22441Y28740D02*
X24016D01*
X21260Y27559D02*
X21260D01*
X19291Y28740D02*
X20079D01*
X19291Y20079D02*
X20079D01*
X21260Y21260D02*
X21260D01*
X22441Y20079D02*
X24016D01*
X25197Y21260D02*
X25197D01*
X26378Y20079D02*
X27165D01*
X28346D02*
Y28740D01*
X36220Y20079D02*
Y28740D01*
X35433D02*
X36220D01*
X34252Y27559D02*
X34252D01*
X31496Y28740D02*
X33071D01*
X30315Y27559D02*
X30315D01*
X28346Y28740D02*
X29134D01*
X28346Y20079D02*
X29134D01*
X30315Y21260D02*
X30315D01*
X31496Y20079D02*
X33071D01*
X34252Y21260D02*
X34252D01*
X35433Y20079D02*
X36220D01*
X72441Y29134D02*
Y37795D01*
X64567Y29134D02*
Y37795D01*
Y29134D02*
X65354D01*
X66535Y30315D02*
X66535D01*
X67716Y29134D02*
X69291D01*
X70472Y30315D02*
X70472D01*
X71653Y29134D02*
X72441D01*
X71653Y37795D02*
X72441D01*
X70472Y36614D02*
X70472D01*
X67716Y37795D02*
X69291D01*
X66535Y36614D02*
X66535D01*
X64567Y37795D02*
X65354D01*
X55512Y29134D02*
Y37795D01*
X63386Y29134D02*
Y37795D01*
X62598D02*
X63386D01*
X61417Y36614D02*
X61417D01*
X58661Y37795D02*
X60236D01*
X57480Y36614D02*
X57480D01*
X55512Y37795D02*
X56299D01*
X55512Y29134D02*
X56299D01*
X57480Y30315D02*
X57480D01*
X58661Y29134D02*
X60236D01*
X61417Y30315D02*
X61417D01*
X62598Y29134D02*
X63386D01*
X54331Y38189D02*
Y46850D01*
X46457Y38189D02*
Y46850D01*
Y38189D02*
X47244D01*
X48425Y39370D02*
X48425D01*
X49606Y38189D02*
X51181D01*
X52362Y39370D02*
X52362D01*
X53543Y38189D02*
X54331D01*
X53543Y46850D02*
X54331D01*
X52362Y45669D02*
X52362D01*
X49606Y46850D02*
X51181D01*
X48425Y45669D02*
X48425D01*
X46457Y46850D02*
X47244D01*
X45276Y38189D02*
Y46850D01*
X37402Y38189D02*
Y46850D01*
Y38189D02*
X38189D01*
X39370Y39370D02*
X39370D01*
X40551Y38189D02*
X42126D01*
X43307Y39370D02*
X43307D01*
X44488Y38189D02*
X45276D01*
X44488Y46850D02*
X45276D01*
X43307Y45669D02*
X43307D01*
X40551Y46850D02*
X42126D01*
X39370Y45669D02*
X39370D01*
X37402Y46850D02*
X38189D01*
X28346Y38189D02*
Y46850D01*
X36220Y38189D02*
Y46850D01*
X35433D02*
X36220D01*
X34252Y45669D02*
X34252D01*
X31496Y46850D02*
X33071D01*
X30315Y45669D02*
X30315D01*
X28346Y46850D02*
X29134D01*
X28346Y38189D02*
X29134D01*
X30315Y39370D02*
X30315D01*
X31496Y38189D02*
X33071D01*
X34252Y39370D02*
X34252D01*
X35433Y38189D02*
X36220D01*
X19291D02*
Y46850D01*
X27165Y38189D02*
Y46850D01*
X26378D02*
X27165D01*
X25197Y45669D02*
X25197D01*
X22441Y46850D02*
X24016D01*
X21260Y45669D02*
X21260D01*
X19291Y46850D02*
X20079D01*
X19291Y38189D02*
X20079D01*
X21260Y39370D02*
X21260D01*
X22441Y38189D02*
X24016D01*
X25197Y39370D02*
X25197D01*
X26378Y38189D02*
X27165D01*
X1181Y29134D02*
Y37795D01*
X9055Y29134D02*
Y37795D01*
X8268D02*
X9055D01*
X7087Y36614D02*
X7087D01*
X4331Y37795D02*
X5906D01*
X3150Y36614D02*
X3150D01*
X1181Y37795D02*
X1969D01*
X1181Y29134D02*
X1969D01*
X3150Y30315D02*
X3150D01*
X4331Y29134D02*
X5906D01*
X7087Y30315D02*
X7087D01*
X8268Y29134D02*
X9055D01*
X18110D02*
Y37795D01*
X10236Y29134D02*
Y37795D01*
Y29134D02*
X11024D01*
X12205Y30315D02*
X12205D01*
X13386Y29134D02*
X14961D01*
X16142Y30315D02*
X16142D01*
X17323Y29134D02*
X18110D01*
X17323Y37795D02*
X18110D01*
X16142Y36614D02*
X16142D01*
X13386Y37795D02*
X14961D01*
X12205Y36614D02*
X12205D01*
X10236Y37795D02*
X11024D01*
X45276Y20079D02*
Y28740D01*
X37402Y20079D02*
Y28740D01*
Y20079D02*
X38189D01*
X39370Y21260D02*
X39370D01*
X40551Y20079D02*
X42126D01*
X43307Y21260D02*
X43307D01*
X44488Y20079D02*
X45276D01*
X44488Y28740D02*
X45276D01*
X43307Y27559D02*
X43307D01*
X40551Y28740D02*
X42126D01*
X39370Y27559D02*
X39370D01*
X37402Y28740D02*
X38189D01*
X72441Y11024D02*
Y19685D01*
X64567Y11024D02*
Y19685D01*
Y11024D02*
X65354D01*
X66535Y12205D02*
X66535D01*
X67716Y11024D02*
X69291D01*
X70472Y12205D02*
X70472D01*
X71653Y11024D02*
X72441D01*
X71653Y19685D02*
X72441D01*
X70472Y18504D02*
X70472D01*
X67716Y19685D02*
X69291D01*
X66535Y18504D02*
X66535D01*
X64567Y19685D02*
X65354D01*
X55512Y11024D02*
Y19685D01*
X63386Y11024D02*
Y19685D01*
X62598D02*
X63386D01*
X61417Y18504D02*
X61417D01*
X58661Y19685D02*
X60236D01*
X57480Y18504D02*
X57480D01*
X55512Y19685D02*
X56299D01*
X55512Y11024D02*
X56299D01*
X57480Y12205D02*
X57480D01*
X58661Y11024D02*
X60236D01*
X61417Y12205D02*
X61417D01*
X62598Y11024D02*
X63386D01*
X54331Y1969D02*
Y10630D01*
X46457Y1969D02*
Y10630D01*
Y1969D02*
X47244D01*
X48425Y3150D02*
X48425D01*
X49606Y1969D02*
X51181D01*
X52362Y3150D02*
X52362D01*
X53543Y1969D02*
X54331D01*
X53543Y10630D02*
X54331D01*
X52362Y9449D02*
X52362D01*
X49606Y10630D02*
X51181D01*
X48425Y9449D02*
X48425D01*
X46457Y10630D02*
X47244D01*
X45276Y1969D02*
Y10630D01*
X37402Y1969D02*
Y10630D01*
Y1969D02*
X38189D01*
X39370Y3150D02*
X39370D01*
X40551Y1969D02*
X42126D01*
X43307Y3150D02*
X43307D01*
X44488Y1969D02*
X45276D01*
X44488Y10630D02*
X45276D01*
X43307Y9449D02*
X43307D01*
X40551Y10630D02*
X42126D01*
X39370Y9449D02*
X39370D01*
X37402Y10630D02*
X38189D01*
X28346Y1969D02*
Y10630D01*
X36220Y1969D02*
Y10630D01*
X35433D02*
X36220D01*
X34252Y9449D02*
X34252D01*
X31496Y10630D02*
X33071D01*
X30315Y9449D02*
X30315D01*
X28346Y10630D02*
X29134D01*
X28346Y1969D02*
X29134D01*
X30315Y3150D02*
X30315D01*
X31496Y1969D02*
X33071D01*
X34252Y3150D02*
X34252D01*
X35433Y1969D02*
X36220D01*
X19291D02*
Y10630D01*
X27165Y1969D02*
Y10630D01*
X26378D02*
X27165D01*
X25197Y9449D02*
X25197D01*
X22441Y10630D02*
X24016D01*
X21260Y9449D02*
X21260D01*
X19291Y10630D02*
X20079D01*
X19291Y1969D02*
X20079D01*
X21260Y3150D02*
X21260D01*
X22441Y1969D02*
X24016D01*
X25197Y3150D02*
X25197D01*
X26378Y1969D02*
X27165D01*
X18110Y11024D02*
Y19685D01*
X10236Y11024D02*
Y19685D01*
Y11024D02*
X11024D01*
X12205Y12205D02*
X12205D01*
X13386Y11024D02*
X14961D01*
X16142Y12205D02*
X16142D01*
X17323Y11024D02*
X18110D01*
X17323Y19685D02*
X18110D01*
X16142Y18504D02*
X16142D01*
X13386Y19685D02*
X14961D01*
X12205Y18504D02*
X12205D01*
X10236Y19685D02*
X11024D01*
X1181Y11024D02*
Y19685D01*
X9055Y11024D02*
Y19685D01*
X8268D02*
X9055D01*
X7087Y18504D02*
X7087D01*
X4331Y19685D02*
X5906D01*
X3150Y18504D02*
X3150D01*
X1181Y19685D02*
X1969D01*
X1181Y11024D02*
X1969D01*
X3150Y12205D02*
X3150D01*
X4331Y11024D02*
X5906D01*
X7087Y12205D02*
X7087D01*
X8268Y11024D02*
X9055D01*
X7480Y23425D02*
Y25393D01*
X8464D01*
X8792Y25065D01*
Y24409D01*
X8464Y24081D01*
X7480D01*
X8136D02*
X8792Y23425D01*
X9448D02*
X10104D01*
X9776D01*
Y25393D01*
X9448Y25065D01*
X45013Y34120D02*
X44685Y34448D01*
X44029D01*
X43701Y34120D01*
Y32808D01*
X44029Y32480D01*
X44685D01*
X45013Y32808D01*
X45669Y34448D02*
X46981D01*
Y34120D01*
X45669Y32808D01*
Y32480D01*
X26115Y34120D02*
X25787Y34448D01*
X25131D01*
X24803Y34120D01*
Y32808D01*
X25131Y32480D01*
X25787D01*
X26115Y32808D01*
X28083Y34448D02*
X27427Y34120D01*
X26771Y33464D01*
Y32808D01*
X27099Y32480D01*
X27755D01*
X28083Y32808D01*
Y33136D01*
X27755Y33464D01*
X26771D01*
X25426Y16010D02*
X25098Y16338D01*
X24442D01*
X24114Y16010D01*
Y14698D01*
X24442Y14370D01*
X25098D01*
X25426Y14698D01*
X27394Y16338D02*
X26082D01*
Y15354D01*
X26738Y15682D01*
X27066D01*
X27394Y15354D01*
Y14698D01*
X27066Y14370D01*
X26410D01*
X26082Y14698D01*
X63517Y25065D02*
X63189Y25393D01*
X62533D01*
X62205Y25065D01*
Y23753D01*
X62533Y23425D01*
X63189D01*
X63517Y23753D01*
X65157Y23425D02*
Y25393D01*
X64173Y24409D01*
X65484D01*
X46981Y16010D02*
X46653Y16338D01*
X45997D01*
X45669Y16010D01*
Y14698D01*
X45997Y14370D01*
X46653D01*
X46981Y14698D01*
X48949Y14370D02*
X47637D01*
X48949Y15682D01*
Y16010D01*
X48621Y16338D01*
X47965D01*
X47637Y16010D01*
X50787Y31889D02*
Y29921D01*
X51771D01*
X52099Y30249D01*
Y31561D01*
X51771Y31889D01*
X50787D01*
X52755Y30249D02*
X53083Y29921D01*
X53739D01*
X54067Y30249D01*
Y31561D01*
X53739Y31889D01*
X53083D01*
X52755Y31561D01*
Y31233D01*
X53083Y30905D01*
X54067D01*
X18898Y31495D02*
Y29528D01*
X19882D01*
X20210Y29855D01*
Y31168D01*
X19882Y31495D01*
X18898D01*
X20865Y29528D02*
X21521D01*
X21193D01*
Y31495D01*
X20865Y31168D01*
X23817Y29528D02*
X22505D01*
X23817Y30839D01*
Y31168D01*
X23489Y31495D01*
X22833D01*
X22505Y31168D01*
X30709Y31495D02*
Y29528D01*
X31693D01*
X32021Y29855D01*
Y31168D01*
X31693Y31495D01*
X30709D01*
X32677Y29528D02*
X33332D01*
X33005D01*
Y31495D01*
X32677Y31168D01*
X34316Y29528D02*
X34972D01*
X34644D01*
Y31495D01*
X34316Y31168D01*
X65748Y40944D02*
Y38976D01*
X66732D01*
X67060Y39304D01*
Y40616D01*
X66732Y40944D01*
X65748D01*
X69028Y38976D02*
X67716D01*
X69028Y40288D01*
Y40616D01*
X68700Y40944D01*
X68044D01*
X67716Y40616D01*
X69684D02*
X70012Y40944D01*
X70668D01*
X70996Y40616D01*
Y39304D01*
X70668Y38976D01*
X70012D01*
X69684Y39304D01*
Y40616D01*
X56693Y40944D02*
Y38976D01*
X57677D01*
X58005Y39304D01*
Y40616D01*
X57677Y40944D01*
X56693D01*
X58661Y38976D02*
X59317D01*
X58989D01*
Y40944D01*
X58661Y40616D01*
X60301Y39304D02*
X60629Y38976D01*
X61285D01*
X61613Y39304D01*
Y40616D01*
X61285Y40944D01*
X60629D01*
X60301Y40616D01*
Y40288D01*
X60629Y39960D01*
X61613D01*
X49606Y37007D02*
Y35039D01*
X50590D01*
X50918Y35367D01*
Y36679D01*
X50590Y37007D01*
X49606D01*
X51574Y35039D02*
X52230D01*
X51902D01*
Y37007D01*
X51574Y36679D01*
X53214D02*
X53542Y37007D01*
X54198D01*
X54526Y36679D01*
Y36351D01*
X54198Y36023D01*
X54526Y35695D01*
Y35367D01*
X54198Y35039D01*
X53542D01*
X53214Y35367D01*
Y35695D01*
X53542Y36023D01*
X53214Y36351D01*
Y36679D01*
X53542Y36023D02*
X54198D01*
X37795Y37401D02*
Y35433D01*
X38779D01*
X39107Y35761D01*
Y37073D01*
X38779Y37401D01*
X37795D01*
X39763Y35433D02*
X40419D01*
X40091D01*
Y37401D01*
X39763Y37073D01*
X41403Y37401D02*
X42715D01*
Y37073D01*
X41403Y35761D01*
Y35433D01*
X30709Y37401D02*
Y35433D01*
X31693D01*
X32021Y35761D01*
Y37073D01*
X31693Y37401D01*
X30709D01*
X32677Y35433D02*
X33332D01*
X33005D01*
Y37401D01*
X32677Y37073D01*
X35628Y37401D02*
X34972Y37073D01*
X34316Y36417D01*
Y35761D01*
X34644Y35433D01*
X35300D01*
X35628Y35761D01*
Y36089D01*
X35300Y36417D01*
X34316D01*
X18898Y37401D02*
Y35433D01*
X19882D01*
X20210Y35761D01*
Y37073D01*
X19882Y37401D01*
X18898D01*
X20865Y35433D02*
X21521D01*
X21193D01*
Y37401D01*
X20865Y37073D01*
X23817Y37401D02*
X22505D01*
Y36417D01*
X23161Y36745D01*
X23489D01*
X23817Y36417D01*
Y35761D01*
X23489Y35433D01*
X22833D01*
X22505Y35761D01*
X1575Y40551D02*
Y38583D01*
X2559D01*
X2887Y38911D01*
Y40223D01*
X2559Y40551D01*
X1575D01*
X3543Y38583D02*
X4199D01*
X3871D01*
Y40551D01*
X3543Y40223D01*
X6166Y38583D02*
Y40551D01*
X5183Y39567D01*
X6494D01*
X12992Y40551D02*
Y38583D01*
X13976D01*
X14304Y38911D01*
Y40223D01*
X13976Y40551D01*
X12992D01*
X14960Y38583D02*
X15616D01*
X15288D01*
Y40551D01*
X14960Y40223D01*
X16600D02*
X16928Y40551D01*
X17584D01*
X17912Y40223D01*
Y39895D01*
X17584Y39567D01*
X17256D01*
X17584D01*
X17912Y39239D01*
Y38911D01*
X17584Y38583D01*
X16928D01*
X16600Y38911D01*
X37402Y31495D02*
Y29528D01*
X38385D01*
X38713Y29855D01*
Y31168D01*
X38385Y31495D01*
X37402D01*
X39369Y29528D02*
X40025D01*
X39697D01*
Y31495D01*
X39369Y31168D01*
X41009D02*
X41337Y31495D01*
X41993D01*
X42321Y31168D01*
Y29855D01*
X41993Y29528D01*
X41337D01*
X41009Y29855D01*
Y31168D01*
X68110Y22834D02*
Y20866D01*
X69094D01*
X69422Y21194D01*
Y22506D01*
X69094Y22834D01*
X68110D01*
X70078Y22506D02*
X70406Y22834D01*
X71062D01*
X71390Y22506D01*
Y22178D01*
X71062Y21850D01*
X71390Y21522D01*
Y21194D01*
X71062Y20866D01*
X70406D01*
X70078Y21194D01*
Y21522D01*
X70406Y21850D01*
X70078Y22178D01*
Y22506D01*
X70406Y21850D02*
X71062D01*
X56693Y22440D02*
Y20472D01*
X57677D01*
X58005Y20800D01*
Y22112D01*
X57677Y22440D01*
X56693D01*
X58661D02*
X59973D01*
Y22112D01*
X58661Y20800D01*
Y20472D01*
X51181Y13385D02*
Y11417D01*
X52165D01*
X52493Y11745D01*
Y13057D01*
X52165Y13385D01*
X51181D01*
X54461D02*
X53805Y13057D01*
X53149Y12401D01*
Y11745D01*
X53477Y11417D01*
X54133D01*
X54461Y11745D01*
Y12073D01*
X54133Y12401D01*
X53149D01*
X38976Y13385D02*
Y11417D01*
X39960D01*
X40288Y11745D01*
Y13057D01*
X39960Y13385D01*
X38976D01*
X42256D02*
X40944D01*
Y12401D01*
X41600Y12729D01*
X41928D01*
X42256Y12401D01*
Y11745D01*
X41928Y11417D01*
X41272D01*
X40944Y11745D01*
X30709Y13385D02*
Y11417D01*
X31693D01*
X32021Y11745D01*
Y13057D01*
X31693Y13385D01*
X30709D01*
X33660Y11417D02*
Y13385D01*
X32677Y12401D01*
X33988D01*
X19291Y13385D02*
Y11417D01*
X20275D01*
X20603Y11745D01*
Y13057D01*
X20275Y13385D01*
X19291D01*
X21259Y13057D02*
X21587Y13385D01*
X22243D01*
X22571Y13057D01*
Y12729D01*
X22243Y12401D01*
X21915D01*
X22243D01*
X22571Y12073D01*
Y11745D01*
X22243Y11417D01*
X21587D01*
X21259Y11745D01*
X14567Y22440D02*
Y20472D01*
X15551D01*
X15879Y20800D01*
Y22112D01*
X15551Y22440D01*
X14567D01*
X17847Y20472D02*
X16535D01*
X17847Y21784D01*
Y22112D01*
X17519Y22440D01*
X16863D01*
X16535Y22112D01*
X1575Y22440D02*
Y20472D01*
X2559D01*
X2887Y20800D01*
Y22112D01*
X2559Y22440D01*
X1575D01*
X3543Y20472D02*
X4199D01*
X3871D01*
Y22440D01*
X3543Y22112D01*
X1175197Y-90551D02*
Y-89239D01*
X1175853Y-88583D01*
X1176509Y-89239D01*
Y-90551D01*
Y-89567D01*
X1175197D01*
X1177165Y-90551D02*
X1178149D01*
X1178477Y-90223D01*
X1178149Y-89895D01*
X1177493D01*
X1177165Y-89567D01*
X1177493Y-89239D01*
X1178477D01*
X1179133Y-90551D02*
X1180116D01*
X1180445Y-90223D01*
X1180116Y-89895D01*
X1179461D01*
X1179133Y-89567D01*
X1179461Y-89239D01*
X1180445D01*
X1182084Y-90551D02*
X1181428D01*
X1181100Y-90223D01*
Y-89567D01*
X1181428Y-89239D01*
X1182084D01*
X1182412Y-89567D01*
Y-89895D01*
X1181100D01*
X1183068Y-90551D02*
Y-89239D01*
X1183396D01*
X1183724Y-89567D01*
Y-90551D01*
Y-89567D01*
X1184052Y-89239D01*
X1184380Y-89567D01*
Y-90551D01*
X1185036Y-88583D02*
Y-90551D01*
X1186020D01*
X1186348Y-90223D01*
Y-89895D01*
Y-89567D01*
X1186020Y-89239D01*
X1185036D01*
X1187004Y-90551D02*
X1187660D01*
X1187332D01*
Y-88583D01*
X1187004D01*
X1188644Y-89239D02*
Y-90223D01*
X1188972Y-90551D01*
X1189956D01*
Y-90879D01*
X1189628Y-91207D01*
X1189300D01*
X1189956Y-90551D02*
Y-89239D01*
X1192580Y-88583D02*
X1193892D01*
X1193236D01*
Y-90551D01*
X1194876D02*
X1195531D01*
X1195859Y-90223D01*
Y-89567D01*
X1195531Y-89239D01*
X1194876D01*
X1194547Y-89567D01*
Y-90223D01*
X1194876Y-90551D01*
X1196515Y-91207D02*
Y-89239D01*
X1197499D01*
X1197827Y-89567D01*
Y-90223D01*
X1197499Y-90551D01*
X1196515D01*
X0Y0D02*
Y48819D01*
X-0D02*
X73622D01*
X0Y0D02*
X73622D01*
X73622D02*
Y48819D01*
D16*
X-224410Y-177165D02*
X1429134D01*
X-224410D02*
Y992126D01*
X1429134Y-177165D02*
Y992126D01*
X-224410D02*
X1429134D01*
X1153543Y-177165D02*
Y-19685D01*
X956693Y-177165D02*
Y-19685D01*
X1429134D01*
X956693Y-137795D02*
X1429134D01*
X1153543Y-98425D02*
X1429134D01*
X1153543Y-59055D02*
X1429134D01*
X1311024Y-137795D02*
Y-98425D01*
X1167322Y-164372D02*
X1166338Y-163388D01*
X1164370D01*
X1163386Y-164372D01*
Y-165356D01*
X1164370Y-166340D01*
X1166338D01*
X1167322Y-167324D01*
Y-168307D01*
X1166338Y-169291D01*
X1164370D01*
X1163386Y-168307D01*
X1169289Y-163388D02*
X1171257D01*
X1170273D01*
Y-169291D01*
X1169289D01*
X1171257D01*
X1174209Y-163388D02*
X1178145Y-169291D01*
Y-163388D02*
X1174209Y-169291D01*
X1180113Y-163388D02*
X1184048Y-169291D01*
Y-163388D02*
X1180113Y-169291D01*
X1186016Y-163388D02*
Y-164372D01*
X1187984Y-166340D01*
X1189952Y-164372D01*
Y-163388D01*
X1187984Y-166340D02*
Y-169291D01*
X1191920Y-170275D02*
X1195856D01*
X1197824Y-164372D02*
X1198807Y-163388D01*
X1200775D01*
X1201759Y-164372D01*
Y-168307D01*
X1200775Y-169291D01*
X1198807D01*
X1197824Y-168307D01*
Y-164372D01*
X1203727D02*
X1204711Y-163388D01*
X1206679D01*
X1207663Y-164372D01*
Y-168307D01*
X1206679Y-169291D01*
X1204711D01*
X1203727Y-168307D01*
Y-164372D01*
X1209631Y-169291D02*
Y-168307D01*
X1210615D01*
Y-169291D01*
X1209631D01*
X1214550D02*
Y-163388D01*
X1217502D01*
X1218486Y-164372D01*
Y-166340D01*
X1217502Y-167324D01*
X1214550D01*
X1224390Y-165356D02*
X1221438D01*
X1220454Y-166340D01*
Y-168307D01*
X1221438Y-169291D01*
X1224390D01*
X1226358Y-163388D02*
Y-169291D01*
X1229309D01*
X1230293Y-168307D01*
Y-167324D01*
Y-166340D01*
X1229309Y-165356D01*
X1226358D01*
X1232261Y-163388D02*
Y-169291D01*
X1235213D01*
X1236197Y-168307D01*
Y-164372D01*
X1235213Y-163388D01*
X1232261D01*
X1239149Y-169291D02*
X1241117D01*
X1242101Y-168307D01*
Y-166340D01*
X1241117Y-165356D01*
X1239149D01*
X1238165Y-166340D01*
Y-168307D01*
X1239149Y-169291D01*
X1248004Y-165356D02*
X1245052D01*
X1244068Y-166340D01*
Y-168307D01*
X1245052Y-169291D01*
X1248004D01*
D17*
X1157480Y-141735D02*
Y-149606D01*
X1161416D01*
X1162728Y-148294D01*
Y-143047D01*
X1161416Y-141735D01*
X1157480D01*
X1166664Y-149606D02*
X1169287D01*
X1170599Y-148294D01*
Y-145671D01*
X1169287Y-144359D01*
X1166664D01*
X1165352Y-145671D01*
Y-148294D01*
X1166664Y-149606D01*
X1178471Y-144359D02*
X1174535D01*
X1173223Y-145671D01*
Y-148294D01*
X1174535Y-149606D01*
X1178471D01*
X1181095Y-144359D02*
Y-148294D01*
X1182407Y-149606D01*
X1186342D01*
Y-144359D01*
X1188966Y-149606D02*
Y-144359D01*
X1190278D01*
X1191590Y-145671D01*
Y-149606D01*
Y-145671D01*
X1192902Y-144359D01*
X1194214Y-145671D01*
Y-149606D01*
X1200774D02*
X1198150D01*
X1196838Y-148294D01*
Y-145671D01*
X1198150Y-144359D01*
X1200774D01*
X1202085Y-145671D01*
Y-146983D01*
X1196838D01*
X1204709Y-149606D02*
Y-144359D01*
X1208645D01*
X1209957Y-145671D01*
Y-149606D01*
X1213893Y-143047D02*
Y-144359D01*
X1212581D01*
X1215205D01*
X1213893D01*
Y-148294D01*
X1215205Y-149606D01*
X1157480Y-102365D02*
Y-110236D01*
X1161416D01*
X1162728Y-108924D01*
Y-103677D01*
X1161416Y-102365D01*
X1157480D01*
X1166664Y-104989D02*
X1169287D01*
X1170599Y-106300D01*
Y-110236D01*
X1166664D01*
X1165352Y-108924D01*
X1166664Y-107612D01*
X1170599D01*
X1174535Y-103677D02*
Y-104989D01*
X1173223D01*
X1175847D01*
X1174535D01*
Y-108924D01*
X1175847Y-110236D01*
X1183719D02*
X1181095D01*
X1179783Y-108924D01*
Y-106300D01*
X1181095Y-104989D01*
X1183719D01*
X1185030Y-106300D01*
Y-107612D01*
X1179783D01*
X1157480Y-62995D02*
Y-70866D01*
X1162728D01*
X1166664Y-65618D02*
X1169287D01*
X1170599Y-66930D01*
Y-70866D01*
X1166664D01*
X1165352Y-69554D01*
X1166664Y-68242D01*
X1170599D01*
X1173223Y-65618D02*
Y-69554D01*
X1174535Y-70866D01*
X1178471D01*
Y-72178D01*
X1177159Y-73490D01*
X1175847D01*
X1178471Y-70866D02*
Y-65618D01*
X1185030Y-70866D02*
X1182407D01*
X1181095Y-69554D01*
Y-66930D01*
X1182407Y-65618D01*
X1185030D01*
X1186342Y-66930D01*
Y-68242D01*
X1181095D01*
X1188966Y-65618D02*
Y-70866D01*
Y-68242D01*
X1190278Y-66930D01*
X1191590Y-65618D01*
X1192902D01*
X1204709Y-70866D02*
Y-62995D01*
X1209957Y-70866D01*
Y-62995D01*
X1213893Y-65618D02*
X1216516D01*
X1217828Y-66930D01*
Y-70866D01*
X1213893D01*
X1212581Y-69554D01*
X1213893Y-68242D01*
X1217828D01*
X1220452Y-70866D02*
Y-65618D01*
X1221764D01*
X1223076Y-66930D01*
Y-70866D01*
Y-66930D01*
X1224388Y-65618D01*
X1225700Y-66930D01*
Y-70866D01*
X1232259D02*
X1229636D01*
X1228324Y-69554D01*
Y-66930D01*
X1229636Y-65618D01*
X1232259D01*
X1233571Y-66930D01*
Y-68242D01*
X1228324D01*
X1157480Y-23625D02*
Y-31496D01*
X1161416D01*
X1162728Y-30184D01*
Y-24937D01*
X1161416Y-23625D01*
X1157480D01*
X1166664Y-31496D02*
X1169287D01*
X1170599Y-30184D01*
Y-27560D01*
X1169287Y-26248D01*
X1166664D01*
X1165352Y-27560D01*
Y-30184D01*
X1166664Y-31496D01*
X1178471Y-26248D02*
X1174535D01*
X1173223Y-27560D01*
Y-30184D01*
X1174535Y-31496D01*
X1178471D01*
X1181095Y-26248D02*
Y-30184D01*
X1182407Y-31496D01*
X1186342D01*
Y-26248D01*
X1188966Y-31496D02*
Y-26248D01*
X1190278D01*
X1191590Y-27560D01*
Y-31496D01*
Y-27560D01*
X1192902Y-26248D01*
X1194214Y-27560D01*
Y-31496D01*
X1200774D02*
X1198150D01*
X1196838Y-30184D01*
Y-27560D01*
X1198150Y-26248D01*
X1200774D01*
X1202085Y-27560D01*
Y-28872D01*
X1196838D01*
X1204709Y-31496D02*
Y-26248D01*
X1208645D01*
X1209957Y-27560D01*
Y-31496D01*
X1213893Y-24937D02*
Y-26248D01*
X1212581D01*
X1215205D01*
X1213893D01*
Y-30184D01*
X1215205Y-31496D01*
X960630Y-141735D02*
Y-149606D01*
X964566D01*
X965878Y-148294D01*
Y-143047D01*
X964566Y-141735D01*
X960630D01*
X972437Y-149606D02*
X969813D01*
X968501Y-148294D01*
Y-145671D01*
X969813Y-144359D01*
X972437D01*
X973749Y-145671D01*
Y-146983D01*
X968501D01*
X976373Y-149606D02*
X980309D01*
X981621Y-148294D01*
X980309Y-146983D01*
X977685D01*
X976373Y-145671D01*
X977685Y-144359D01*
X981621D01*
X986868Y-152230D02*
X988180D01*
X989492Y-150918D01*
Y-144359D01*
X985556D01*
X984244Y-145671D01*
Y-148294D01*
X985556Y-149606D01*
X989492D01*
X992116D02*
X994740D01*
X993428D01*
Y-144359D01*
X992116D01*
X998675Y-149606D02*
Y-144359D01*
X1002611D01*
X1003923Y-145671D01*
Y-149606D01*
X1010483D02*
X1007859D01*
X1006547Y-148294D01*
Y-145671D01*
X1007859Y-144359D01*
X1010483D01*
X1011794Y-145671D01*
Y-146983D01*
X1006547D01*
X1014418Y-144359D02*
Y-149606D01*
Y-146983D01*
X1015730Y-145671D01*
X1017042Y-144359D01*
X1018354D01*
X1314961Y-110236D02*
Y-102365D01*
X1318896D01*
X1320208Y-103677D01*
Y-106300D01*
X1318896Y-107612D01*
X1314961D01*
X1317584D02*
X1320208Y-110236D01*
X1326768D02*
X1324144D01*
X1322832Y-108924D01*
Y-106300D01*
X1324144Y-104989D01*
X1326768D01*
X1328080Y-106300D01*
Y-107612D01*
X1322832D01*
X1330704Y-104989D02*
X1333327Y-110236D01*
X1335951Y-104989D01*
M02*
